<?xml version="1.0" encoding="UTF-8"?>
<!DOCTYPE svg PUBLIC "-//W3C//DTD SVG 1.1//EN" "http://www.w3.org/Graphics/SVG/1.1/DTD/svg11.dtd">
<svg xmlns="http://www.w3.org/2000/svg" version="1.1" width="64px" height="64px" style="shape-rendering:geometricPrecision; text-rendering:geometricPrecision; image-rendering:optimizeQuality; fill-rule:evenodd; clip-rule:evenodd" xmlns:xlink="http://www.w3.org/1999/xlink">
<g><path style="opacity:0.907" fill="#000000" d="M 23.5,-0.5 C 28.8333,-0.5 34.1667,-0.5 39.5,-0.5C 45.0221,1.26512 50.0221,4.09846 54.5,8C 58.6262,12.5995 61.6262,17.7662 63.5,23.5C 63.5,28.8333 63.5,34.1667 63.5,39.5C 61.7349,45.0221 58.9015,50.0221 55,54.5C 50.4005,58.6262 45.2338,61.6262 39.5,63.5C 34.1667,63.5 28.8333,63.5 23.5,63.5C 17.9779,61.7349 12.9779,58.9015 8.5,55C 4.37379,50.4005 1.37379,45.2338 -0.5,39.5C -0.5,34.1667 -0.5,28.8333 -0.5,23.5C 1.26512,17.9779 4.09846,12.9779 8,8.5C 12.5995,4.37379 17.7662,1.37379 23.5,-0.5 Z M 30.5,13.5 C 41.5181,15.6309 44.5181,21.6309 39.5,31.5C 34.7215,36.0755 29.7215,36.4088 24.5,32.5C 19.9245,27.7215 19.5912,22.7215 23.5,17.5C 25.5251,15.4356 27.8584,14.1023 30.5,13.5 Z M 26.5,36.5 C 38.4188,35.194 46.5855,39.8606 51,50.5C 37.4736,62.6533 24.307,62.32 11.5,49.5C 15.0173,43.3066 20.0173,38.9733 26.5,36.5 Z"/></g>
</svg>
