<?xml version="1.0" encoding="UTF-8"?>
<!DOCTYPE svg PUBLIC "-//W3C//DTD SVG 1.1//EN" "http://www.w3.org/Graphics/SVG/1.1/DTD/svg11.dtd">
<svg xmlns="http://www.w3.org/2000/svg" version="1.1" width="1024px" height="1024px" style="shape-rendering:geometricPrecision; text-rendering:geometricPrecision; image-rendering:optimizeQuality; fill-rule:evenodd; clip-rule:evenodd" xmlns:xlink="http://www.w3.org/1999/xlink">
<g><path style="opacity:0.205" fill="#010101" d="M 476.5,-0.5 C 499.833,-0.5 523.167,-0.5 546.5,-0.5C 686.889,11.9448 804.055,70.2781 898,174.5C 971.965,261.476 1013.8,362.143 1023.5,476.5C 1023.5,499.833 1023.5,523.167 1023.5,546.5C 1008.95,702.134 940.284,827.634 817.5,923C 736.79,981.947 646.457,1015.45 546.5,1023.5C 523.167,1023.5 499.833,1023.5 476.5,1023.5C 320.932,1008.98 195.432,940.314 100,817.5C 41.0585,736.826 7.5585,646.492 -0.5,546.5C -0.5,523.167 -0.5,499.833 -0.5,476.5C 14.0345,320.899 82.7012,195.399 205.5,100C 286.139,41.0636 376.472,7.56358 476.5,-0.5 Z"/></g>
<g><path style="opacity:1" fill="#acacac" d="M 984.5,392.5 C 984.41,395.152 985.076,397.485 986.5,399.5C 990.211,413.601 992.544,427.935 993.5,442.5C 993.302,447.75 993.969,452.75 995.5,457.5C 997.733,485.473 998.067,513.473 996.5,541.5C 995.116,546.944 994.45,552.611 994.5,558.5C 978.259,692.838 918.259,803.005 814.5,889C 712.618,968.793 596.618,1004.63 466.5,996.5C 461.056,995.116 455.389,994.45 449.5,994.5C 432.634,993.014 415.968,990.347 399.5,986.5C 397.485,985.076 395.152,984.41 392.5,984.5C 256.41,950.1 152.244,873.1 80,753.5C 40.7521,685.905 18.9188,612.905 14.5,534.5C 14.3644,511.157 14.6977,487.824 15.5,464.5C 15.1795,459.305 15.5128,454.305 16.5,449.5C 17.889,444.731 18.5557,439.731 18.5,434.5C 42.8288,286.258 117.496,171.092 242.5,89C 298.145,54.0587 358.478,31.2254 423.5,20.5C 435.707,19.3747 447.707,17.708 459.5,15.5C 602.193,4.23218 727.193,45.3988 834.5,139C 910.23,207.914 960.23,292.414 984.5,392.5 Z"/></g>
<g><path style="opacity:0.916" fill="#878787" d="M 459.5,15.5 C 447.707,17.708 435.707,19.3747 423.5,20.5C 435.192,17.5548 447.192,15.8881 459.5,15.5 Z"/></g>
<g><path style="opacity:1" fill="#fefefe" d="M 476.5,18.5 C 631.061,13.443 761.227,66.7763 867,178.5C 973.708,301.041 1012.37,442.708 983,603.5C 949.824,748.108 869.324,857.608 741.5,932C 619.556,996.57 492.223,1009.57 359.5,971C 214.96,921.793 112.794,826.959 53,686.5C -2.08317,539.588 8.25016,397.588 84,260.5C 153.907,144.954 254.073,69.1211 384.5,33C 414.928,25.6791 445.595,20.8458 476.5,18.5 Z"/></g>
<g><path style="opacity:1" fill="#aeb0b0" d="M 481.5,61.5 C 623.155,57.4337 741.988,107.1 838,210.5C 931.09,320.048 965.757,446.381 942,589.5C 913.805,720.62 842.639,820.787 728.5,890C 608.096,956.263 482.763,967.263 352.5,923C 226.394,873.894 138.561,786.394 89,660.5C 47.8195,543.063 52.8195,427.73 104,314.5C 166.541,190.654 264.708,110.487 398.5,74C 425.936,67.4487 453.603,63.282 481.5,61.5 Z"/></g>
<g><path style="opacity:1" fill="#09415a" d="M 809.5,189.5 C 802.06,183.904 794.727,178.071 787.5,172C 785.114,170.807 782.78,169.64 780.5,168.5C 775.185,164.859 769.851,161.192 764.5,157.5C 756.723,151.104 748.39,145.438 739.5,140.5C 724.447,129.97 708.447,120.97 691.5,113.5C 631.778,85.0058 568.612,71.0058 502,71.5C 354.583,76.2009 237.249,137.534 150,255.5C 68.4593,377.148 50.1259,508.148 95,648.5C 98.8626,657.754 102.529,667.088 106,676.5C 108.391,682.432 111.224,688.099 114.5,693.5C 121.649,709.81 130.316,725.143 140.5,739.5C 144.767,747.716 149.767,755.382 155.5,762.5C 159.858,768.518 164.191,774.518 168.5,780.5C 168.343,781.873 168.51,783.207 169,784.5C 178.083,794.41 186.583,804.744 194.5,815.5C 97.6562,714.858 55.8228,594.525 69,454.5C 87.2024,322.516 150.369,218.35 258.5,142C 385.233,60.3298 519.899,44.6631 662.5,95C 718.151,116.472 767.151,147.972 809.5,189.5 Z"/></g>
<g><path style="opacity:1" fill="#00567b" d="M 691.5,113.5 C 603.475,77.377 512.809,69.2103 419.5,89C 274.487,126.023 171.654,212.856 111,349.5C 73.3887,445.389 68.3887,543.056 96,642.5C 101.412,659.84 107.578,676.84 114.5,693.5C 111.224,688.099 108.391,682.432 106,676.5C 102.529,667.088 98.8626,657.754 95,648.5C 50.1259,508.148 68.4593,377.148 150,255.5C 237.249,137.534 354.583,76.2009 502,71.5C 568.612,71.0058 631.778,85.0058 691.5,113.5 Z"/></g>
<g><path style="opacity:1" fill="#00628d" d="M 691.5,113.5 C 708.447,120.97 724.447,129.97 739.5,140.5C 626.186,79.2493 507.853,67.7493 384.5,106C 258.598,150.9 169.098,234.733 116,357.5C 66.1789,488.722 74.3456,616.056 140.5,739.5C 130.316,725.143 121.649,709.81 114.5,693.5C 107.578,676.84 101.412,659.84 96,642.5C 68.3887,543.056 73.3887,445.389 111,349.5C 171.654,212.856 274.487,126.023 419.5,89C 512.809,69.2103 603.475,77.377 691.5,113.5 Z"/></g>
<g><path style="opacity:1" fill="#0070a1" d="M 739.5,140.5 C 748.39,145.438 756.723,151.104 764.5,157.5C 637.024,82.1138 503.691,69.9471 364.5,121C 229.52,180.184 142.354,280.684 103,422.5C 75.4063,540.354 92.0729,651.354 153,755.5C 154.411,757.65 155.245,759.984 155.5,762.5C 149.767,755.382 144.767,747.716 140.5,739.5C 74.3456,616.056 66.1789,488.722 116,357.5C 169.098,234.733 258.598,150.9 384.5,106C 507.853,67.7493 626.186,79.2493 739.5,140.5 Z"/></g>
<g><path style="opacity:1" fill="#0078ac" d="M 764.5,157.5 C 769.851,161.192 775.185,164.859 780.5,168.5C 892.139,264.45 944.972,386.45 939,534.5C 938.208,549.642 936.374,564.642 933.5,579.5C 835.535,482.035 737.701,384.368 640,286.5C 639.536,287.094 639.369,287.761 639.5,288.5C 595.073,232.536 537.739,212.369 467.5,228C 402.378,251.378 363.878,297.212 352,365.5C 349.811,384.24 350.311,402.907 353.5,421.5C 353.294,424.495 353.96,427.162 355.5,429.5C 364.843,469.213 385.51,501.546 417.5,526.5C 416.761,526.369 416.094,526.536 415.5,527C 456.5,568 497.5,609 538.5,650C 539.793,650.49 541.127,650.657 542.5,650.5C 526.368,652.23 510.034,652.896 493.5,652.5C 486.414,650.656 479.08,649.656 471.5,649.5C 430.944,643.048 394.611,627.215 362.5,602C 360.833,601.333 359.167,601.333 357.5,602C 332.229,610.931 311.062,625.765 294,646.5C 270.438,676.967 255.605,711.301 249.5,749.5C 247.896,753.9 247.229,758.566 247.5,763.5C 246.686,768.119 246.353,772.786 246.5,777.5C 245.508,784.982 245.175,792.648 245.5,800.5C 422.833,800.5 600.167,800.5 777.5,800.5C 600.667,801.333 423.667,801.833 246.5,802C 284.039,839.034 320.705,876.2 356.5,913.5C 281.964,885.903 219.297,841.569 168.5,780.5C 164.191,774.518 159.858,768.518 155.5,762.5C 155.245,759.984 154.411,757.65 153,755.5C 92.0729,651.354 75.4063,540.354 103,422.5C 142.354,280.684 229.52,180.184 364.5,121C 503.691,69.9471 637.024,82.1138 764.5,157.5 Z"/></g>
<g><path style="opacity:1" fill="#0e577b" d="M 780.5,168.5 C 782.78,169.64 785.114,170.807 787.5,172C 794.727,178.071 802.06,183.904 809.5,189.5C 814.426,192.921 818.926,196.921 823,201.5C 909.526,294.399 949.86,404.732 944,532.5C 942.365,551.766 939.865,570.766 936.5,589.5C 936.663,587.143 936.497,584.81 936,582.5C 935.586,582.043 935.086,581.709 934.5,581.5C 933.641,584 932.641,586.333 931.5,588.5C 931.7,585.37 932.366,582.37 933.5,579.5C 936.374,564.642 938.208,549.642 939,534.5C 944.972,386.45 892.139,264.45 780.5,168.5 Z"/></g>
<g><path style="opacity:1" fill="#fefefe" d="M 639.5,288.5 C 651.391,305.619 660.058,324.285 665.5,344.5C 665.41,347.152 666.076,349.485 667.5,351.5C 679.035,414.041 663.035,468.207 619.5,514C 571.598,556.659 516.932,567.993 455.5,548C 441.702,542.607 429.035,535.441 417.5,526.5C 385.51,501.546 364.843,469.213 355.5,429.5C 355.435,426.572 354.768,423.905 353.5,421.5C 350.311,402.907 349.811,384.24 352,365.5C 363.878,297.212 402.378,251.378 467.5,228C 537.739,212.369 595.073,232.536 639.5,288.5 Z"/></g>
<g><path style="opacity:1" fill="#005a82" d="M 933.5,579.5 C 932.366,582.37 931.7,585.37 931.5,588.5C 908.443,701.185 850.776,791.351 758.5,859C 651.547,932.606 534.214,955.939 406.5,929C 391.143,925.579 376.143,921.079 361.5,915.5C 359.833,914.833 358.167,914.167 356.5,913.5C 320.705,876.2 284.039,839.034 246.5,802C 423.667,801.833 600.667,801.333 777.5,800.5C 777.825,792.981 777.492,785.648 776.5,778.5C 776.587,773.463 776.254,768.463 775.5,763.5C 775.638,758.586 774.972,753.919 773.5,749.5C 765.742,701.48 744.408,660.647 709.5,627C 697.065,616.443 683.065,608.443 667.5,603C 664.874,602.005 662.207,601.672 659.5,602C 631.439,623.528 600.105,638.362 565.5,646.5C 563.102,646.259 561.102,646.926 559.5,648.5C 553.875,649.493 548.208,650.16 542.5,650.5C 541.127,650.657 539.793,650.49 538.5,650C 497.5,609 456.5,568 415.5,527C 416.094,526.536 416.761,526.369 417.5,526.5C 429.035,535.441 441.702,542.607 455.5,548C 516.932,567.993 571.598,556.659 619.5,514C 663.035,468.207 679.035,414.041 667.5,351.5C 667.59,348.848 666.924,346.515 665.5,344.5C 660.058,324.285 651.391,305.619 639.5,288.5C 639.369,287.761 639.536,287.094 640,286.5C 737.701,384.368 835.535,482.035 933.5,579.5 Z"/></g>
<g><path style="opacity:1" fill="#98bbcb" d="M 665.5,344.5 C 666.924,346.515 667.59,348.848 667.5,351.5C 666.076,349.485 665.41,347.152 665.5,344.5 Z"/></g>
<g><path style="opacity:0.702" fill="#5c5c5c" d="M 984.5,392.5 C 985.924,394.515 986.59,396.848 986.5,399.5C 985.076,397.485 984.41,395.152 984.5,392.5 Z"/></g>
<g><path style="opacity:1" fill="#81b7d1" d="M 353.5,421.5 C 354.768,423.905 355.435,426.572 355.5,429.5C 353.96,427.162 353.294,424.495 353.5,421.5 Z"/></g>
<g><path style="opacity:0.839" fill="#717171" d="M 18.5,434.5 C 18.5557,439.731 17.889,444.731 16.5,449.5C 16.4443,444.269 17.111,439.269 18.5,434.5 Z"/></g>
<g><path style="opacity:0.8" fill="#747474" d="M 993.5,442.5 C 994.889,447.269 995.556,452.269 995.5,457.5C 993.969,452.75 993.302,447.75 993.5,442.5 Z"/></g>
<g><path style="opacity:0.875" fill="#8a8a8a" d="M 15.5,464.5 C 14.6977,487.824 14.3644,511.157 14.5,534.5C 13.8335,525.006 13.5002,515.339 13.5,505.5C 13.303,491.632 13.9697,477.965 15.5,464.5 Z"/></g>
<g><path style="opacity:0.831" fill="#717171" d="M 996.5,541.5 C 996.679,547.404 996.012,553.071 994.5,558.5C 994.45,552.611 995.116,546.944 996.5,541.5 Z"/></g>
<g><path style="opacity:1" fill="#08435d" d="M 936.5,589.5 C 910.483,712.435 845.15,808.268 740.5,877C 678.05,915.788 610.05,937.955 536.5,943.5C 519.18,944.321 501.847,944.654 484.5,944.5C 443.282,942.859 403.282,935.192 364.5,921.5C 363.797,919.284 362.464,917.451 360.5,916C 360.728,915.601 361.062,915.435 361.5,915.5C 376.143,921.079 391.143,925.579 406.5,929C 534.214,955.939 651.547,932.606 758.5,859C 850.776,791.351 908.443,701.185 931.5,588.5C 932.641,586.333 933.641,584 934.5,581.5C 935.086,581.709 935.586,582.043 936,582.5C 936.497,584.81 936.663,587.143 936.5,589.5 Z"/></g>
<g><path style="opacity:1" fill="#fefefe" d="M 471.5,649.5 C 478.55,651.602 485.883,652.602 493.5,652.5C 510.034,652.896 526.368,652.23 542.5,650.5C 548.208,650.16 553.875,649.493 559.5,648.5C 561.898,648.741 563.898,648.074 565.5,646.5C 600.105,638.362 631.439,623.528 659.5,602C 662.207,601.672 664.874,602.005 667.5,603C 683.065,608.443 697.065,616.443 709.5,627C 744.408,660.647 765.742,701.48 773.5,749.5C 773.362,754.414 774.028,759.081 775.5,763.5C 776.254,768.463 776.587,773.463 776.5,778.5C 776.5,785.5 776.5,792.5 776.5,799.5C 599.833,799.5 423.167,799.5 246.5,799.5C 246.5,792.167 246.5,784.833 246.5,777.5C 246.353,772.786 246.686,768.119 247.5,763.5C 249.104,759.1 249.771,754.434 249.5,749.5C 255.605,711.301 270.438,676.967 294,646.5C 311.062,625.765 332.229,610.931 357.5,602C 359.167,601.333 360.833,601.333 362.5,602C 394.611,627.215 430.944,643.048 471.5,649.5 Z"/></g>
<g><path style="opacity:1" fill="#a9c6d4" d="M 565.5,646.5 C 563.898,648.074 561.898,648.741 559.5,648.5C 561.102,646.926 563.102,646.259 565.5,646.5 Z"/></g>
<g><path style="opacity:1" fill="#599fc3" d="M 471.5,649.5 C 479.08,649.656 486.414,650.656 493.5,652.5C 485.883,652.602 478.55,651.602 471.5,649.5 Z"/></g>
<g><path style="opacity:1" fill="#a3c2d1" d="M 773.5,749.5 C 774.972,753.919 775.638,758.586 775.5,763.5C 774.028,759.081 773.362,754.414 773.5,749.5 Z"/></g>
<g><path style="opacity:1" fill="#aed0e1" d="M 249.5,749.5 C 249.771,754.434 249.104,759.1 247.5,763.5C 247.229,758.566 247.896,753.9 249.5,749.5 Z"/></g>
<g><path style="opacity:0.999" fill="#0d567a" d="M 168.5,780.5 C 219.297,841.569 281.964,885.903 356.5,913.5C 358.167,914.167 359.833,914.833 361.5,915.5C 361.062,915.435 360.728,915.601 360.5,916C 362.464,917.451 363.797,919.284 364.5,921.5C 299.536,899.357 242.869,864.024 194.5,815.5C 186.583,804.744 178.083,794.41 169,784.5C 168.51,783.207 168.343,781.873 168.5,780.5 Z"/></g>
<g><path style="opacity:1" fill="#e4edf1" d="M 246.5,777.5 C 246.5,784.833 246.5,792.167 246.5,799.5C 423.167,799.5 599.833,799.5 776.5,799.5C 776.5,792.5 776.5,785.5 776.5,778.5C 777.492,785.648 777.825,792.981 777.5,800.5C 600.167,800.5 422.833,800.5 245.5,800.5C 245.175,792.648 245.508,784.982 246.5,777.5 Z"/></g>
<g><path style="opacity:0.956" fill="#839197" d="M 536.5,943.5 C 534.369,944.314 532.036,944.814 529.5,945C 514.328,945.828 499.328,945.661 484.5,944.5C 501.847,944.654 519.18,944.321 536.5,943.5 Z"/></g>
<g><path style="opacity:0.722" fill="#606060" d="M 392.5,984.5 C 395.152,984.41 397.485,985.076 399.5,986.5C 396.848,986.59 394.515,985.924 392.5,984.5 Z"/></g>
<g><path style="opacity:0.704" fill="#5d5d5d" d="M 449.5,994.5 C 455.389,994.45 461.056,995.116 466.5,996.5C 460.611,996.55 454.944,995.884 449.5,994.5 Z"/></g>
</svg>
