<?xml version="1.0" encoding="UTF-8"?>
<!DOCTYPE svg PUBLIC "-//W3C//DTD SVG 1.1//EN" "http://www.w3.org/Graphics/SVG/1.1/DTD/svg11.dtd">
<svg xmlns="http://www.w3.org/2000/svg" version="1.1" width="64px" height="64px" style="shape-rendering:geometricPrecision; text-rendering:geometricPrecision; image-rendering:optimizeQuality; fill-rule:evenodd; clip-rule:evenodd" xmlns:xlink="http://www.w3.org/1999/xlink">
<g><path style="opacity:0.981" fill="#c8dffd" d="M 23.5,-0.5 C 28.8333,-0.5 34.1667,-0.5 39.5,-0.5C 51.8333,3.16667 59.8333,11.1667 63.5,23.5C 63.5,28.8333 63.5,34.1667 63.5,39.5C 61.7844,45.2636 58.7844,50.2636 54.5,54.5C 55.1856,50.713 54.1856,47.5463 51.5,45C 46.8145,43.5723 42.3145,41.739 38,39.5C 37.6012,39.7284 37.4346,40.0618 37.5,40.5C 36.8333,40.5 36.5,40.1667 36.5,39.5C 36.3433,38.1266 36.51,36.7932 37,35.5C 40.8124,31.5479 42.979,26.8812 43.5,21.5C 43.6641,18.8127 43.4974,16.146 43,13.5C 41.9887,12.6634 40.8221,12.33 39.5,12.5C 39.67,11.1779 39.3366,10.0113 38.5,9C 33.5,8.33333 28.5,8.33333 23.5,9C 19.8354,12.2978 18.5021,16.4645 19.5,21.5C 20.5,21.5 21.5,21.5 22.5,21.5C 21.791,22.404 20.791,22.7373 19.5,22.5C 20.9345,26.8171 22.9345,30.8171 25.5,34.5C 25.5,36.1667 25.5,37.8333 25.5,39.5C 23.4261,40.5139 21.4261,41.5139 19.5,42.5C 12.1701,42.8378 8.17012,46.5044 7.5,53.5C 3.79389,49.4204 1.12723,44.7537 -0.5,39.5C -0.5,34.1667 -0.5,28.8333 -0.5,23.5C 3.16667,11.1667 11.1667,3.16667 23.5,-0.5 Z"/></g>
<g><path style="opacity:1" fill="#385d7a" d="M 43.5,21.5 C 42.1667,21.5 40.8333,21.5 39.5,21.5C 39.9899,19.0516 39.1566,17.385 37,16.5C 32.8272,17.5343 28.6606,17.701 24.5,17C 23.9011,18.6225 23.2344,20.1225 22.5,21.5C 21.5,21.5 20.5,21.5 19.5,21.5C 18.5021,16.4645 19.8354,12.2978 23.5,9C 28.5,8.33333 33.5,8.33333 38.5,9C 39.3366,10.0113 39.67,11.1779 39.5,12.5C 40.8221,12.33 41.9887,12.6634 43,13.5C 43.4974,16.146 43.6641,18.8127 43.5,21.5 Z"/></g>
<g><path style="opacity:1" fill="#fdd8ca" d="M 43.5,21.5 C 42.979,26.8812 40.8124,31.5479 37,35.5C 36.51,36.7932 36.3433,38.1266 36.5,39.5C 34.7819,41.2228 33.4486,43.2228 32.5,45.5C 32.1667,45.5 31.8333,45.5 31.5,45.5C 28.1575,42.476 26.1575,38.8093 25.5,34.5C 22.9345,30.8171 20.9345,26.8171 19.5,22.5C 20.791,22.7373 21.791,22.404 22.5,21.5C 23.2344,20.1225 23.9011,18.6225 24.5,17C 28.6606,17.701 32.8272,17.5343 37,16.5C 39.1566,17.385 39.9899,19.0516 39.5,21.5C 40.8333,21.5 42.1667,21.5 43.5,21.5 Z"/></g>
<g><path style="opacity:1" fill="#3f6583" d="M 25.5,39.5 C 24.9967,45.5606 25.9967,51.2273 28.5,56.5C 28.8782,58.921 29.5448,61.2543 30.5,63.5C 30.1667,63.5 29.8333,63.5 29.5,63.5C 26.5474,59.375 23.3807,55.375 20,51.5C 20.4115,48.4512 20.2449,45.4512 19.5,42.5C 21.4261,41.5139 23.4261,40.5139 25.5,39.5 Z"/></g>
<g><path style="opacity:1" fill="#ebf3f9" d="M 25.5,34.5 C 26.1575,38.8093 28.1575,42.476 31.5,45.5C 30.3734,46.1217 29.3734,46.955 28.5,48C 29.523,50.7742 29.523,53.6075 28.5,56.5C 25.9967,51.2273 24.9967,45.5606 25.5,39.5C 25.5,37.8333 25.5,36.1667 25.5,34.5 Z"/></g>
<g><path style="opacity:1" fill="#edf4fa" d="M 36.5,39.5 C 36.5,40.1667 36.8333,40.5 37.5,40.5C 37.9466,46.2283 36.9466,51.5617 34.5,56.5C 33.477,53.6075 33.477,50.7742 34.5,48C 33.6195,47.2917 32.9528,46.4584 32.5,45.5C 33.4486,43.2228 34.7819,41.2228 36.5,39.5 Z"/></g>
<g><path style="opacity:0.985" fill="#4c81ab" d="M 19.5,42.5 C 20.2449,45.4512 20.4115,48.4512 20,51.5C 23.3807,55.375 26.5474,59.375 29.5,63.5C 27.5,63.5 25.5,63.5 23.5,63.5C 17.2235,61.6941 11.8902,58.3608 7.5,53.5C 8.17012,46.5044 12.1701,42.8378 19.5,42.5 Z"/></g>
<g><path style="opacity:0.94" fill="#427194" d="M 54.5,54.5 C 50.2636,58.7844 45.2636,61.7844 39.5,63.5C 37.1667,63.5 34.8333,63.5 32.5,63.5C 33.4552,61.2543 34.1218,58.921 34.5,56.5C 36.9466,51.5617 37.9466,46.2283 37.5,40.5C 37.4346,40.0618 37.6012,39.7284 38,39.5C 42.3145,41.739 46.8145,43.5723 51.5,45C 54.1856,47.5463 55.1856,50.713 54.5,54.5 Z"/></g>
<g><path style="opacity:1" fill="#dc7f86" d="M 31.5,45.5 C 31.8333,45.5 32.1667,45.5 32.5,45.5C 32.9528,46.4584 33.6195,47.2917 34.5,48C 33.477,50.7742 33.477,53.6075 34.5,56.5C 34.1218,58.921 33.4552,61.2543 32.5,63.5C 31.8333,63.5 31.1667,63.5 30.5,63.5C 29.5448,61.2543 28.8782,58.921 28.5,56.5C 29.523,53.6075 29.523,50.7742 28.5,48C 29.3734,46.955 30.3734,46.1217 31.5,45.5 Z"/></g>
</svg>
