<?xml version="1.0" encoding="UTF-8"?>
<!DOCTYPE svg PUBLIC "-//W3C//DTD SVG 1.1//EN" "http://www.w3.org/Graphics/SVG/1.1/DTD/svg11.dtd">
<svg xmlns="http://www.w3.org/2000/svg" version="1.1" width="64px" height="64px" style="shape-rendering:geometricPrecision; text-rendering:geometricPrecision; image-rendering:optimizeQuality; fill-rule:evenodd; clip-rule:evenodd" xmlns:xlink="http://www.w3.org/1999/xlink">
<g><path style="opacity:0.982" fill="#ec4b67" d="M 23.5,-0.5 C 28.8333,-0.5 34.1667,-0.5 39.5,-0.5C 51.8333,3.16667 59.8333,11.1667 63.5,23.5C 63.5,28.8333 63.5,34.1667 63.5,39.5C 61.6022,46.2917 57.9356,51.9583 52.5,56.5C 53.9925,51.7643 53.8258,47.0976 52,42.5C 48.9789,41.0249 45.8123,40.0249 42.5,39.5C 41.2195,36.5526 39.2195,34.2193 36.5,32.5C 38.5363,29.0817 41.0363,26.0817 44,23.5C 44.8769,21.3258 44.3769,19.6591 42.5,18.5C 42.6621,16.4727 42.4955,14.4727 42,12.5C 39.6647,9.8338 37.8314,6.8338 36.5,3.5C 33.1667,0.833333 29.8333,0.833333 26.5,3.5C 25.1686,6.8338 23.3353,9.8338 21,12.5C 20.5045,14.4727 20.3379,16.4727 20.5,18.5C 18.6231,19.6591 18.1231,21.3258 19,23.5C 21.9637,26.0817 24.4637,29.0817 26.5,32.5C 23.7805,34.2193 21.7805,36.5526 20.5,39.5C 17.1877,40.0249 14.0211,41.0249 11,42.5C 9.97113,46.5729 9.1378,50.5729 8.5,54.5C 4.21563,50.2636 1.21563,45.2636 -0.5,39.5C -0.5,34.1667 -0.5,28.8333 -0.5,23.5C 3.16667,11.1667 11.1667,3.16667 23.5,-0.5 Z"/></g>
<g><path style="opacity:1" fill="#3b3c47" d="M 42.5,18.5 C 42.4437,21.517 42.1103,21.8503 41.5,19.5C 41.1667,18.5 40.5,17.8333 39.5,17.5C 38.9423,16.2101 37.9423,15.3768 36.5,15C 32.6269,15.1507 29.2936,13.9841 26.5,11.5C 24.7224,13.264 23.3891,15.264 22.5,17.5C 21.6618,17.8417 21.3284,18.5084 21.5,19.5C 20.794,20.5573 20.4607,20.2239 20.5,18.5C 20.3379,16.4727 20.5045,14.4727 21,12.5C 23.3353,9.8338 25.1686,6.8338 26.5,3.5C 29.8333,0.833333 33.1667,0.833333 36.5,3.5C 37.8314,6.8338 39.6647,9.8338 42,12.5C 42.4955,14.4727 42.6621,16.4727 42.5,18.5 Z"/></g>
<g><path style="opacity:1" fill="#eac49c" d="M 39.5,17.5 C 33.8333,17.5 28.1667,17.5 22.5,17.5C 23.3891,15.264 24.7224,13.264 26.5,11.5C 29.2936,13.9841 32.6269,15.1507 36.5,15C 37.9423,15.3768 38.9423,16.2101 39.5,17.5 Z"/></g>
<g><path style="opacity:1" fill="#a1a5b5" d="M 22.5,17.5 C 28.1667,17.5 33.8333,17.5 39.5,17.5C 40.5,17.8333 41.1667,18.5 41.5,19.5C 38.8728,18.9084 36.2062,18.5751 33.5,18.5C 33.7746,23.2203 32.9412,23.5537 31,19.5C 29.9125,21.9316 29.4125,21.5983 29.5,18.5C 27.8008,18.3398 26.1341,18.5065 24.5,19C 23.9698,20.7438 23.9698,22.2438 24.5,23.5C 23.1408,22.3757 22.1408,21.0423 21.5,19.5C 21.3284,18.5084 21.6618,17.8417 22.5,17.5 Z"/></g>
<g><path style="opacity:1" fill="#f3c9a0" d="M 20.5,18.5 C 20.4607,20.2239 20.794,20.5573 21.5,19.5C 22.1408,21.0423 23.1408,22.3757 24.5,23.5C 23.9698,22.2438 23.9698,20.7438 24.5,19C 26.1341,18.5065 27.8008,18.3398 29.5,18.5C 29.4125,21.5983 29.9125,21.9316 31,19.5C 32.9412,23.5537 33.7746,23.2203 33.5,18.5C 36.2062,18.5751 38.8728,18.9084 41.5,19.5C 42.1103,21.8503 42.4437,21.517 42.5,18.5C 44.3769,19.6591 44.8769,21.3258 44,23.5C 41.0363,26.0817 38.5363,29.0817 36.5,32.5C 36.5,32.8333 36.5,33.1667 36.5,33.5C 33.1667,34.8333 29.8333,34.8333 26.5,33.5C 26.5,33.1667 26.5,32.8333 26.5,32.5C 24.4637,29.0817 21.9637,26.0817 19,23.5C 18.1231,21.3258 18.6231,19.6591 20.5,18.5 Z"/></g>
<g><path style="opacity:1" fill="#e6e5e5" d="M 26.5,32.5 C 26.5,32.8333 26.5,33.1667 26.5,33.5C 26.3419,37.5174 28.0086,40.5174 31.5,42.5C 34.9914,40.5174 36.6581,37.5174 36.5,33.5C 36.5,33.1667 36.5,32.8333 36.5,32.5C 39.2195,34.2193 41.2195,36.5526 42.5,39.5C 42.5,40.8333 42.5,42.1667 42.5,43.5C 41.735,42.3398 40.735,41.3398 39.5,40.5C 38.1084,48.2555 36.4418,55.9221 34.5,63.5C 32.5,63.5 30.5,63.5 28.5,63.5C 26.5582,55.9221 24.8916,48.2555 23.5,40.5C 22.265,41.3398 21.265,42.3398 20.5,43.5C 20.5,42.1667 20.5,40.8333 20.5,39.5C 21.7805,36.5526 23.7805,34.2193 26.5,32.5 Z"/></g>
<g><path style="opacity:1" fill="#f0b97e" d="M 26.5,33.5 C 29.8333,34.8333 33.1667,34.8333 36.5,33.5C 36.6581,37.5174 34.9914,40.5174 31.5,42.5C 28.0086,40.5174 26.3419,37.5174 26.5,33.5 Z"/></g>
<g><path style="opacity:1" fill="#53525e" d="M 20.5,39.5 C 20.5,40.8333 20.5,42.1667 20.5,43.5C 20.9234,44.2646 21.2568,45.0979 21.5,46C 20.4911,47.1681 19.4911,48.3348 18.5,49.5C 20.8466,54.1932 23.1799,58.8599 25.5,63.5C 24.8333,63.5 24.1667,63.5 23.5,63.5C 17.7364,61.7844 12.7364,58.7844 8.5,54.5C 9.1378,50.5729 9.97113,46.5729 11,42.5C 14.0211,41.0249 17.1877,40.0249 20.5,39.5 Z"/></g>
<g><path style="opacity:1" fill="#53525e" d="M 42.5,39.5 C 45.8123,40.0249 48.9789,41.0249 52,42.5C 53.8258,47.0976 53.9925,51.7643 52.5,56.5C 48.5462,59.6419 44.2129,61.9753 39.5,63.5C 38.8333,63.5 38.1667,63.5 37.5,63.5C 39.8201,58.8599 42.1534,54.1932 44.5,49.5C 43.5089,48.3348 42.5089,47.1681 41.5,46C 41.7432,45.0979 42.0766,44.2646 42.5,43.5C 42.5,42.1667 42.5,40.8333 42.5,39.5 Z"/></g>
<g><path style="opacity:1" fill="#69707d" d="M 28.5,63.5 C 27.5,63.5 26.5,63.5 25.5,63.5C 23.1799,58.8599 20.8466,54.1932 18.5,49.5C 19.4911,48.3348 20.4911,47.1681 21.5,46C 21.2568,45.0979 20.9234,44.2646 20.5,43.5C 21.265,42.3398 22.265,41.3398 23.5,40.5C 24.8916,48.2555 26.5582,55.9221 28.5,63.5 Z"/></g>
<g><path style="opacity:1" fill="#69707d" d="M 42.5,43.5 C 42.0766,44.2646 41.7432,45.0979 41.5,46C 42.5089,47.1681 43.5089,48.3348 44.5,49.5C 42.1534,54.1932 39.8201,58.8599 37.5,63.5C 36.5,63.5 35.5,63.5 34.5,63.5C 36.4418,55.9221 38.1084,48.2555 39.5,40.5C 40.735,41.3398 41.735,42.3398 42.5,43.5 Z"/></g>
</svg>
