<?xml version="1.0" encoding="UTF-8"?>
<!DOCTYPE svg PUBLIC "-//W3C//DTD SVG 1.1//EN" "http://www.w3.org/Graphics/SVG/1.1/DTD/svg11.dtd">
<svg xmlns="http://www.w3.org/2000/svg" version="1.1" width="64px" height="64px" style="shape-rendering:geometricPrecision; text-rendering:geometricPrecision; image-rendering:optimizeQuality; fill-rule:evenodd; clip-rule:evenodd" xmlns:xlink="http://www.w3.org/1999/xlink">
<g><path style="opacity:1" fill="#09d0f2" d="M 51.5,1.5 C 57.2487,1.6976 61.2487,4.36426 63.5,9.5C 63.5,12.8333 63.5,16.1667 63.5,19.5C 61.5882,23.9053 58.2548,26.7387 53.5,28C 46.5079,28.4996 39.5079,28.6663 32.5,28.5C 31.5655,27.4324 31.2322,26.099 31.5,24.5C 38.5079,24.6663 45.5079,24.4996 52.5,24C 58.7952,21.5748 60.9618,17.0748 59,10.5C 57.5202,7.33738 55.0202,5.50405 51.5,5C 43.5069,4.50029 35.5069,4.33362 27.5,4.5C 27.5,3.5 27.5,2.5 27.5,1.5C 35.5,1.5 43.5,1.5 51.5,1.5 Z"/></g>
<g><path style="opacity:1" fill="#71fefe" d="M 26.5,12.5 C 24.8868,12.9443 23.7202,13.9443 23,15.5C 22.8247,20.0195 22.3247,24.3528 21.5,28.5C 21.5,26.8333 21.5,25.1667 21.5,23.5C 16.3722,23.8885 11.3722,23.3885 6.5,22C 1.99852,16.0118 2.66518,10.6785 8.5,6C 14.4908,5.50051 20.4908,5.33385 26.5,5.5C 26.5,7.83333 26.5,10.1667 26.5,12.5 Z"/></g>
<g><path style="opacity:1" fill="#3de8f2" d="M 51.5,1.5 C 43.5,1.5 35.5,1.5 27.5,1.5C 27.5,2.5 27.5,3.5 27.5,4.5C 35.5069,4.33362 43.5069,4.50029 51.5,5C 55.0202,5.50405 57.5202,7.33738 59,10.5C 60.9618,17.0748 58.7952,21.5748 52.5,24C 45.5079,24.4996 38.5079,24.6663 31.5,24.5C 31.6646,21.4816 31.498,18.4816 31,15.5C 30.5831,14.244 29.7498,13.5774 28.5,13.5C 28.1583,12.6618 27.4916,12.3284 26.5,12.5C 26.5,10.1667 26.5,7.83333 26.5,5.5C 20.4908,5.33385 14.4908,5.50051 8.5,6C 2.66518,10.6785 1.99852,16.0118 6.5,22C 11.3722,23.3885 16.3722,23.8885 21.5,23.5C 21.5,25.1667 21.5,26.8333 21.5,28.5C 16.4195,28.7503 11.4195,28.2503 6.5,27C 3.25432,25.2576 0.920984,22.7576 -0.5,19.5C -0.5,16.1667 -0.5,12.8333 -0.5,9.5C 1.81306,4.49222 5.81306,1.65888 11.5,1C 25.0064,0.172959 38.3397,0.339626 51.5,1.5 Z"/></g>
<g><path style="opacity:1" fill="#04cff2" d="M 48.5,9.5 C 49.5,9.5 50.5,9.5 51.5,9.5C 49.6898,13.9925 46.6898,17.6592 42.5,20.5C 39.1389,18.8217 37.4722,16.155 37.5,12.5C 39.9124,12.244 41.5791,13.244 42.5,15.5C 44.8545,13.8122 46.8545,11.8122 48.5,9.5 Z"/></g>
<g><path style="opacity:0.949" fill="#fcdbcc" d="M 26.5,12.5 C 27.4916,12.3284 28.1583,12.6618 28.5,13.5C 26.5191,26.1237 25.8524,39.1237 26.5,52.5C 24.8333,52.5 23.1667,52.5 21.5,52.5C 16.9387,50.1069 13.6054,46.6069 11.5,42C 13.0236,36.9021 16.0236,35.7354 20.5,38.5C 21.487,35.2317 21.8204,31.8984 21.5,28.5C 22.3247,24.3528 22.8247,20.0195 23,15.5C 23.7202,13.9443 24.8868,12.9443 26.5,12.5 Z"/></g>
<g><path style="opacity:1" fill="#fbcdbe" d="M 28.5,13.5 C 29.7498,13.5774 30.5831,14.244 31,15.5C 31.498,18.4816 31.6646,21.4816 31.5,24.5C 31.2322,26.099 31.5655,27.4324 32.5,28.5C 32.5,29.5 32.5,30.5 32.5,31.5C 36.8533,31.7646 41.1866,32.2646 45.5,33C 46.3081,33.3076 46.9747,33.8076 47.5,34.5C 48.4571,40.439 48.7904,46.439 48.5,52.5C 41.1667,52.5 33.8333,52.5 26.5,52.5C 25.8524,39.1237 26.5191,26.1237 28.5,13.5 Z"/></g>
<g><path style="opacity:1" fill="#0e2f67" d="M 21.5,52.5 C 23.1667,52.5 24.8333,52.5 26.5,52.5C 33.8333,52.5 41.1667,52.5 48.5,52.5C 48.7839,55.7766 48.4505,58.9433 47.5,62C 39.1178,62.8029 30.7845,62.6362 22.5,61.5C 21.5159,58.5719 21.1826,55.5719 21.5,52.5 Z"/></g>
</svg>
