<?xml version="1.0" encoding="UTF-8"?>
<!DOCTYPE svg PUBLIC "-//W3C//DTD SVG 1.1//EN" "http://www.w3.org/Graphics/SVG/1.1/DTD/svg11.dtd">
<svg xmlns="http://www.w3.org/2000/svg" version="1.1" width="64px" height="64px" style="shape-rendering:geometricPrecision; text-rendering:geometricPrecision; image-rendering:optimizeQuality; fill-rule:evenodd; clip-rule:evenodd" xmlns:xlink="http://www.w3.org/1999/xlink">
<g><path style="opacity:1" fill="#f1ac2e" d="M 51.5,42.5 C 45.0848,47.3968 38.4182,47.7302 31.5,43.5C 30.3984,41.9081 31.065,41.0748 33.5,41C 32.2068,40.51 30.8734,40.3433 29.5,40.5C 30.9516,39.6981 32.6183,39.1981 34.5,39C 35.3366,37.9887 35.67,36.8221 35.5,35.5C 36.9613,36.6857 38.2946,36.6857 39.5,35.5C 41.717,36.3686 44.0504,36.702 46.5,36.5C 46.4592,32.7566 47.1259,32.5899 48.5,36C 53.1732,36.179 54.5065,34.0123 52.5,29.5C 51.2519,30.0402 50.0852,30.7069 49,31.5C 46.2576,31.7253 43.4243,31.3919 40.5,30.5C 37.7004,29.5519 34.8671,29.8852 32,31.5C 30.3775,30.9011 28.8775,30.2344 27.5,29.5C 30.1667,29.5 32.8333,29.5 35.5,29.5C 35.67,28.1779 35.3366,27.0113 34.5,26C 32.6183,25.8019 30.9516,25.3019 29.5,24.5C 33.8926,24.5432 34.2259,24.0432 30.5,23C 31.056,22.6174 31.3893,22.1174 31.5,21.5C 38.5173,17.273 45.3507,17.6063 52,22.5C 56.7446,29.2953 56.5779,35.9619 51.5,42.5 Z"/></g>
<g><path style="opacity:0.98" fill="#204574" d="M 63.5,13.5 C 63.5,22.5 63.5,31.5 63.5,40.5C 59.8274,42.3177 55.8274,42.9843 51.5,42.5C 56.5779,35.9619 56.7446,29.2953 52,22.5C 45.3507,17.6063 38.5173,17.273 31.5,21.5C 18.7151,14.8938 10.7151,18.5605 7.5,32.5C 7.73662,36.3017 9.06995,39.6351 11.5,42.5C 7.17262,42.9843 3.17262,42.3177 -0.5,40.5C -0.5,31.5 -0.5,22.5 -0.5,13.5C 0.473444,13.0133 1.47344,12.5133 2.5,12C 21.8333,11.3333 41.1667,11.3333 60.5,12C 61.5266,12.5133 62.5266,13.0133 63.5,13.5 Z"/></g>
<g><path style="opacity:1" fill="#f7af2b" d="M 38.5,31.5 C 40.7957,31.8041 41.129,32.8041 39.5,34.5C 37.4482,33.9473 37.1148,32.9473 38.5,31.5 Z"/></g>
<g><path style="opacity:1" fill="#c0693b" d="M 29.5,24.5 C 30.9516,25.3019 32.6183,25.8019 34.5,26C 35.3366,27.0113 35.67,28.1779 35.5,29.5C 32.8333,29.5 30.1667,29.5 27.5,29.5C 27.4021,27.4471 28.0687,25.7804 29.5,24.5 Z"/></g>
<g><path style="opacity:1" fill="#d4c8af" d="M 39.5,35.5 C 39.5,35.1667 39.5,34.8333 39.5,34.5C 41.129,32.8041 40.7957,31.8041 38.5,31.5C 38.8417,30.6618 39.5084,30.3284 40.5,30.5C 43.4243,31.3919 46.2576,31.7253 49,31.5C 50.0852,30.7069 51.2519,30.0402 52.5,29.5C 54.5065,34.0123 53.1732,36.179 48.5,36C 47.1259,32.5899 46.4592,32.7566 46.5,36.5C 44.0504,36.702 41.717,36.3686 39.5,35.5 Z"/></g>
<g><path style="opacity:1" fill="#dac2c8" d="M 27.5,29.5 C 28.8775,30.2344 30.3775,30.9011 32,31.5C 34.8671,29.8852 37.7004,29.5519 40.5,30.5C 39.5084,30.3284 38.8417,30.6618 38.5,31.5C 37.1148,32.9473 37.4482,33.9473 39.5,34.5C 39.5,34.8333 39.5,35.1667 39.5,35.5C 38.2946,36.6857 36.9613,36.6857 35.5,35.5C 35.6309,34.6236 35.2975,33.9569 34.5,33.5C 33.6143,34.325 33.281,35.325 33.5,36.5C 31.5,36.5 29.5,36.5 27.5,36.5C 23.9388,36.2515 20.2721,36.0849 16.5,36C 15.3333,35.5 14.5,34.6667 14,33.5C 13,36.1667 12,36.1667 11,33.5C 10.6667,34.1667 10.3333,34.8333 10,35.5C 9.50454,33.5273 9.33788,31.5273 9.5,29.5C 11.1238,29.3601 12.2904,30.0267 13,31.5C 13.3879,30.572 14.0546,29.9054 15,29.5C 18.2449,30.788 21.4116,31.288 24.5,31C 23.2888,31.8928 23.2888,32.7261 24.5,33.5C 25.0568,31.6684 26.0568,30.3351 27.5,29.5 Z"/></g>
<g><path style="opacity:1" fill="#df2530" d="M 31.5,21.5 C 31.3893,22.1174 31.056,22.6174 30.5,23C 34.2259,24.0432 33.8926,24.5432 29.5,24.5C 28.0687,25.7804 27.4021,27.4471 27.5,29.5C 26.0568,30.3351 25.0568,31.6684 24.5,33.5C 23.2888,32.7261 23.2888,31.8928 24.5,31C 21.4116,31.288 18.2449,30.788 15,29.5C 14.0546,29.9054 13.3879,30.572 13,31.5C 12.2904,30.0267 11.1238,29.3601 9.5,29.5C 9.33788,31.5273 9.50454,33.5273 10,35.5C 10.3333,34.8333 10.6667,34.1667 11,33.5C 12,36.1667 13,36.1667 14,33.5C 14.5,34.6667 15.3333,35.5 16.5,36C 20.2721,36.0849 23.9388,36.2515 27.5,36.5C 27.9887,37.9952 28.6554,39.3285 29.5,40.5C 30.8734,40.3433 32.2068,40.51 33.5,41C 31.065,41.0748 30.3984,41.9081 31.5,43.5C 24.5512,47.7951 17.8846,47.4617 11.5,42.5C 9.06995,39.6351 7.73662,36.3017 7.5,32.5C 10.7151,18.5605 18.7151,14.8938 31.5,21.5 Z"/></g>
<g><path style="opacity:1" fill="#c67439" d="M 35.5,35.5 C 35.67,36.8221 35.3366,37.9887 34.5,39C 32.6183,39.1981 30.9516,39.6981 29.5,40.5C 28.6554,39.3285 27.9887,37.9952 27.5,36.5C 29.5,36.5 31.5,36.5 33.5,36.5C 33.281,35.325 33.6143,34.325 34.5,33.5C 35.2975,33.9569 35.6309,34.6236 35.5,35.5 Z"/></g>
<g><path style="opacity:0.976" fill="#1b3c65" d="M -0.5,40.5 C 3.17262,42.3177 7.17262,42.9843 11.5,42.5C 17.8846,47.4617 24.5512,47.7951 31.5,43.5C 38.4182,47.7302 45.0848,47.3968 51.5,42.5C 55.8274,42.9843 59.8274,42.3177 63.5,40.5C 63.5,43.8333 63.5,47.1667 63.5,50.5C 62.6906,51.4687 61.6906,52.3021 60.5,53C 41.1667,53.6667 21.8333,53.6667 2.5,53C 1.30943,52.3021 0.309426,51.4687 -0.5,50.5C -0.5,47.1667 -0.5,43.8333 -0.5,40.5 Z"/></g>
</svg>
