<?xml version="1.0" encoding="UTF-8"?>
<!DOCTYPE svg PUBLIC "-//W3C//DTD SVG 1.1//EN" "http://www.w3.org/Graphics/SVG/1.1/DTD/svg11.dtd">
<svg xmlns="http://www.w3.org/2000/svg" version="1.1" width="64px" height="64px" style="shape-rendering:geometricPrecision; text-rendering:geometricPrecision; image-rendering:optimizeQuality; fill-rule:evenodd; clip-rule:evenodd" xmlns:xlink="http://www.w3.org/1999/xlink">
<g><path style="opacity:0.897" fill="#63c895" d="M 57.5,34.5 C 50.6115,36.4268 43.6115,37.9268 36.5,39C 34.1089,39.1867 32.9423,40.02 33,41.5C 31.6994,41.0398 30.366,40.7065 29,40.5C 22.5269,42.0279 16.0269,43.3612 9.5,44.5C 8.78481,38.2447 7.45148,32.2447 5.5,26.5C 4.03468,24.4537 4.36801,22.6204 6.5,21C 22.1415,17.6384 37.8081,14.4717 53.5,11.5C 54.846,18.7277 56.5126,25.8943 58.5,33C 58.4301,33.7648 58.0967,34.2648 57.5,34.5 Z"/></g>
<g><path style="opacity:1" fill="#349a67" d="M 43.5,15.5 C 46.3181,16.9697 49.3181,17.9697 52.5,18.5C 52.3067,22.007 52.9733,25.3404 54.5,28.5C 51.9285,29.7277 50.5952,31.7277 50.5,34.5C 39.0628,36.3208 27.7295,38.6541 16.5,41.5C 15.2776,39.0217 13.2776,38.0217 10.5,38.5C 10.6933,34.993 10.0267,31.6596 8.5,28.5C 10.415,26.9288 11.415,24.9288 11.5,22.5C 22.2923,20.158 32.9589,17.8246 43.5,15.5 Z"/></g>
<g><path style="opacity:1" fill="#68cb99" d="M 27.5,20.5 C 36.1584,19.327 39.9918,22.9937 39,31.5C 37.4337,34.8126 34.7671,36.4792 31,36.5C 24.582,35.008 22.2486,31.008 24,24.5C 25.3756,23.2949 26.5423,21.9616 27.5,20.5 Z"/></g>
<g><path style="opacity:1" fill="#e6f6ee" d="M 29.5,22.5 C 34.448,24.2237 34.448,25.3903 29.5,26C 36.0028,27.0097 37.0028,29.8431 32.5,34.5C 30.7697,33.9744 29.4363,32.9744 28.5,31.5C 30.1173,31.3306 31.784,30.9972 33.5,30.5C 32.0094,28.9884 30.1761,27.9884 28,27.5C 27.8184,25.6698 28.3184,24.0031 29.5,22.5 Z"/></g>
<g><path style="opacity:1" fill="#5fc492" d="M 44.5,23.5 C 46.3464,23.2222 47.6798,23.8888 48.5,25.5C 47.6798,27.1112 46.3464,27.7778 44.5,27.5C 44.5,26.1667 44.5,24.8333 44.5,23.5 Z"/></g>
<g><path style="opacity:1" fill="#5fc593" d="M 15.5,29.5 C 16.5,29.5 17.5,29.5 18.5,29.5C 18.5,30.8333 18.5,32.1667 18.5,33.5C 15.0464,33.7332 14.0464,32.3999 15.5,29.5 Z"/></g>
<g><path style="opacity:1" fill="#3b9f6d" d="M 5.5,26.5 C 7.45148,32.2447 8.78481,38.2447 9.5,44.5C 16.0269,43.3612 22.5269,42.0279 29,40.5C 30.366,40.7065 31.6994,41.0398 33,41.5C 32.9423,40.02 34.1089,39.1867 36.5,39C 43.6115,37.9268 50.6115,36.4268 57.5,34.5C 57.5,37.5 57.5,40.5 57.5,43.5C 55.5856,44.1847 53.5856,44.6847 51.5,45C 50.6433,45.6891 49.9767,46.5224 49.5,47.5C 35.1036,48.8145 20.7702,48.8145 6.5,47.5C 6.00087,40.5097 5.66754,33.5097 5.5,26.5 Z"/></g>
<g><path style="opacity:1" fill="#62c895" d="M 53.5,36.5 C 55.12,37.8409 56.12,39.6742 56.5,42C 56.1667,42.3333 55.8333,42.6667 55.5,43C 39.5402,44.792 23.5402,45.9587 7.5,46.5C 7.62192,42.1617 7.95526,41.8284 8.5,45.5C 21.8101,44.1556 35.1435,42.9889 48.5,42C 49.6924,39.6451 51.359,37.8118 53.5,36.5 Z"/></g>
<g><path style="opacity:0.792" fill="#65cb97" d="M 57.5,43.5 C 57.7683,46.1194 57.435,48.6194 56.5,51C 40.165,51.1667 23.8317,50.8334 7.5,50C 6.74756,49.3292 6.41423,48.4959 6.5,47.5C 20.7702,48.8145 35.1036,48.8145 49.5,47.5C 49.9767,46.5224 50.6433,45.6891 51.5,45C 53.5856,44.6847 55.5856,44.1847 57.5,43.5 Z"/></g>
</svg>
