<?xml version="1.0" encoding="UTF-8"?>
<!DOCTYPE svg PUBLIC "-//W3C//DTD SVG 1.1//EN" "http://www.w3.org/Graphics/SVG/1.1/DTD/svg11.dtd">
<svg xmlns="http://www.w3.org/2000/svg" version="1.1" width="64px" height="64px" style="shape-rendering:geometricPrecision; text-rendering:geometricPrecision; image-rendering:optimizeQuality; fill-rule:evenodd; clip-rule:evenodd" xmlns:xlink="http://www.w3.org/1999/xlink">
<g><path style="opacity:0.98" fill="#588157" d="M 29.5,3.5 C 30.8734,3.34332 32.2068,3.50999 33.5,4C 35.6288,6.42159 37.9621,8.58826 40.5,10.5C 40.2972,12.2077 39.4638,13.541 38,14.5C 37.5045,16.4727 37.3379,18.4727 37.5,20.5C 33.5,19.1667 29.5,19.1667 25.5,20.5C 25.6621,18.4727 25.4955,16.4727 25,14.5C 21.3347,10.6461 22.168,8.14609 27.5,7C 28.305,5.88732 28.9717,4.72065 29.5,3.5 Z"/></g>
<g><path style="opacity:0.95" fill="#588157" d="M 10.5,8.5 C 13.5,9.83333 16.5,11.1667 19.5,12.5C 18.5367,16.1007 17.87,19.7674 17.5,23.5C 13.9217,22.553 10.4217,22.2197 7,22.5C 6.78817,19.7478 5.95484,17.2478 4.5,15C 7.04427,13.4048 9.04427,11.2381 10.5,8.5 Z"/></g>
<g><path style="opacity:0.94" fill="#588157" d="M 49.5,8.5 C 50.552,8.35055 51.552,8.51722 52.5,9C 54.2592,11.3336 56.2592,13.3336 58.5,15C 57.1285,17.5149 56.1285,20.1816 55.5,23C 52.1965,22.3596 48.8632,22.5262 45.5,23.5C 45.13,19.7674 44.4633,16.1007 43.5,12.5C 46.2921,12.3775 48.2921,11.0442 49.5,8.5 Z"/></g>
<g><path style="opacity:0.973" fill="#578156" d="M 29.5,25.5 C 35.5321,24.8704 38.8654,27.537 39.5,33.5C 39.0772,36.1084 38.0772,38.4417 36.5,40.5C 39.4147,41.7044 41.5814,43.7044 43,46.5C 43.7961,50.7548 43.6295,54.9215 42.5,59C 34.9201,59.8132 27.4201,59.6466 20,58.5C 19.3333,54.5 19.3333,50.5 20,46.5C 21.4186,43.7044 23.5853,41.7044 26.5,40.5C 21.9997,34.1892 22.9997,29.1892 29.5,25.5 Z"/></g>
<g><path style="opacity:0.967" fill="#578156" d="M 11.5,27.5 C 21.4874,26.3319 24.154,30.1653 19.5,39C 20.6721,39.4186 21.6721,40.0853 22.5,41C 18.1555,44.8755 16.4888,49.7088 17.5,55.5C 4.68379,58.6903 1.01712,54.357 6.5,42.5C 8.02839,41.1387 9.69506,39.972 11.5,39C 8.87468,35.1681 8.87468,31.3348 11.5,27.5 Z"/></g>
<g><path style="opacity:0.964" fill="#578156" d="M 43.5,27.5 C 53.4874,26.3319 56.154,30.1653 51.5,39C 58.1963,42.5175 60.1963,47.8508 57.5,55C 53.5138,55.4988 49.5138,55.6655 45.5,55.5C 46.5112,49.7088 44.8445,44.8755 40.5,41C 41.3279,40.0853 42.3279,39.4186 43.5,39C 40.8747,35.1681 40.8747,31.3348 43.5,27.5 Z"/></g>
</svg>
