<?xml version="1.0" encoding="UTF-8"?>
<!DOCTYPE svg PUBLIC "-//W3C//DTD SVG 1.1//EN" "http://www.w3.org/Graphics/SVG/1.1/DTD/svg11.dtd">
<svg xmlns="http://www.w3.org/2000/svg" version="1.1" width="64px" height="64px" style="shape-rendering:geometricPrecision; text-rendering:geometricPrecision; image-rendering:optimizeQuality; fill-rule:evenodd; clip-rule:evenodd" xmlns:xlink="http://www.w3.org/1999/xlink">
<g><path style="opacity:1" fill="#fcd633" d="M 58.5,10.5 C 57.7611,10.369 57.0944,10.5357 56.5,11C 60.5745,21.2782 57.9078,29.4448 48.5,35.5C 48.6236,36.1067 48.9569,36.44 49.5,36.5C 30.8299,40.8643 21.4965,33.1977 21.5,13.5C 20.5,13.1667 19.8333,12.5 19.5,11.5C 22.1132,9.28211 25.1132,7.61544 28.5,6.5C 31.6793,2.20892 36.0126,0.208922 41.5,0.5C 49.1729,0.521265 54.8395,3.8546 58.5,10.5 Z M 39.5,5.5 C 53.2707,7.42819 57.4373,14.7615 52,27.5C 46.0725,33.3429 39.5725,34.0095 32.5,29.5C 29.1127,26.1676 27.6127,22.1676 28,17.5C 29.0113,18.3366 30.1779,18.67 31.5,18.5C 31.3345,14.4862 31.5012,10.4862 32,6.5C 32.3076,7.30806 32.8076,7.97473 33.5,8.5C 35.604,7.48052 37.604,6.48052 39.5,5.5 Z"/></g>
<g><path style="opacity:0.806" fill="#2bd92b" d="M 47.5,12.5 C 49.3464,12.2222 50.6798,12.8888 51.5,14.5C 48.7265,18.7767 45.3932,22.61 41.5,26C 39.8876,26.7203 38.3876,26.5536 37,25.5C 35.2589,22.6907 34.0922,19.6907 33.5,16.5C 36.8078,15.9738 38.9745,17.3072 40,20.5C 42.705,17.9638 45.205,15.2971 47.5,12.5 Z"/></g>
<g><path style="opacity:0.607" fill="#fdc82d" d="M 58.5,10.5 C 62.6416,21.7449 59.6416,30.4116 49.5,36.5C 48.9569,36.44 48.6236,36.1067 48.5,35.5C 57.9078,29.4448 60.5745,21.2782 56.5,11C 57.0944,10.5357 57.7611,10.369 58.5,10.5 Z"/></g>
<g><path style="opacity:1" fill="#fdccbe" d="M 42.5,41.5 C 38.7001,46.0646 34.0334,46.7313 28.5,43.5C 27.2888,44.2739 27.2888,45.1072 28.5,46C 33.1667,48 37.8333,48 42.5,46C 43.056,45.6174 43.3893,45.1174 43.5,44.5C 48.1985,43.5445 52.5318,41.7112 56.5,39C 58.7116,38.2109 60.7116,38.3775 62.5,39.5C 56.1049,44.3656 49.1049,48.199 41.5,51C 33.5,51.3333 25.5,51.6667 17.5,52C 16.944,52.3826 16.6107,52.8826 16.5,53.5C 13.1667,50.8333 10.1667,47.8333 7.5,44.5C 10.986,40.3588 15.3194,37.3588 20.5,35.5C 27.7018,38.4644 35.0351,40.4644 42.5,41.5 Z"/></g>
<g><path style="opacity:0.823" fill="#fcb1a2" d="M 62.5,39.5 C 62.607,41.9032 61.607,43.7365 59.5,45C 54.8333,47.6667 50.1667,50.3333 45.5,53C 36.497,54.1074 27.497,54.9408 18.5,55.5C 17.8333,55.1667 17.1667,54.8333 16.5,54.5C 16.5,54.1667 16.5,53.8333 16.5,53.5C 16.6107,52.8826 16.944,52.3826 17.5,52C 25.5,51.6667 33.5,51.3333 41.5,51C 49.1049,48.199 56.1049,44.3656 62.5,39.5 Z"/></g>
<g><path style="opacity:1" fill="#fdb4a4" d="M 42.5,41.5 C 43.404,42.209 43.7373,43.209 43.5,44.5C 43.3893,45.1174 43.056,45.6174 42.5,46C 37.8333,48 33.1667,48 28.5,46C 27.2888,45.1072 27.2888,44.2739 28.5,43.5C 34.0334,46.7313 38.7001,46.0646 42.5,41.5 Z"/></g>
<g><path style="opacity:1" fill="#4baefb" d="M 7.5,44.5 C 10.1667,47.8333 13.1667,50.8333 16.5,53.5C 16.5,53.8333 16.5,54.1667 16.5,54.5C 14.8333,56.5 13.1667,58.5 11.5,60.5C 7.52104,57.1877 3.85437,53.521 0.5,49.5C 2.04289,46.6095 4.37622,44.9429 7.5,44.5 Z"/></g>
<g><path style="opacity:0.897" fill="#2b92f9" d="M 16.5,54.5 C 17.1667,54.8333 17.8333,55.1667 18.5,55.5C 18.2562,58.2626 16.9229,60.4293 14.5,62C 13.0024,62.5847 12.0024,62.0847 11.5,60.5C 13.1667,58.5 14.8333,56.5 16.5,54.5 Z"/></g>
</svg>
