<?xml version="1.0" encoding="UTF-8"?>
<!DOCTYPE svg PUBLIC "-//W3C//DTD SVG 1.1//EN" "http://www.w3.org/Graphics/SVG/1.1/DTD/svg11.dtd">
<svg xmlns="http://www.w3.org/2000/svg" version="1.1" width="128px" height="128px" style="shape-rendering:geometricPrecision; text-rendering:geometricPrecision; image-rendering:optimizeQuality; fill-rule:evenodd; clip-rule:evenodd" xmlns:xlink="http://www.w3.org/1999/xlink">
<g><path style="opacity:0.957" fill="#588156" d="M 19.5,-0.5 C 48.8333,-0.5 78.1667,-0.5 107.5,-0.5C 117.167,3.16667 123.833,9.83333 127.5,19.5C 127.5,24.5 127.5,29.5 127.5,34.5C 124.505,43.0004 118.838,49.1671 110.5,53C 91.2213,54.4498 71.888,54.9498 52.5,54.5C 52.5,58.1667 52.5,61.8333 52.5,65.5C 56.3834,65.1091 60.05,65.7758 63.5,67.5C 68.5,64.8333 73.5,64.8333 78.5,67.5C 86.2819,63.5937 92.4486,65.2604 97,72.5C 97.9371,84.5714 97.6038,96.5714 96,108.5C 92.159,118.178 85.3256,124.512 75.5,127.5C 67.5,127.5 59.5,127.5 51.5,127.5C 40.5167,124.016 33.3501,116.682 30,105.5C 29.5001,88.5033 29.3334,71.5033 29.5,54.5C 14.4066,55.2973 4.40659,48.6306 -0.5,34.5C -0.5,29.5 -0.5,24.5 -0.5,19.5C 3.16667,9.83333 9.83333,3.16667 19.5,-0.5 Z M 22.5,7.5 C 50.8838,7.03337 79.2172,7.53337 107.5,9C 120.979,17.4886 122.979,28.1553 113.5,41C 110.446,43.1939 107.112,44.8605 103.5,46C 86.1667,46.6667 68.8333,46.6667 51.5,46C 44.5,38.6667 37.5,38.6667 30.5,46C 12.7776,45.7194 5.61092,36.886 9,19.5C 11.85,13.5144 16.35,9.51442 22.5,7.5 Z M 48.5,21.5 C 51.9232,21.7557 53.9232,23.589 54.5,27C 53.108,31.1773 50.4414,32.344 46.5,30.5C 43.5401,26.6739 44.2068,23.6739 48.5,21.5 Z M 75.5,21.5 C 80.5494,22.1939 82.2161,24.8606 80.5,29.5C 76.4681,32.5747 73.4681,31.7414 71.5,27C 72.0074,24.4547 73.3407,22.6214 75.5,21.5 Z M 24.5,29.5 C 25.675,29.281 26.675,29.6143 27.5,30.5C 25.9483,31.7979 24.9483,31.4646 24.5,29.5 Z M 40.5,48.5 C 42.1132,48.9443 43.2798,49.9443 44,51.5C 44.3333,60.8333 44.6667,70.1667 45,79.5C 49.7445,82.7956 52.4111,81.4623 53,75.5C 56.9606,73.0379 59.2939,74.3712 60,79.5C 62.3333,82.1667 64.6667,82.1667 67,79.5C 69.7675,71.6195 72.4342,71.6195 75,79.5C 77.3333,82.1667 79.6667,82.1667 82,79.5C 82.2975,76.5619 83.7975,74.5619 86.5,73.5C 87.4776,73.9767 88.3109,74.6433 89,75.5C 89.6667,84.1667 89.6667,92.8333 89,101.5C 83.2401,117.134 72.0734,122.968 55.5,119C 46.3421,116.509 40.5088,110.675 38,101.5C 37.3333,84.5 37.3333,67.5 38,50.5C 38.9947,49.9341 39.828,49.2674 40.5,48.5 Z"/></g>
<g><path style="opacity:0.96" fill="#578156" d="M 18.5,14.5 C 21.8499,14.335 25.1832,14.5017 28.5,15C 29.9308,15.4652 31.0975,16.2986 32,17.5C 32.534,22.0429 33.3673,26.3763 34.5,30.5C 34.3421,36.9308 31.0087,39.5974 24.5,38.5C 22.2412,38.4677 20.0745,38.1344 18,37.5C 17.2019,29.754 17.3686,22.0873 18.5,14.5 Z M 24.5,29.5 C 24.9483,31.4646 25.9483,31.7979 27.5,30.5C 26.675,29.6143 25.675,29.281 24.5,29.5 Z"/></g>
<g><path style="opacity:0.939" fill="#588156" d="M 46.5,14.5 C 59.902,15.4011 64.0686,22.0677 59,34.5C 54.9089,38.3049 50.0755,39.4716 44.5,38C 38.0919,34.6772 35.9252,29.5105 38,22.5C 39.4447,18.218 42.2781,15.5513 46.5,14.5 Z M 48.5,21.5 C 44.2068,23.6739 43.5401,26.6739 46.5,30.5C 50.4414,32.344 53.108,31.1773 54.5,27C 53.9232,23.589 51.9232,21.7557 48.5,21.5 Z"/></g>
<g><path style="opacity:0.949" fill="#588256" d="M 73.5,14.5 C 85.328,14.1631 90.1613,19.8298 88,31.5C 84.3449,38.0702 78.8449,40.2368 71.5,38C 64.6552,33.7751 62.8218,27.9417 66,20.5C 68.109,17.8782 70.609,15.8782 73.5,14.5 Z M 75.5,21.5 C 73.3407,22.6214 72.0074,24.4547 71.5,27C 73.4681,31.7414 76.4681,32.5747 80.5,29.5C 82.2161,24.8606 80.5494,22.1939 75.5,21.5 Z"/></g>
<g><path style="opacity:0.919" fill="#588156" d="M 93.5,14.5 C 96.5959,13.9066 98.9292,14.9066 100.5,17.5C 103.085,14.136 105.918,13.8027 109,16.5C 109.667,17.5 109.667,18.5 109,19.5C 106.833,21.6667 104.667,23.8333 102.5,26C 104.667,28.1667 106.833,30.3333 109,32.5C 110.583,37.1004 109.083,38.9337 104.5,38C 102.714,37.2155 101.214,36.0488 100,34.5C 98.778,38.8896 96.4446,39.5563 93,36.5C 92.2365,29.1175 92.4032,21.7842 93.5,14.5 Z"/></g>
</svg>
