<?xml version="1.0" encoding="UTF-8"?>
<!DOCTYPE svg PUBLIC "-//W3C//DTD SVG 1.1//EN" "http://www.w3.org/Graphics/SVG/1.1/DTD/svg11.dtd">
<svg xmlns="http://www.w3.org/2000/svg" version="1.1" width="128px" height="128px" style="shape-rendering:geometricPrecision; text-rendering:geometricPrecision; image-rendering:optimizeQuality; fill-rule:evenodd; clip-rule:evenodd" xmlns:xlink="http://www.w3.org/1999/xlink">
<g><path style="opacity:0.852" fill="#558256" d="M 52.5,-0.5 C 59.8333,-0.5 67.1667,-0.5 74.5,-0.5C 113.025,10.2247 129.858,35.558 125,75.5C 121.966,88.741 115.466,99.9076 105.5,109C 106.448,109.483 107.448,109.649 108.5,109.5C 108.5,111.167 108.5,112.833 108.5,114.5C 104.534,113.838 100.534,113.505 96.5,113.5C 96.4213,109.05 97.088,104.717 98.5,100.5C 99.7362,101.246 101.07,101.579 102.5,101.5C 102.351,102.552 102.517,103.552 103,104.5C 106.317,101.194 109.151,97.5278 111.5,93.5C 109.321,92.2433 107.321,90.7433 105.5,89C 106.155,87.5134 107.155,86.3467 108.5,85.5C 110.429,86.3802 112.263,87.3802 114,88.5C 118.646,81.2725 121.146,73.2725 121.5,64.5C 118.833,64.5 116.167,64.5 113.5,64.5C 113.5,62.8333 113.5,61.1667 113.5,59.5C 116.167,59.5 118.833,59.5 121.5,59.5C 120.949,52.6301 119.449,45.9634 117,39.5C 114.96,34.7354 112.127,34.402 108.5,38.5C 107.026,37.5637 106.026,36.2303 105.5,34.5C 107.909,33.2993 109.909,31.6326 111.5,29.5C 107.144,22.9774 101.644,17.644 95,13.5C 93.7316,15.7173 92.2316,17.7173 90.5,19.5C 89.0981,19.1345 88.0981,18.3012 87.5,17C 88.2364,14.8606 89.2364,12.8606 90.5,11C 83.0205,6.96123 75.0205,4.46123 66.5,3.5C 65.52,6.08645 65.1866,8.75312 65.5,11.5C 64.1667,11.5 62.8333,11.5 61.5,11.5C 61.8134,8.75312 61.48,6.08645 60.5,3.5C 51.9795,4.46123 43.9795,6.96123 36.5,11C 37.7636,12.8606 38.7636,14.8606 39.5,17C 38.9019,18.3012 37.9019,19.1345 36.5,19.5C 34.7684,17.7173 33.2684,15.7173 32,13.5C 25.3558,17.644 19.8558,22.9774 15.5,29.5C 17.0905,31.6326 19.0905,33.2993 21.5,34.5C 20.9169,36.0016 20.0836,37.3349 19,38.5C 15.176,34.4835 12.176,34.8168 10,39.5C 7.32118,45.9086 5.82118,52.5753 5.5,59.5C 8.16667,59.5 10.8333,59.5 13.5,59.5C 13.5,61.1667 13.5,62.8333 13.5,64.5C 9.16667,64.5 4.83333,64.5 0.5,64.5C 1.61058,29.7342 18.9439,8.06754 52.5,-0.5 Z"/></g>
<g><path style="opacity:0.876" fill="#558157" d="M 61.5,19.5 C 62.8333,19.5 64.1667,19.5 65.5,19.5C 65.3335,30.8382 65.5001,42.1716 66,53.5C 68.5,54.6667 70.3333,56.5 71.5,59C 79.1594,59.4997 86.8261,59.6664 94.5,59.5C 94.5,61.1667 94.5,62.8333 94.5,64.5C 86.8261,64.3336 79.1594,64.5003 71.5,65C 67.567,71.0247 62.7336,71.858 57,67.5C 53.9911,61.4509 55.3244,56.7843 61,53.5C 61.4999,42.1716 61.6665,30.8382 61.5,19.5 Z M 61.5,58.5 C 66.2411,58.1614 67.5744,60.1614 65.5,64.5C 62.8489,65.8416 61.1823,65.0083 60.5,62C 60.6483,60.7441 60.9816,59.5774 61.5,58.5 Z"/></g>
<g><path style="opacity:0.949" fill="#558156" d="M 17.5,65.5 C 24.1959,64.8487 30.5293,66.0154 36.5,69C 43.6215,77.5843 42.9549,85.5843 34.5,93C 29.9994,95.4159 25.6661,98.0825 21.5,101C 28.4921,101.5 35.4921,101.666 42.5,101.5C 42.5,105.5 42.5,109.5 42.5,113.5C 28.8333,113.5 15.1667,113.5 1.5,113.5C 0.751062,105.576 3.41773,99.0762 9.5,94C 14.1667,91.3333 18.8333,88.6667 23.5,86C 27.803,81.8953 26.9697,79.062 21,77.5C 16.7241,78.4697 13.0574,80.4697 10,83.5C 7.35511,80.8551 4.68844,78.1884 2,75.5C 1.33333,74.5 1.33333,73.5 2,72.5C 6.70295,68.8941 11.8696,66.5607 17.5,65.5 Z"/></g>
<g><path style="opacity:0.959" fill="#558156" d="M 72.5,66.5 C 75.8333,66.5 79.1667,66.5 82.5,66.5C 82.5,77.8333 82.5,89.1667 82.5,100.5C 84.8333,100.5 87.1667,100.5 89.5,100.5C 89.5,104.5 89.5,108.5 89.5,112.5C 87.1667,112.5 84.8333,112.5 82.5,112.5C 82.5,116.167 82.5,119.833 82.5,123.5C 77.8333,123.5 73.1667,123.5 68.5,123.5C 68.5,119.833 68.5,116.167 68.5,112.5C 61.1667,112.5 53.8333,112.5 46.5,112.5C 46.3343,108.154 46.501,103.821 47,99.5C 55.9927,88.8311 64.4927,77.8311 72.5,66.5 Z M 69.5,88.5 C 70.4834,92.2984 70.8168,96.2984 70.5,100.5C 67.4816,100.665 64.4816,100.498 61.5,100C 64.2997,96.2249 66.9664,92.3916 69.5,88.5 Z"/></g>
<g><path style="opacity:0.678" fill="#558056" d="M 12.5,127.5 C 11.1667,127.5 9.83333,127.5 8.5,127.5C 8.5,126.167 8.5,124.833 8.5,123.5C 7.5,123.5 6.5,123.5 5.5,123.5C 5.5,124.833 5.5,126.167 5.5,127.5C 4.16667,127.5 2.83333,127.5 1.5,127.5C 1.5,123.5 1.5,119.5 1.5,115.5C 2.83333,115.5 4.16667,115.5 5.5,115.5C 5.5,117.167 5.5,118.833 5.5,120.5C 6.5,120.5 7.5,120.5 8.5,120.5C 8.5,118.833 8.5,117.167 8.5,115.5C 9.83333,115.5 11.1667,115.5 12.5,115.5C 12.5,119.5 12.5,123.5 12.5,127.5 Z"/></g>
<g><path style="opacity:0.824" fill="#568257" d="M 24.5,127.5 C 22.1667,127.5 19.8333,127.5 17.5,127.5C 15.568,124.823 15.068,121.823 16,118.5C 20.0734,114.381 23.74,114.715 27,119.5C 27.9818,122.775 27.1485,125.441 24.5,127.5 Z M 20.5,118.5 C 24.2668,120.326 24.4335,122.326 21,124.5C 18.0735,122.856 17.9069,120.856 20.5,118.5 Z"/></g>
<g><path style="opacity:0.734" fill="#568257" d="M 39.5,127.5 C 37.1667,127.5 34.8333,127.5 32.5,127.5C 30.6571,123.813 29.9905,119.813 30.5,115.5C 31.5,115.5 32.5,115.5 33.5,115.5C 33.3359,118.187 33.5026,120.854 34,123.5C 35,124.833 36,124.833 37,123.5C 37.4974,120.854 37.6641,118.187 37.5,115.5C 38.8333,115.5 40.1667,115.5 41.5,115.5C 41.6664,119.674 40.9997,123.674 39.5,127.5 Z"/></g>
<g><path style="opacity:0.805" fill="#558157" d="M 54.5,127.5 C 53.1667,127.5 51.8333,127.5 50.5,127.5C 49.0886,123.703 48.0886,123.703 47.5,127.5C 46.5,127.5 45.5,127.5 44.5,127.5C 44.5,123.5 44.5,119.5 44.5,115.5C 49.4548,114.31 52.7882,115.977 54.5,120.5C 53.9598,121.748 53.2931,122.915 52.5,124C 53.8228,124.816 54.4894,125.983 54.5,127.5 Z M 47.5,118.5 C 50.6741,118.952 51.0075,119.952 48.5,121.5C 47.6143,120.675 47.281,119.675 47.5,118.5 Z"/></g>
<g><path style="opacity:0.818" fill="#558157" d="M 65.5,127.5 C 62.8333,127.5 60.1667,127.5 57.5,127.5C 56.0484,125.226 56.715,123.726 59.5,123C 57.3956,121.164 57.0623,118.998 58.5,116.5C 61.4109,115.017 64.0775,115.35 66.5,117.5C 65.6195,118.971 64.2861,119.804 62.5,120C 66.2634,121.408 67.2634,123.908 65.5,127.5 Z"/></g>
</svg>
