<?xml version="1.0" encoding="UTF-8"?>
<!DOCTYPE svg PUBLIC "-//W3C//DTD SVG 1.1//EN" "http://www.w3.org/Graphics/SVG/1.1/DTD/svg11.dtd">
<svg xmlns="http://www.w3.org/2000/svg" version="1.1" width="512px" height="512px" style="shape-rendering:geometricPrecision; text-rendering:geometricPrecision; image-rendering:optimizeQuality; fill-rule:evenodd; clip-rule:evenodd" xmlns:xlink="http://www.w3.org/1999/xlink">
<g><path style="opacity:0.993" fill="#f05249" d="M 233.5,-0.5 C 248.167,-0.5 262.833,-0.5 277.5,-0.5C 377.805,11.9821 449.305,63.9821 492,155.5C 502.297,180.687 508.797,206.687 511.5,233.5C 511.5,248.167 511.5,262.833 511.5,277.5C 510.397,288.653 508.397,299.653 505.5,310.5C 506.668,302.504 507.501,294.504 508,286.5C 461.939,239.935 415.773,194.268 369.5,149.5C 363.369,143.87 357.369,138.036 351.5,132C 342.145,126.369 332.145,125.036 321.5,128C 319.004,129.08 316.67,130.414 314.5,132C 295,151.5 275.5,171 256,190.5C 236.805,171.638 217.971,152.472 199.5,133C 188.291,124.697 176.291,123.363 163.5,129C 152.696,138.803 142.196,148.97 132,159.5C 126.788,167.4 125.121,176.067 127,185.5C 127.438,188.376 128.438,191.043 130,193.5C 149.985,214.319 170.152,234.986 190.5,255.5C 171.181,275.32 151.681,294.986 132,314.5C 126.286,323.82 124.953,333.82 128,344.5C 129.08,346.996 130.414,349.33 132,351.5C 138.369,357.702 144.536,364.035 150.5,370.5C 149.761,370.369 149.094,370.536 148.5,371C 194.167,416.667 239.833,462.333 285.5,508C 300.433,507.066 315.1,504.399 329.5,500C 340.24,496.254 350.907,492.421 361.5,488.5C 349.507,494.78 336.841,499.614 323.5,503C 308.204,506.828 292.87,509.661 277.5,511.5C 262.833,511.5 248.167,511.5 233.5,511.5C 133.195,499.018 61.6947,447.018 19,355.5C 8.70332,330.313 2.20332,304.313 -0.5,277.5C -0.5,262.833 -0.5,248.167 -0.5,233.5C 11.9821,133.195 63.9821,61.6947 155.5,19C 180.687,8.70332 206.687,2.20332 233.5,-0.5 Z"/></g>
<g><path style="opacity:1" fill="#fefefe" d="M 369.5,149.5 C 372.796,153.298 376.296,156.964 380,160.5C 387.796,173.903 387.129,186.903 378,199.5C 358.66,217.673 339.827,236.34 321.5,255.5C 299.14,277.527 276.806,299.527 254.5,321.5C 235.062,340.438 215.728,359.604 196.5,379C 188.236,384.172 179.236,385.839 169.5,384C 165.888,382.861 162.554,381.194 159.5,379C 156.631,375.962 153.631,373.129 150.5,370.5C 144.536,364.035 138.369,357.702 132,351.5C 130.414,349.33 129.08,346.996 128,344.5C 124.953,333.82 126.286,323.82 132,314.5C 151.681,294.986 171.181,275.32 190.5,255.5C 170.152,234.986 149.985,214.319 130,193.5C 128.438,191.043 127.438,188.376 127,185.5C 125.121,176.067 126.788,167.4 132,159.5C 142.196,148.97 152.696,138.803 163.5,129C 176.291,123.363 188.291,124.697 199.5,133C 217.971,152.472 236.805,171.638 256,190.5C 275.5,171 295,151.5 314.5,132C 316.67,130.414 319.004,129.08 321.5,128C 332.145,125.036 342.145,126.369 351.5,132C 357.369,138.036 363.369,143.87 369.5,149.5 Z"/></g>
<g><path style="opacity:1" fill="#ad0f0e" d="M 505.5,310.5 C 505.26,315.12 504.26,319.453 502.5,323.5C 498.796,332.943 495.462,342.61 492.5,352.5C 469.589,408.586 431.589,451.419 378.5,481C 373.036,484.068 367.369,486.568 361.5,488.5C 350.907,492.421 340.24,496.254 329.5,500C 315.1,504.399 300.433,507.066 285.5,508C 239.833,462.333 194.167,416.667 148.5,371C 149.094,370.536 149.761,370.369 150.5,370.5C 153.631,373.129 156.631,375.962 159.5,379C 162.554,381.194 165.888,382.861 169.5,384C 179.236,385.839 188.236,384.172 196.5,379C 215.728,359.604 235.062,340.438 254.5,321.5C 275.55,340.046 295.884,359.546 315.5,380C 327.167,387.333 338.833,387.333 350.5,380C 361.363,369.471 371.863,358.637 382,347.5C 387.75,334.634 386.417,322.634 378,311.5C 358.66,293.327 339.827,274.66 321.5,255.5C 339.827,236.34 358.66,217.673 378,199.5C 387.129,186.903 387.796,173.903 380,160.5C 376.296,156.964 372.796,153.298 369.5,149.5C 415.773,194.268 461.939,239.935 508,286.5C 507.501,294.504 506.668,302.504 505.5,310.5 Z"/></g>
<g><path style="opacity:1" fill="#d6d5d5" d="M 321.5,255.5 C 339.827,274.66 358.66,293.327 378,311.5C 386.417,322.634 387.75,334.634 382,347.5C 371.863,358.637 361.363,369.471 350.5,380C 338.833,387.333 327.167,387.333 315.5,380C 295.884,359.546 275.55,340.046 254.5,321.5C 276.806,299.527 299.14,277.527 321.5,255.5 Z"/></g>
<g><path style="opacity:0.886" fill="#e2433b" d="M 502.5,323.5 C 500.334,333.668 497.001,343.334 492.5,352.5C 495.462,342.61 498.796,332.943 502.5,323.5 Z"/></g>
</svg>
