<?xml version="1.0" encoding="UTF-8"?>
<!DOCTYPE svg PUBLIC "-//W3C//DTD SVG 1.1//EN" "http://www.w3.org/Graphics/SVG/1.1/DTD/svg11.dtd">
<svg xmlns="http://www.w3.org/2000/svg" version="1.1" width="64px" height="64px" style="shape-rendering:geometricPrecision; text-rendering:geometricPrecision; image-rendering:optimizeQuality; fill-rule:evenodd; clip-rule:evenodd" xmlns:xlink="http://www.w3.org/1999/xlink">
<g><path style="opacity:0.94" fill="#f07c3c" d="M 30.5,28.5 C 29.853,26.8595 28.853,25.5261 27.5,24.5C 30.4214,17.0618 27.7547,13.3952 19.5,13.5C 18.3634,12.2112 17.0301,11.2112 15.5,10.5C 25.6569,5.79835 31.9903,8.96502 34.5,20C 34.2019,23.4294 32.8685,26.2627 30.5,28.5 Z"/></g>
<g><path style="opacity:0.957" fill="#eb503a" d="M 51.5,31.5 C 51.2624,29.5956 50.2624,28.2623 48.5,27.5C 51.6033,22.9026 50.2699,20.5693 44.5,20.5C 42.7376,19.7377 41.7376,18.4044 41.5,16.5C 51.5882,13.4504 56.0882,17.1171 55,27.5C 54.34,29.3237 53.1733,30.657 51.5,31.5 Z"/></g>
<g><path style="opacity:0.863" fill="#f59936" d="M 15.5,10.5 C 17.0301,11.2112 18.3634,12.2112 19.5,13.5C 15.433,16.3231 14.5997,19.9898 17,24.5C 20.5684,27.1315 24.0684,27.1315 27.5,24.5C 28.853,25.5261 29.853,26.8595 30.5,28.5C 29.9423,29.7899 28.9423,30.6232 27.5,31C 15.6825,33.1769 10.1825,28.3436 11,16.5C 11.5661,13.7713 13.0661,11.7713 15.5,10.5 Z"/></g>
<g><path style="opacity:0.901" fill="#ee713c" d="M 41.5,16.5 C 41.7376,18.4044 42.7376,19.7377 44.5,20.5C 41.3967,25.0974 42.7301,27.4307 48.5,27.5C 50.2624,28.2623 51.2624,29.5956 51.5,31.5C 41.4118,34.5496 36.9118,30.8829 38,20.5C 38.66,18.6763 39.8267,17.343 41.5,16.5 Z"/></g>
<g><path style="opacity:0.648" fill="#f6a42b" d="M 24.5,34.5 C 25.075,36.4113 26.075,38.078 27.5,39.5C 22.9289,39.0537 18.5956,39.7203 14.5,41.5C 14.634,39.7085 14.3007,38.0418 13.5,36.5C 16.8448,34.783 20.5115,34.1164 24.5,34.5 Z"/></g>
<g><path style="opacity:0.944" fill="#ef723c" d="M 61.5,49.5 C 59.8606,47.1939 57.8606,45.1939 55.5,43.5C 50.935,39.238 45.935,38.5713 40.5,41.5C 39.8333,39.8333 39.1667,38.1667 38.5,36.5C 48.5697,31.9519 56.0697,34.6186 61,44.5C 61.4935,46.1341 61.6602,47.8008 61.5,49.5 Z"/></g>
<g><path style="opacity:0.935" fill="#f49639" d="M 24.5,34.5 C 28.6066,34.6464 32.2733,35.9798 35.5,38.5C 36.5178,37.8075 37.5178,37.1408 38.5,36.5C 39.1667,38.1667 39.8333,39.8333 40.5,41.5C 39.9569,41.56 39.6236,41.8933 39.5,42.5C 40.7629,44.0287 41.7629,45.6954 42.5,47.5C 43.925,48.922 44.925,50.5887 45.5,52.5C 43.744,53.5521 43.0773,55.2188 43.5,57.5C 41.5,57.5 39.5,57.5 37.5,57.5C 36.3995,56.3951 35.7329,55.0618 35.5,53.5C 36.675,53.719 37.675,53.3857 38.5,52.5C 36.5952,46.6013 32.9285,42.2679 27.5,39.5C 26.075,38.078 25.075,36.4113 24.5,34.5 Z"/></g>
<g><path style="opacity:0.867" fill="#fbbc15" d="M 13.5,36.5 C 14.3007,38.0418 14.634,39.7085 14.5,41.5C 11.093,43.9033 8.42632,46.9033 6.5,50.5C 6.26242,48.5956 5.26242,47.2623 3.5,46.5C 5.16667,41.5 8.5,38.1667 13.5,36.5 Z"/></g>
<g><path style="opacity:0.822" fill="#f07d3d" d="M 55.5,43.5 C 57.8606,45.1939 59.8606,47.1939 61.5,49.5C 61.5858,50.4959 61.2524,51.3292 60.5,52C 55.5111,52.4993 50.5111,52.6659 45.5,52.5C 44.925,50.5887 43.925,48.922 42.5,47.5C 47.2137,47.8266 51.8804,47.4933 56.5,46.5C 55.8728,45.5832 55.5394,44.5832 55.5,43.5 Z"/></g>
<g><path style="opacity:0.94" fill="#fcc60e" d="M 3.5,46.5 C 5.26242,47.2623 6.26242,48.5956 6.5,50.5C 6.5,51.5 6.5,52.5 6.5,53.5C 10.1667,53.5 13.8333,53.5 17.5,53.5C 18.5,54.8333 19.5,56.1667 20.5,57.5C 14.1667,57.5 7.83333,57.5 1.5,57.5C 1.33537,54.4816 1.50204,51.4816 2,48.5C 2.27842,47.5842 2.77842,46.9175 3.5,46.5 Z"/></g>
<g><path style="opacity:1" fill="#f8ab25" d="M 17.5,53.5 C 23.5,53.5 29.5,53.5 35.5,53.5C 35.7329,55.0618 36.3995,56.3951 37.5,57.5C 31.8333,57.5 26.1667,57.5 20.5,57.5C 19.5,56.1667 18.5,54.8333 17.5,53.5 Z"/></g>
</svg>
