<?xml version="1.0" encoding="UTF-8"?>
<!DOCTYPE svg PUBLIC "-//W3C//DTD SVG 1.1//EN" "http://www.w3.org/Graphics/SVG/1.1/DTD/svg11.dtd">
<svg xmlns="http://www.w3.org/2000/svg" version="1.1" width="128px" height="128px" style="shape-rendering:geometricPrecision; text-rendering:geometricPrecision; image-rendering:optimizeQuality; fill-rule:evenodd; clip-rule:evenodd" xmlns:xlink="http://www.w3.org/1999/xlink">
<g><path style="opacity:0.887" fill="#588157" d="M 4.5,-0.5 C 11.5,-0.5 18.5,-0.5 25.5,-0.5C 26.6256,0.858316 26.6256,2.19165 25.5,3.5C 22.557,4.24354 19.557,4.74354 16.5,5C 17.4963,41.4272 17.8296,77.9272 17.5,114.5C 32.8333,114.5 48.1667,114.5 63.5,114.5C 63.5,111.167 63.5,107.833 63.5,104.5C 58.4889,104.666 53.4889,104.499 48.5,104C 48,103.5 47.5,103 47,102.5C 46.5007,97.5111 46.3341,92.5111 46.5,87.5C 39.5,87.5 32.5,87.5 25.5,87.5C 25.5,86.1667 25.5,84.8333 25.5,83.5C 32.5,83.5 39.5,83.5 46.5,83.5C 46.5,80.5 46.5,77.5 46.5,74.5C 39.825,74.6663 33.1583,74.4996 26.5,74C 25.1667,72.6667 25.1667,71.3333 26.5,70C 33.1915,69.8309 39.8581,69.3309 46.5,68.5C 46.9767,67.5224 47.6433,66.6891 48.5,66C 64.4965,65.5001 80.4965,65.3334 96.5,65.5C 96.9759,45.4077 96.4759,25.4077 95,5.5C 73.9062,4.67261 52.7396,4.17261 31.5,4C 30.6198,2.64387 30.2865,1.14387 30.5,-0.5C 52.1667,-0.5 73.8333,-0.5 95.5,-0.5C 97.475,0.646381 98.975,2.31305 100,4.5C 100.5,24.8306 100.667,45.1639 100.5,65.5C 103.518,65.3354 106.518,65.502 109.5,66C 110,66.5 110.5,67 111,67.5C 111.499,73.4908 111.666,79.4908 111.5,85.5C 116.927,85.2175 122.26,85.5509 127.5,86.5C 127.5,99.8333 127.5,113.167 127.5,126.5C 126.508,126.328 125.842,126.662 125.5,127.5C 122.833,127.5 120.167,127.5 117.5,127.5C 116.374,126.142 116.374,124.808 117.5,123.5C 119.409,122.652 121.409,122.318 123.5,122.5C 123.5,111.5 123.5,100.5 123.5,89.5C 105.164,89.3334 86.8303,89.5001 68.5,90C 67.513,100.752 67.1797,111.585 67.5,122.5C 82.1705,122.333 96.8371,122.5 111.5,123C 112.38,124.356 112.714,125.856 112.5,127.5C 96.8333,127.5 81.1667,127.5 65.5,127.5C 63.7739,125.18 63.1072,122.513 63.5,119.5C 47.1633,119.667 30.8299,119.5 14.5,119C 14,118.5 13.5,118 13,117.5C 12.5,92.8356 12.3334,68.1689 12.5,43.5C 7.86025,44.0251 3.52691,43.3584 -0.5,41.5C -0.5,29.1667 -0.5,16.8333 -0.5,4.5C 0.833333,2.5 2.5,0.833333 4.5,-0.5 Z M 5.5,4.5 C 8.04443,4.10433 10.2111,4.77099 12,6.5C 12.4998,17.1615 12.6665,27.8281 12.5,38.5C 9.5,38.5 6.5,38.5 3.5,38.5C 3.33351,28.1613 3.50017,17.828 4,7.5C 4.51328,6.47344 5.01328,5.47344 5.5,4.5 Z M 37.5,15.5 C 42.8333,16.5 42.8333,17.5 37.5,18.5C 37.5,17.5 37.5,16.5 37.5,15.5 Z M 37.5,23.5 C 39.1667,23.5 40.8333,23.5 42.5,23.5C 42.5,24.8333 42.5,26.1667 42.5,27.5C 40.8333,27.5 39.1667,27.5 37.5,27.5C 37.5,26.1667 37.5,24.8333 37.5,23.5 Z M 51.5,70.5 C 53.1992,70.3398 54.8659,70.5065 56.5,71C 55,72.5 53.5,74 52,75.5C 51.5065,73.8659 51.3398,72.1992 51.5,70.5 Z M 61.5,70.5 C 73.1667,70.5 84.8333,70.5 96.5,70.5C 97.3379,75.6762 100.338,79.0095 105.5,80.5C 106.452,82.0453 106.785,83.712 106.5,85.5C 99.1591,85.6663 91.8258,85.4997 84.5,85C 82.5172,83.1111 80.1838,81.7777 77.5,81C 79.1786,80.6053 80.8453,80.772 82.5,81.5C 84.2664,81.5658 85.2664,80.7324 85.5,79C 83.1067,76.9714 80.9401,74.8048 79,72.5C 76.888,74.6542 74.888,76.9876 73,79.5C 72.4644,81.5672 72.9644,83.4006 74.5,85C 71.1182,85.1764 67.7848,85.6764 64.5,86.5C 63.8885,90.8198 63.2218,95.1532 62.5,99.5C 60.6816,94.0099 57.015,90.6766 51.5,89.5C 51.1826,86.4281 51.5159,83.4281 52.5,80.5C 57.2825,78.72 60.2825,75.3867 61.5,70.5 Z M 101.5,71.5 C 102.919,70.5489 104.585,70.2155 106.5,70.5C 106.751,76.2344 105.085,76.5677 101.5,71.5 Z M 51.5,94.5 C 57.3318,97.6029 57.3318,99.2696 51.5,99.5C 51.5,97.8333 51.5,96.1667 51.5,94.5 Z M 78.5,98.5 C 80.8333,98.5 83.1667,98.5 85.5,98.5C 85.5,100.167 85.5,101.833 85.5,103.5C 83.1667,103.5 80.8333,103.5 78.5,103.5C 78.5,101.833 78.5,100.167 78.5,98.5 Z"/></g>
<g><path style="opacity:0.897" fill="#588157" d="M 58.5,10.5 C 59.8221,10.33 60.9887,10.6634 62,11.5C 62.4994,16.8229 62.666,22.1563 62.5,27.5C 64.288,27.2148 65.9547,27.5481 67.5,28.5C 68.8333,29.5 68.8333,30.5 67.5,31.5C 64.2913,32.7874 61.1247,32.7874 58,31.5C 57.2055,24.4197 57.3722,17.4197 58.5,10.5 Z"/></g>
<g><path style="opacity:0.97" fill="#588356" d="M 33.5,10.5 C 38.0406,9.76918 42.0406,10.7692 45.5,13.5C 46.7797,15.7016 46.7797,17.8683 45.5,20C 48.0893,23.5976 48.0893,27.2643 45.5,31C 41.3709,32.731 37.2042,32.8977 33,31.5C 32.2402,24.4505 32.4069,17.4505 33.5,10.5 Z M 37.5,15.5 C 37.5,16.5 37.5,17.5 37.5,18.5C 42.8333,17.5 42.8333,16.5 37.5,15.5 Z M 37.5,23.5 C 37.5,24.8333 37.5,26.1667 37.5,27.5C 39.1667,27.5 40.8333,27.5 42.5,27.5C 42.5,26.1667 42.5,24.8333 42.5,23.5C 40.8333,23.5 39.1667,23.5 37.5,23.5 Z"/></g>
<g><path style="opacity:0.956" fill="#578157" d="M 51.5,10.5 C 52.4959,10.4142 53.3292,10.7476 54,11.5C 54.6667,18.1667 54.6667,24.8333 54,31.5C 53,32.8333 52,32.8333 51,31.5C 50.2055,24.4197 50.3722,17.4197 51.5,10.5 Z"/></g>
<g><path style="opacity:0.961" fill="#568255" d="M 71.5,10.5 C 72.4959,10.4142 73.3292,10.7476 74,11.5C 74.4994,16.8229 74.666,22.1563 74.5,27.5C 76.1992,27.3398 77.8659,27.5065 79.5,28C 80.9269,31.9123 79.4269,33.4123 75,32.5C 73.0194,32.3708 71.3528,31.7042 70,30.5C 69.3333,24.5 69.3333,18.5 70,12.5C 70.7172,11.9558 71.2172,11.2891 71.5,10.5 Z"/></g>
<g><path style="opacity:0.897" fill="#588057" d="M 26.5,41.5 C 39.1711,41.3334 51.8377,41.5001 64.5,42C 65.3802,43.3561 65.7135,44.8561 65.5,46.5C 52.4957,46.6666 39.4957,46.4999 26.5,46C 25.2721,44.5098 25.2721,43.0098 26.5,41.5 Z"/></g>
<g><path style="opacity:0.891" fill="#588256" d="M 79.5,41.5 C 82.5184,41.3354 85.5184,41.502 88.5,42C 90.3937,43.0793 90.727,44.4126 89.5,46C 85.8333,46.6667 82.1667,46.6667 78.5,46C 77.2568,44.184 77.5901,42.684 79.5,41.5 Z"/></g>
<g><path style="opacity:0.982" fill="#578157" d="M 26.5,55.5 C 39.5,55.5 52.5,55.5 65.5,55.5C 65.5,57.1667 65.5,58.8333 65.5,60.5C 52.4957,60.6666 39.4957,60.4999 26.5,60C 25.2721,58.5098 25.2721,57.0098 26.5,55.5 Z"/></g>
<g><path style="opacity:0.942" fill="#598157" d="M 78.5,55.5 C 82.1817,55.3347 85.8484,55.5014 89.5,56C 90.8333,57.3333 90.8333,58.6667 89.5,60C 85.8333,60.6667 82.1667,60.6667 78.5,60C 77.2721,58.5098 77.2721,57.0098 78.5,55.5 Z"/></g>
<g><path style="opacity:0.946" fill="#588157" d="M 75.5,94.5 C 80.2137,94.1734 84.8804,94.5067 89.5,95.5C 90.5932,99.1078 90.7599,102.775 90,106.5C 84.9398,108.958 79.7732,109.125 74.5,107C 72.9557,102.62 73.289,98.4536 75.5,94.5 Z M 78.5,98.5 C 78.5,100.167 78.5,101.833 78.5,103.5C 80.8333,103.5 83.1667,103.5 85.5,103.5C 85.5,101.833 85.5,100.167 85.5,98.5C 83.1667,98.5 80.8333,98.5 78.5,98.5 Z"/></g>
<g><path style="opacity:0.887" fill="#588556" d="M 109.5,96.5 C 112.167,96.5 114.833,96.5 117.5,96.5C 116.832,101.333 114.166,102.666 109.5,100.5C 108.374,99.1916 108.374,97.8583 109.5,96.5 Z"/></g>
<g><path style="opacity:0.877" fill="#578156" d="M 75.5,113.5 C 77.5273,113.338 79.5273,113.505 81.5,114C 82.5171,115.049 82.6838,116.216 82,117.5C 79.5991,118.602 77.0991,118.769 74.5,118C 73.2568,116.184 73.5901,114.684 75.5,113.5 Z"/></g>
<g><path style="opacity:0.845" fill="#578356" d="M 86.5,113.5 C 89.9079,112.828 92.5745,113.828 94.5,116.5C 94.2907,117.086 93.9574,117.586 93.5,118C 90.854,118.497 88.1873,118.664 85.5,118.5C 85.366,116.708 85.6993,115.042 86.5,113.5 Z"/></g>
<g><path style="opacity:0.858" fill="#588157" d="M 98.5,113.5 C 100.527,113.338 102.527,113.505 104.5,114C 105.38,115.356 105.714,116.856 105.5,118.5C 102.833,118.5 100.167,118.5 97.5,118.5C 97.366,116.708 97.6993,115.042 98.5,113.5 Z"/></g>
<g><path style="opacity:0.9" fill="#588057" d="M 110.5,113.5 C 112.527,113.338 114.527,113.505 116.5,114C 117.517,115.049 117.684,116.216 117,117.5C 114.599,118.602 112.099,118.769 109.5,118C 108.257,116.184 108.59,114.684 110.5,113.5 Z"/></g>
</svg>
