<?xml version="1.0" encoding="UTF-8"?>
<!DOCTYPE svg PUBLIC "-//W3C//DTD SVG 1.1//EN" "http://www.w3.org/Graphics/SVG/1.1/DTD/svg11.dtd">
<svg xmlns="http://www.w3.org/2000/svg" version="1.1" width="64px" height="64px" style="shape-rendering:geometricPrecision; text-rendering:geometricPrecision; image-rendering:optimizeQuality; fill-rule:evenodd; clip-rule:evenodd" xmlns:xlink="http://www.w3.org/1999/xlink">
<g><path style="opacity:0.96" fill="#588157" d="M 63.5,29.5 C 63.5,30.8333 63.5,32.1667 63.5,33.5C 62.7658,34.9293 61.5991,35.9293 60,36.5C 56.3389,34.3262 52.8389,31.9929 49.5,29.5C 48.0892,27.086 46.0892,25.4194 43.5,24.5C 42.0892,22.086 40.0892,20.4194 37.5,19.5C 35.8556,15.9941 33.1889,14.4941 29.5,15C 25.9008,17.9517 22.5675,21.1184 19.5,24.5C 16.9108,25.4194 14.9108,27.086 13.5,29.5C 10.1611,31.9929 6.66115,34.3262 3,36.5C 1.40088,35.9293 0.234212,34.9293 -0.5,33.5C -0.5,32.1667 -0.5,30.8333 -0.5,29.5C 9.6058,21.9051 19.6058,14.0717 29.5,6C 34.8543,6.62881 39.3543,9.12881 43,13.5C 43.2256,10.905 43.7256,8.405 44.5,6C 47.8168,5.50166 51.1501,5.33499 54.5,5.5C 54.3338,11.5092 54.5005,17.5092 55,23.5C 57.7309,25.7447 60.5642,27.7447 63.5,29.5 Z M 37.5,19.5 C 35.264,18.6109 33.264,17.2776 31.5,15.5C 27.7982,19.0048 23.7982,22.0048 19.5,24.5C 22.5675,21.1184 25.9008,17.9517 29.5,15C 33.1889,14.4941 35.8556,15.9941 37.5,19.5 Z M 37.5,19.5 C 40.0892,20.4194 42.0892,22.086 43.5,24.5C 40.9108,23.5806 38.9108,21.914 37.5,19.5 Z M 19.5,24.5 C 18.0892,26.914 16.0892,28.5806 13.5,29.5C 14.9108,27.086 16.9108,25.4194 19.5,24.5 Z M 43.5,24.5 C 46.0892,25.4194 48.0892,27.086 49.5,29.5C 46.9108,28.5806 44.9108,26.914 43.5,24.5 Z"/></g>
<g><path style="opacity:0.98" fill="#588156" d="M 37.5,19.5 C 38.9108,21.914 40.9108,23.5806 43.5,24.5C 44.9108,26.914 46.9108,28.5806 49.5,29.5C 50.7927,31.2959 52.2927,32.9625 54,34.5C 54.6667,41.8333 54.6667,49.1667 54,56.5C 48.2588,57.4749 42.4254,57.8082 36.5,57.5C 36.5,52.5 36.5,47.5 36.5,42.5C 33.1667,42.5 29.8333,42.5 26.5,42.5C 26.5,47.5 26.5,52.5 26.5,57.5C 20.5746,57.8082 14.7412,57.4749 9,56.5C 8.33333,49.1667 8.33333,41.8333 9,34.5C 10.7073,32.9625 12.2073,31.2959 13.5,29.5C 16.0892,28.5806 18.0892,26.914 19.5,24.5C 23.7982,22.0048 27.7982,19.0048 31.5,15.5C 33.264,17.2776 35.264,18.6109 37.5,19.5 Z"/></g>
</svg>
