<?xml version="1.0" encoding="UTF-8"?>
<!DOCTYPE svg PUBLIC "-//W3C//DTD SVG 1.1//EN" "http://www.w3.org/Graphics/SVG/1.1/DTD/svg11.dtd">
<svg xmlns="http://www.w3.org/2000/svg" version="1.1" width="64px" height="64px" style="shape-rendering:geometricPrecision; text-rendering:geometricPrecision; image-rendering:optimizeQuality; fill-rule:evenodd; clip-rule:evenodd" xmlns:xlink="http://www.w3.org/1999/xlink">
<g><path style="opacity:0.969" fill="#594461" d="M 30.5,-0.5 C 32.5,-0.5 34.5,-0.5 36.5,-0.5C 38.3492,0.593015 40.0158,1.92635 41.5,3.5C 44.0379,7.44799 45.3712,11.7813 45.5,16.5C 41.3631,16.7015 39.0298,14.7015 38.5,10.5C 35.2317,9.51298 31.8984,9.17964 28.5,9.5C 26.7418,5.62376 27.4085,2.29043 30.5,-0.5 Z"/></g>
<g><path style="opacity:1" fill="#48334f" d="M 26.5,-0.5 C 27.8333,-0.5 29.1667,-0.5 30.5,-0.5C 27.4085,2.29043 26.7418,5.62376 28.5,9.5C 27.5,9.83333 26.8333,10.5 26.5,11.5C 25.8144,16.041 24.1477,20.2077 21.5,24C 22.7332,27.6168 24.0665,31.1168 25.5,34.5C 22.0295,35.1252 19.1962,34.1252 17,31.5C 15.5964,21.5916 17.0964,12.2583 21.5,3.5C 22.9842,1.92635 24.6508,0.593015 26.5,-0.5 Z"/></g>
<g><path style="opacity:0.976" fill="#7f6cce" d="M 21.5,3.5 C 17.0964,12.2583 15.5964,21.5916 17,31.5C 19.1962,34.1252 22.0295,35.1252 25.5,34.5C 25.1667,35.5 24.5,36.1667 23.5,36.5C 19.8976,36.6924 16.8976,38.0257 14.5,40.5C 9.67414,41.3281 6.3408,43.9948 4.5,48.5C 2.97093,45.2464 1.63759,41.913 0.5,38.5C 5.91907,39.0407 9.41907,36.7074 11,31.5C 13.1681,25.3163 13.8348,18.983 13,12.5C 12.2917,11.6195 11.4584,10.9528 10.5,10.5C 13.311,6.92196 16.9777,4.58863 21.5,3.5 Z"/></g>
<g><path style="opacity:0.973" fill="#7f6cce" d="M 41.5,3.5 C 46.0223,4.58863 49.689,6.92196 52.5,10.5C 50.2858,11.3915 49.2858,13.0582 49.5,15.5C 50.0788,20.8783 50.9122,26.2116 52,31.5C 53.5809,36.7074 57.0809,39.0407 62.5,38.5C 61.3624,41.913 60.0291,45.2464 58.5,48.5C 56.5294,43.5327 52.8627,40.8661 47.5,40.5C 45.4208,38.127 42.7541,36.7936 39.5,36.5C 38.5,36.1667 37.8333,35.5 37.5,34.5C 40.9705,35.1252 43.8038,34.1252 46,31.5C 46.4155,27.152 46.2488,22.8187 45.5,18.5C 45.5,17.8333 45.5,17.1667 45.5,16.5C 45.3712,11.7813 44.0379,7.44799 41.5,3.5 Z"/></g>
<g><path style="opacity:1" fill="#f6dfc3" d="M 28.5,9.5 C 31.8984,9.17964 35.2317,9.51298 38.5,10.5C 39.0298,14.7015 41.3631,16.7015 45.5,16.5C 45.5,17.1667 45.5,17.8333 45.5,18.5C 41.9023,23.244 39.2357,28.5773 37.5,34.5C 33.853,34.0466 31.353,31.7133 30,27.5C 28.1534,22.1973 26.9867,16.864 26.5,11.5C 26.8333,10.5 27.5,9.83333 28.5,9.5 Z"/></g>
<g><path style="opacity:1" fill="#9387e6" d="M 10.5,10.5 C 11.4584,10.9528 12.2917,11.6195 13,12.5C 13.8348,18.983 13.1681,25.3163 11,31.5C 9.41907,36.7074 5.91907,39.0407 0.5,38.5C -1.03552,27.2473 2.29781,17.914 10.5,10.5 Z"/></g>
<g><path style="opacity:1" fill="#fad39d" d="M 26.5,11.5 C 26.9867,16.864 28.1534,22.1973 30,27.5C 31.353,31.7133 33.853,34.0466 37.5,34.5C 37.8333,35.5 38.5,36.1667 39.5,36.5C 38.0931,40.3118 36.4264,43.9785 34.5,47.5C 34.8333,48.1667 35.1667,48.8333 35.5,49.5C 32.8333,50.8333 30.1667,50.8333 27.5,49.5C 27.5,49.1667 27.5,48.8333 27.5,48.5C 28.4778,48.189 29.1445,47.5223 29.5,46.5C 28.4787,44.812 27.1454,43.4787 25.5,42.5C 25.0293,40.4214 24.3627,38.4214 23.5,36.5C 24.5,36.1667 25.1667,35.5 25.5,34.5C 24.0665,31.1168 22.7332,27.6168 21.5,24C 24.1477,20.2077 25.8144,16.041 26.5,11.5 Z"/></g>
<g><path style="opacity:1" fill="#9387e6" d="M 52.5,10.5 C 60.7081,17.9511 64.0414,27.2844 62.5,38.5C 57.0809,39.0407 53.5809,36.7074 52,31.5C 50.9122,26.2116 50.0788,20.8783 49.5,15.5C 49.2858,13.0582 50.2858,11.3915 52.5,10.5 Z"/></g>
<g><path style="opacity:1" fill="#4c3754" d="M 45.5,18.5 C 46.2488,22.8187 46.4155,27.152 46,31.5C 43.8038,34.1252 40.9705,35.1252 37.5,34.5C 39.2357,28.5773 41.9023,23.244 45.5,18.5 Z"/></g>
<g><path style="opacity:1" fill="#c0c0ee" d="M 23.5,36.5 C 24.3627,38.4214 25.0293,40.4214 25.5,42.5C 24.791,43.404 23.791,43.7373 22.5,43.5C 22.5,44.5 22.5,45.5 22.5,46.5C 22.1667,46.5 21.8333,46.5 21.5,46.5C 19.1918,44.5293 16.8585,42.5293 14.5,40.5C 16.8976,38.0257 19.8976,36.6924 23.5,36.5 Z"/></g>
<g><path style="opacity:1" fill="#d6d9f5" d="M 39.5,36.5 C 42.7541,36.7936 45.4208,38.127 47.5,40.5C 45.8304,43.0016 43.6637,45.0016 41,46.5C 40.033,57.4961 39.1996,57.8294 38.5,47.5C 37.1667,47.5 35.8333,47.5 34.5,47.5C 36.4264,43.9785 38.0931,40.3118 39.5,36.5 Z"/></g>
<g><path style="opacity:0.949" fill="#fd4256" d="M 14.5,40.5 C 16.8585,42.5293 19.1918,44.5293 21.5,46.5C 14.4964,46.918 11.4964,50.5847 12.5,57.5C 9.11945,55.1203 6.45279,52.1203 4.5,48.5C 6.3408,43.9948 9.67414,41.3281 14.5,40.5 Z"/></g>
<g><path style="opacity:0.971" fill="#fe7288" d="M 47.5,40.5 C 52.8627,40.8661 56.5294,43.5327 58.5,48.5C 57.2993,50.9095 55.6326,52.9095 53.5,54.5C 53.5,51.1667 51.8333,49.5 48.5,49.5C 48.5,52.5 48.5,55.5 48.5,58.5C 45.8104,60.7295 42.8104,62.3962 39.5,63.5C 38.1667,63.5 36.8333,63.5 35.5,63.5C 35.5,58.8333 35.5,54.1667 35.5,49.5C 35.1667,48.8333 34.8333,48.1667 34.5,47.5C 35.8333,47.5 37.1667,47.5 38.5,47.5C 39.1996,57.8294 40.033,57.4961 41,46.5C 43.6637,45.0016 45.8304,43.0016 47.5,40.5 Z"/></g>
<g><path style="opacity:1" fill="#dbdaee" d="M 25.5,42.5 C 27.1454,43.4787 28.4787,44.812 29.5,46.5C 29.1445,47.5223 28.4778,48.189 27.5,48.5C 26.791,47.596 25.791,47.2627 24.5,47.5C 24.8134,50.2469 24.48,52.9135 23.5,55.5C 22.5159,52.5719 22.1826,49.5719 22.5,46.5C 22.5,45.5 22.5,44.5 22.5,43.5C 23.791,43.7373 24.791,43.404 25.5,42.5 Z"/></g>
<g><path style="opacity:0.976" fill="#fe7287" d="M 21.5,46.5 C 21.8333,46.5 22.1667,46.5 22.5,46.5C 22.1826,49.5719 22.5159,52.5719 23.5,55.5C 24.48,52.9135 24.8134,50.2469 24.5,47.5C 25.791,47.2627 26.791,47.596 27.5,48.5C 27.5,48.8333 27.5,49.1667 27.5,49.5C 27.5,54.1667 27.5,58.8333 27.5,63.5C 26.1667,63.5 24.8333,63.5 23.5,63.5C 19.6159,61.8741 15.9492,59.8741 12.5,57.5C 11.4964,50.5847 14.4964,46.918 21.5,46.5 Z"/></g>
<g><path style="opacity:1" fill="#ff475c" d="M 53.5,54.5 C 52.4154,56.5869 50.7488,57.9202 48.5,58.5C 48.5,55.5 48.5,52.5 48.5,49.5C 51.8333,49.5 53.5,51.1667 53.5,54.5 Z"/></g>
<g><path style="opacity:0.995" fill="#7a5776" d="M 27.5,49.5 C 30.1667,50.8333 32.8333,50.8333 35.5,49.5C 35.5,54.1667 35.5,58.8333 35.5,63.5C 32.8333,63.5 30.1667,63.5 27.5,63.5C 27.5,58.8333 27.5,54.1667 27.5,49.5 Z"/></g>
</svg>
