<?xml version="1.0" encoding="UTF-8"?>
<!DOCTYPE svg PUBLIC "-//W3C//DTD SVG 1.1//EN" "http://www.w3.org/Graphics/SVG/1.1/DTD/svg11.dtd">
<svg xmlns="http://www.w3.org/2000/svg" version="1.1" width="64px" height="64px" style="shape-rendering:geometricPrecision; text-rendering:geometricPrecision; image-rendering:optimizeQuality; fill-rule:evenodd; clip-rule:evenodd" xmlns:xlink="http://www.w3.org/1999/xlink">
<g><path style="opacity:0.976" fill="#424253" d="M 31.5,-0.5 C 32.5,-0.5 33.5,-0.5 34.5,-0.5C 37.2177,0.103618 39.551,1.43695 41.5,3.5C 42.2026,5.71572 43.5359,7.54905 45.5,9C 44.7231,11.6276 43.7231,14.1276 42.5,16.5C 41.71,17.6085 41.21,18.9419 41,20.5C 40.2833,16.4352 38.6166,12.7685 36,9.5C 34.1295,11.2189 31.9628,12.2189 29.5,12.5C 31.1383,9.42684 30.805,6.5935 28.5,4C 30.0629,3.24109 31.0629,2.07442 31.5,0.5C 31.5,0.166667 31.5,-0.166667 31.5,-0.5 Z"/></g>
<g><path style="opacity:1" fill="#2f3147" d="M 31.5,0.5 C 31.0629,2.07442 30.0629,3.24109 28.5,4C 30.805,6.5935 31.1383,9.42684 29.5,12.5C 29.5,12.8333 29.5,13.1667 29.5,13.5C 24.2924,12.873 21.7924,15.2063 22,20.5C 21.5357,19.9056 21.369,19.2389 21.5,18.5C 19.8724,15.1178 18.539,11.6178 17.5,8C 19.6605,7.0041 21.3272,5.5041 22.5,3.5C 24.9557,1.1324 27.9557,0.132404 31.5,0.5 Z"/></g>
<g><path style="opacity:0.974" fill="#65bef1" d="M 41.5,3.5 C 55.24,8.46353 62.24,18.2969 62.5,33C 62.6729,37.804 61.6729,42.304 59.5,46.5C 58.295,43.7659 56.795,41.0993 55,38.5C 53.2745,37.536 51.4412,36.8693 49.5,36.5C 47.3043,32.0011 43.6377,30.0011 38.5,30.5C 38.1667,30.5 37.8333,30.5 37.5,30.5C 38.2597,27.121 39.7597,24.121 42,21.5C 42.4935,19.8659 42.6602,18.1992 42.5,16.5C 43.7231,14.1276 44.7231,11.6276 45.5,9C 43.5359,7.54905 42.2026,5.71572 41.5,3.5 Z"/></g>
<g><path style="opacity:0.98" fill="#65bff2" d="M 22.5,3.5 C 21.3272,5.5041 19.6605,7.0041 17.5,8C 18.539,11.6178 19.8724,15.1178 21.5,18.5C 20.9033,18.7352 20.5699,19.2352 20.5,20C 22.5373,22.7629 24.204,25.7629 25.5,29C 24.944,29.3826 24.6107,29.8826 24.5,30.5C 23.2618,29.5876 21.9285,29.4209 20.5,30C 16.5,32.6667 12.5,35.3333 8.5,38C 6.68589,40.4795 5.01922,42.9795 3.5,45.5C -2.51163,30.3833 0.821707,17.55 13.5,7C 16.3093,5.25889 19.3093,4.09223 22.5,3.5 Z"/></g>
<g><path style="opacity:1" fill="#fbb897" d="M 42.5,16.5 C 42.6602,18.1992 42.4935,19.8659 42,21.5C 39.7597,24.121 38.2597,27.121 37.5,30.5C 34.4759,33.3755 32.3092,32.7088 31,28.5C 29.7497,23.5805 29.2497,18.5805 29.5,13.5C 29.5,13.1667 29.5,12.8333 29.5,12.5C 31.9628,12.2189 34.1295,11.2189 36,9.5C 38.6166,12.7685 40.2833,16.4352 41,20.5C 41.21,18.9419 41.71,17.6085 42.5,16.5 Z"/></g>
<g><path style="opacity:1" fill="#f8a579" d="M 29.5,13.5 C 29.2497,18.5805 29.7497,23.5805 31,28.5C 32.3092,32.7088 34.4759,33.3755 37.5,30.5C 37.8333,30.5 38.1667,30.5 38.5,30.5C 38.8333,31.1667 39.1667,31.8333 39.5,32.5C 37.2341,37.7965 33.2341,39.6298 27.5,38C 25.5359,36.549 24.2026,34.7157 23.5,32.5C 23.8333,31.8333 24.1667,31.1667 24.5,30.5C 24.6107,29.8826 24.944,29.3826 25.5,29C 24.204,25.7629 22.5373,22.7629 20.5,20C 20.5699,19.2352 20.9033,18.7352 21.5,18.5C 21.369,19.2389 21.5357,19.9056 22,20.5C 21.7924,15.2063 24.2924,12.873 29.5,13.5 Z"/></g>
<g><path style="opacity:1" fill="#434657" d="M 38.5,30.5 C 43.6377,30.0011 47.3043,32.0011 49.5,36.5C 49.1026,40.7371 46.936,43.7371 43,45.5C 42.5172,44.552 42.3505,43.552 42.5,42.5C 41.448,42.3505 40.448,42.5172 39.5,43C 41.3888,46.8362 42.0555,51.0029 41.5,55.5C 40.8333,55.5 40.1667,55.5 39.5,55.5C 39.5,52.5 39.5,49.5 39.5,46.5C 34.4848,47.7148 29.4848,47.7148 24.5,46.5C 23.5159,49.4281 23.1826,52.4281 23.5,55.5C 22.8333,55.5 22.1667,55.5 21.5,55.5C 22.4907,49.8368 20.824,45.3368 16.5,42C 17.6133,40.6057 18.9466,39.439 20.5,38.5C 21.1698,36.7086 21.8365,35.0419 22.5,33.5C 21.7719,39.3873 24.1053,43.3873 29.5,45.5C 35.1905,46.2024 38.8571,43.5357 40.5,37.5C 41.9302,35.5453 41.5969,33.8786 39.5,32.5C 39.1667,31.8333 38.8333,31.1667 38.5,30.5 Z"/></g>
<g><path style="opacity:0.975" fill="#2d2d43" d="M 49.5,36.5 C 51.4412,36.8693 53.2745,37.536 55,38.5C 56.795,41.0993 58.295,43.7659 59.5,46.5C 56.4784,52.855 51.8117,57.5217 45.5,60.5C 44.9348,58.58 43.9348,56.9133 42.5,55.5C 42.1667,55.5 41.8333,55.5 41.5,55.5C 42.0555,51.0029 41.3888,46.8362 39.5,43C 40.448,42.5172 41.448,42.3505 42.5,42.5C 42.3505,43.552 42.5172,44.552 43,45.5C 46.936,43.7371 49.1026,40.7371 49.5,36.5 Z"/></g>
<g><path style="opacity:1" fill="#e4ebee" d="M 40.5,37.5 C 38.8571,43.5357 35.1905,46.2024 29.5,45.5C 29.5,44.1667 29.5,42.8333 29.5,41.5C 33.6358,41.3447 37.3025,40.0114 40.5,37.5 Z"/></g>
<g><path style="opacity:1" fill="#b9cadd" d="M 23.5,32.5 C 24.2026,34.7157 25.5359,36.549 27.5,38C 33.2341,39.6298 37.2341,37.7965 39.5,32.5C 41.5969,33.8786 41.9302,35.5453 40.5,37.5C 37.3025,40.0114 33.6358,41.3447 29.5,41.5C 29.5,42.8333 29.5,44.1667 29.5,45.5C 24.1053,43.3873 21.7719,39.3873 22.5,33.5C 22.5,32.8333 22.8333,32.5 23.5,32.5 Z"/></g>
<g><path style="opacity:0.975" fill="#2b2b40" d="M 24.5,30.5 C 24.1667,31.1667 23.8333,31.8333 23.5,32.5C 22.8333,32.5 22.5,32.8333 22.5,33.5C 21.8365,35.0419 21.1698,36.7086 20.5,38.5C 18.9466,39.439 17.6133,40.6057 16.5,42C 20.824,45.3368 22.4907,49.8368 21.5,55.5C 21.1667,55.5 20.8333,55.5 20.5,55.5C 18.6921,56.9179 18.0254,58.9179 18.5,61.5C 11.4186,58.0863 6.41862,52.7529 3.5,45.5C 5.01922,42.9795 6.68589,40.4795 8.5,38C 12.5,35.3333 16.5,32.6667 20.5,30C 21.9285,29.4209 23.2618,29.5876 24.5,30.5 Z"/></g>
<g><path style="opacity:0.999" fill="#2c2c42" d="M 39.5,55.5 C 36.5,55.5 33.5,55.5 30.5,55.5C 28.1667,55.5 25.8333,55.5 23.5,55.5C 23.1826,52.4281 23.5159,49.4281 24.5,46.5C 29.4848,47.7148 34.4848,47.7148 39.5,46.5C 39.5,49.5 39.5,52.5 39.5,55.5 Z"/></g>
<g><path style="opacity:1" fill="#edab47" d="M 20.5,55.5 C 20.5,56.8333 20.5,58.1667 20.5,59.5C 21.5,59.5 22.5,59.5 23.5,59.5C 23.5,58.1667 23.5,56.8333 23.5,55.5C 25.8333,55.5 28.1667,55.5 30.5,55.5C 29.7347,58.0961 29.4013,60.7628 29.5,63.5C 27.5,63.5 25.5,63.5 23.5,63.5C 22.0697,62.4625 20.403,61.7959 18.5,61.5C 18.0254,58.9179 18.6921,56.9179 20.5,55.5 Z"/></g>
<g><path style="opacity:0.941" fill="#f4c666" d="M 30.5,55.5 C 33.5,55.5 36.5,55.5 39.5,55.5C 40.5,62.1667 41.5,62.1667 42.5,55.5C 43.9348,56.9133 44.9348,58.58 45.5,60.5C 43.5,61.5 41.5,62.5 39.5,63.5C 36.1667,63.5 32.8333,63.5 29.5,63.5C 29.4013,60.7628 29.7347,58.0961 30.5,55.5 Z"/></g>
<g><path style="opacity:1" fill="#d2d8db" d="M 20.5,55.5 C 20.8333,55.5 21.1667,55.5 21.5,55.5C 22.1667,55.5 22.8333,55.5 23.5,55.5C 23.5,56.8333 23.5,58.1667 23.5,59.5C 22.5,59.5 21.5,59.5 20.5,59.5C 20.5,58.1667 20.5,56.8333 20.5,55.5 Z"/></g>
<g><path style="opacity:1" fill="#d5dada" d="M 39.5,55.5 C 40.1667,55.5 40.8333,55.5 41.5,55.5C 41.8333,55.5 42.1667,55.5 42.5,55.5C 41.5,62.1667 40.5,62.1667 39.5,55.5 Z"/></g>
</svg>
