<?xml version="1.0" encoding="UTF-8"?>
<!DOCTYPE svg PUBLIC "-//W3C//DTD SVG 1.1//EN" "http://www.w3.org/Graphics/SVG/1.1/DTD/svg11.dtd">
<svg xmlns="http://www.w3.org/2000/svg" version="1.1" width="128px" height="128px" style="shape-rendering:geometricPrecision; text-rendering:geometricPrecision; image-rendering:optimizeQuality; fill-rule:evenodd; clip-rule:evenodd" xmlns:xlink="http://www.w3.org/1999/xlink">
<g><path style="opacity:0.92" fill="#588156" d="M 88.5,-0.5 C 90.1667,-0.5 91.8333,-0.5 93.5,-0.5C 97.447,4.41086 99.447,10.0775 99.5,16.5C 97.8333,16.5 96.1667,16.5 94.5,16.5C 94.6718,11.8458 93.1718,7.84582 90,4.5C 86.0278,6.90367 81.6944,7.90367 77,7.5C 71.5496,7.40205 66.2163,6.73538 61,5.5C 56.5919,8.56455 51.7585,10.7312 46.5,12C 44.9588,13.5793 43.7922,15.4127 43,17.5C 42.3333,21.8333 42.3333,26.1667 43,30.5C 46.3896,27.9308 49.5562,25.2642 52.5,22.5C 64.3614,29.2166 76.8614,31.2166 90,28.5C 91.6258,26.0829 93.1258,23.5829 94.5,21C 97.6667,20.1667 98.8333,21.3333 98,24.5C 96.8773,27.2487 95.3773,29.7487 93.5,32C 97.6538,35.435 98.4871,39.6017 96,44.5C 93.7051,47.0648 90.8718,48.7314 87.5,49.5C 85.2069,53.7576 82.2069,57.4242 78.5,60.5C 77.52,63.0865 77.1866,65.7531 77.5,68.5C 84.5847,69.5206 91.5847,71.0206 98.5,73C 103.962,76.7484 107.295,81.9151 108.5,88.5C 112.888,87.9433 116.055,89.6099 118,93.5C 118.667,103.167 118.667,112.833 118,122.5C 117.003,124.323 115.836,125.99 114.5,127.5C 80.5,127.5 46.5,127.5 12.5,127.5C 11.1639,125.99 9.99728,124.323 9,122.5C 8.33333,112.833 8.33333,103.167 9,93.5C 10.9449,89.6099 14.1116,87.9433 18.5,88.5C 19.6917,81.9494 23.0251,76.7828 28.5,73C 35.4153,71.0206 42.4153,69.5206 49.5,68.5C 49.8134,65.7531 49.48,63.0865 48.5,60.5C 44.7931,57.4242 41.7931,53.7576 39.5,49.5C 30.5282,47.2307 27.8615,41.8974 31.5,33.5C 33.1792,32.218 35.0126,31.218 37,30.5C 36.9866,23.9726 37.9866,17.6392 40,11.5C 41.1667,10.3333 42.3333,9.16667 43.5,8C 48.1221,6.57296 52.4554,4.57296 56.5,2C 63.5751,1.3395 70.5751,1.8395 77.5,3.5C 81.6396,3.15475 85.3062,1.82141 88.5,-0.5 Z M 52.5,28.5 C 62.7535,32.6178 73.4201,34.9511 84.5,35.5C 84.3389,52.1602 76.0056,60.6602 59.5,61C 47.6927,56.3946 42.3593,47.8946 43.5,35.5C 47.4024,34.2574 50.4024,31.924 52.5,28.5 Z M 36.5,35.5 C 37.6341,37.9664 37.8007,40.633 37,43.5C 34.0544,40.8919 33.8877,38.2252 36.5,35.5 Z M 89.5,35.5 C 93.2714,37.7848 93.4381,40.4514 90,43.5C 89.5026,40.854 89.3359,38.1873 89.5,35.5 Z M 54.5,64.5 C 60.3342,67.1335 66.1675,67.1335 72,64.5C 72.8249,66.7008 72.3249,68.5341 70.5,70C 68.301,71.6971 65.9676,73.1971 63.5,74.5C 60.528,72.6944 57.6947,70.6944 55,68.5C 54.51,67.2068 54.3433,65.8734 54.5,64.5 Z M 49.5,72.5 C 52.8327,73.6409 55.8327,75.4742 58.5,78C 56.9194,78.7065 55.4194,79.5399 54,80.5C 51.7911,78.6266 49.9578,76.46 48.5,74C 49.056,73.6174 49.3893,73.1174 49.5,72.5 Z M 74.5,72.5 C 76.1033,72.3118 77.4366,72.8118 78.5,74C 77.0422,76.46 75.2089,78.6266 73,80.5C 71.5806,79.5399 70.0806,78.7065 68.5,78C 70.7632,76.383 72.7632,74.5497 74.5,72.5 Z M 40.5,74.5 C 41.2389,74.369 41.9056,74.5357 42.5,75C 45.7007,79.1965 49.2007,83.0298 53,86.5C 56.2922,84.4376 59.7922,82.7709 63.5,81.5C 66.7737,82.4702 69.7737,83.9702 72.5,86C 73.5,86.6667 74.5,86.6667 75.5,86C 78.6758,81.9935 82.0092,78.1602 85.5,74.5C 94.4401,74.9533 100.44,79.2866 103.5,87.5C 91.1801,88.3326 78.8468,88.8326 66.5,89C 65.6634,90.0113 65.33,91.1779 65.5,92.5C 81.2377,92.0467 96.9043,92.5467 112.5,94C 113.65,103.089 113.817,112.255 113,121.5C 112.5,122 112,122.5 111.5,123C 79.5,123.667 47.5,123.667 15.5,123C 15,122.5 14.5,122 14,121.5C 13.183,112.255 13.3497,103.089 14.5,94C 30.0957,92.5467 45.7623,92.0467 61.5,92.5C 61.5,91.1667 61.5,89.8333 61.5,88.5C 48.8158,88.8324 36.1492,88.4991 23.5,87.5C 26.4307,79.5399 32.0973,75.2065 40.5,74.5 Z"/></g>
<g><path style="opacity:0.868" fill="#588555" d="M 51.5,37.5 C 52.8333,37.5 54.1667,37.5 55.5,37.5C 55.9358,40.3641 55.1025,42.6975 53,44.5C 51.6485,42.4062 51.1485,40.0728 51.5,37.5 Z"/></g>
<g><path style="opacity:0.86" fill="#588456" d="M 71.5,37.5 C 72.8333,37.5 74.1667,37.5 75.5,37.5C 75.8515,40.0728 75.3515,42.4062 74,44.5C 71.8975,42.6975 71.0642,40.3641 71.5,37.5 Z"/></g>
<g><path style="opacity:0.874" fill="#588057" d="M 58.5,50.5 C 61.8333,50.5 65.1667,50.5 68.5,50.5C 69.1762,54.4905 67.5095,56.1571 63.5,55.5C 59.4905,56.1571 57.8238,54.4905 58.5,50.5 Z"/></g>
<g><path style="opacity:0.888" fill="#588256" d="M 77.5,98.5 C 78.8734,98.3433 80.2068,98.51 81.5,99C 83.4579,101.748 85.2912,104.582 87,107.5C 87.3333,104.833 87.6667,102.167 88,99.5C 89.0495,98.4829 90.2161,98.3162 91.5,99C 92.8333,105 92.8333,111 91.5,117C 87.665,116.54 84.8317,114.373 83,110.5C 83.497,114.894 81.6637,117.228 77.5,117.5C 77.5,111.167 77.5,104.833 77.5,98.5 Z"/></g>
<g><path style="opacity:0.915" fill="#588356" d="M 25.5,98.5 C 30.1412,98.1078 32.4745,100.108 32.5,104.5C 29.0897,103.064 25.923,103.397 23,105.5C 21.5823,109.442 22.9157,111.775 27,112.5C 28.582,110.971 30.4153,110.471 32.5,111C 33.4454,115.083 31.6121,117.25 27,117.5C 17.1943,115.051 15.0276,109.551 20.5,101C 22.3146,100.243 23.9812,99.4098 25.5,98.5 Z"/></g>
<g><path style="opacity:0.915" fill="#578156" d="M 39.5,98.5 C 40.4959,98.4142 41.3292,98.7476 42,99.5C 42.499,103.821 42.6657,108.154 42.5,112.5C 46.6759,111.831 48.0093,113.331 46.5,117C 43.9009,117.769 41.4009,117.602 39,116.5C 38.2124,110.418 38.379,104.418 39.5,98.5 Z"/></g>
<g><path style="opacity:0.912" fill="#588157" d="M 53.5,98.5 C 54.4959,98.4142 55.3292,98.7476 56,99.5C 56.6667,105.167 56.6667,110.833 56,116.5C 55,117.833 54,117.833 53,116.5C 52.2124,110.418 52.379,104.418 53.5,98.5 Z"/></g>
<g><path style="opacity:0.874" fill="#578256" d="M 61.5,99.5 C 65.1064,99.2108 68.6064,99.5442 72,100.5C 72.6172,101.449 72.4506,102.282 71.5,103C 65.7707,103.672 65.4374,104.672 70.5,106C 71.8333,107.333 71.8333,108.667 70.5,110C 69.062,110.219 67.7287,110.719 66.5,111.5C 68.9109,112.088 70.9109,113.255 72.5,115C 69.3608,117.664 65.8608,118.164 62,116.5C 61.5006,110.843 61.3339,105.176 61.5,99.5 Z"/></g>
<g><path style="opacity:0.934" fill="#588256" d="M 98.5,98.5 C 101.85,98.335 105.183,98.5017 108.5,99C 110.161,102.15 109.161,103.65 105.5,103.5C 105.666,107.846 105.499,112.179 105,116.5C 103.286,117.925 101.953,117.592 101,115.5C 100.501,111.514 100.334,107.514 100.5,103.5C 99.5,103.5 98.5,103.5 97.5,103.5C 97.366,101.708 97.6993,100.042 98.5,98.5 Z"/></g>
</svg>
