<?xml version="1.0" encoding="UTF-8"?>
<!DOCTYPE svg PUBLIC "-//W3C//DTD SVG 1.1//EN" "http://www.w3.org/Graphics/SVG/1.1/DTD/svg11.dtd">
<svg xmlns="http://www.w3.org/2000/svg" version="1.1" width="128px" height="128px" style="shape-rendering:geometricPrecision; text-rendering:geometricPrecision; image-rendering:optimizeQuality; fill-rule:evenodd; clip-rule:evenodd" xmlns:xlink="http://www.w3.org/1999/xlink">
<g><path style="opacity:0.984" fill="#588156" d="M 77.5,-0.5 C 91.5,-0.5 105.5,-0.5 119.5,-0.5C 122.5,1.83333 125.167,4.5 127.5,7.5C 127.5,21.5 127.5,35.5 127.5,49.5C 126.12,52.7735 124.62,56.1068 123,59.5C 100.272,82.3954 77.4384,105.062 54.5,127.5C 50.8333,127.5 47.1667,127.5 43.5,127.5C 27.8333,113.833 13.1667,99.1667 -0.5,83.5C -0.5,79.8333 -0.5,76.1667 -0.5,72.5C 21.9379,49.5616 44.6046,26.7283 67.5,4C 70.8932,2.37997 74.2265,0.879972 77.5,-0.5 Z M 101.5,20.5 C 106.159,20.0146 107.492,21.848 105.5,26C 101.272,26.2717 99.9383,24.4383 101.5,20.5 Z M 82.5,24.5 C 83.675,24.281 84.675,24.6143 85.5,25.5C 82.632,28.5315 79.9653,31.6982 77.5,35C 78.9633,37.6312 80.9633,39.7979 83.5,41.5C 85.4829,40.018 87.3163,38.3513 89,36.5C 89.5,37 90,37.5 90.5,38C 83.9542,43.5035 84.9542,47.1701 93.5,49C 96.0159,46.3167 98.6826,43.8167 101.5,41.5C 102.308,41.8076 102.975,42.3076 103.5,43C 99.6516,47.0156 95.6516,50.8489 91.5,54.5C 84.8333,48.5 78.5,42.1667 72.5,35.5C 75.8554,31.8133 79.1887,28.1466 82.5,24.5 Z M 60.5,46.5 C 66.4796,52.1451 72.4796,57.8117 78.5,63.5C 80.9837,61.517 83.3171,59.3504 85.5,57C 86.7248,56.4372 87.7248,56.7705 88.5,58C 84.9848,61.6824 81.3181,65.1824 77.5,68.5C 71.1812,62.6815 65.0145,56.6815 59,50.5C 58.7003,48.9343 59.2003,47.601 60.5,46.5 Z M 47.5,58.5 C 57.1224,61.4774 66.1224,65.8108 74.5,71.5C 73.8551,72.646 73.0217,73.646 72,74.5C 70.2467,73.373 68.4134,72.373 66.5,71.5C 64.1831,73.316 62.0165,75.316 60,77.5C 60.0789,79.8463 60.9123,82.013 62.5,84C 61.6667,84.8333 60.8333,85.6667 60,86.5C 55.4135,78.9955 51.0801,71.3288 47,63.5C 46.6155,61.8034 46.7822,60.1368 47.5,58.5 Z M 37.5,70.5 C 38.9221,70.7496 39.9221,71.583 40.5,73C 35.4667,74.3446 33.3,77.5112 34,82.5C 34.8926,83.0814 35.8926,83.4148 37,83.5C 40.6998,81.8167 44.5332,80.9834 48.5,81C 56.8236,85.3207 57.4902,90.654 50.5,97C 48.6494,97.8372 46.8161,98.6705 45,99.5C 43.2942,98.6921 42.4609,97.3588 42.5,95.5C 47.2859,95.7464 50.2859,93.5797 51.5,89C 50.8759,86.7095 49.3759,85.5428 47,85.5C 43.4731,86.3977 39.9731,87.3977 36.5,88.5C 29.6092,86.8381 27.7759,82.8381 31,76.5C 32.914,74.1435 35.0807,72.1435 37.5,70.5 Z"/></g>
<g><path style="opacity:0.884" fill="#588157" d="M 51.5,63.5 C 55.9249,64.8792 59.9249,67.0458 63.5,70C 61.6667,71.8333 59.8333,73.6667 58,75.5C 55.5542,71.6056 53.3876,67.6056 51.5,63.5 Z"/></g>
</svg>
