<?xml version="1.0" encoding="UTF-8"?>
<!DOCTYPE svg PUBLIC "-//W3C//DTD SVG 1.1//EN" "http://www.w3.org/Graphics/SVG/1.1/DTD/svg11.dtd">
<svg xmlns="http://www.w3.org/2000/svg" version="1.1" width="128px" height="128px" style="shape-rendering:geometricPrecision; text-rendering:geometricPrecision; image-rendering:optimizeQuality; fill-rule:evenodd; clip-rule:evenodd" xmlns:xlink="http://www.w3.org/1999/xlink">
<g><path style="opacity:0.967" fill="#5d855c" d="M 95.5,62.5 C 95.3893,63.1174 95.056,63.6174 94.5,64C 64.8333,64.3333 35.1667,64.6667 5.5,65C 4.16667,66.3333 4.16667,67.6667 5.5,69C 44.1667,69.6667 82.8333,69.6667 121.5,69C 122.833,67.6667 122.833,66.3333 121.5,65C 113.898,65.0806 106.564,64.2473 99.5,62.5C 99.6107,61.8826 99.944,61.3826 100.5,61C 107.833,60.3333 115.167,60.3333 122.5,61C 127.565,64.9162 127.732,69.0829 123,73.5C 122.667,89.5 122.333,105.5 122,121.5C 121.215,123.286 120.049,124.786 118.5,126C 81.8333,126.667 45.1667,126.667 8.5,126C 6.95118,124.786 5.78451,123.286 5,121.5C 4.66667,105.5 4.33333,89.5 4,73.5C -1.11282,67.8458 -0.279486,63.1791 6.5,59.5C 7.4385,52.9314 11.1052,48.9314 17.5,47.5C 18.4287,46.3112 18.762,44.9778 18.5,43.5C 21.3289,43.3249 22.9955,44.6582 23.5,47.5C 29.8905,49.5492 33.2238,53.8825 33.5,60.5C 35.5,60.5 37.5,60.5 39.5,60.5C 39.3341,55.4889 39.5007,50.4889 40,45.5C 41.0608,42.4384 42.8941,39.9384 45.5,38C 44.8742,37.2496 44.3742,36.4162 44,35.5C 43.1439,27.7682 43.4772,20.1016 45,12.5C 52.4055,0.146274 62.5722,-2.68706 75.5,4C 81.8924,9.7095 84.5591,16.8762 83.5,25.5C 83.6984,29.8582 83.0317,34.0249 81.5,38C 84.4668,40.1005 86.3002,42.9338 87,46.5C 87.4992,51.1548 87.6658,55.8215 87.5,60.5C 90.6981,59.9644 93.3647,60.631 95.5,62.5 Z"/></g>
<g><path style="opacity:1" fill="#f6f8f6" d="M 59.5,4.5 C 73.4252,4.25848 80.0919,11.0918 79.5,25C 79.3333,27.8333 79.1667,30.6667 79,33.5C 78.3005,35.032 77.1338,36.032 75.5,36.5C 74.6697,30.5275 74.1697,24.5275 74,18.5C 70.7391,16.2666 67.0724,15.2666 63,15.5C 59.2043,15.1385 55.871,16.1385 53,18.5C 52.8303,24.5275 52.3303,30.5275 51.5,36.5C 50.3279,36.0814 49.3279,35.4147 48.5,34.5C 44.0563,21.1864 47.723,11.1864 59.5,4.5 Z"/></g>
<g><path style="opacity:1" fill="#fafbfa" d="M 56.5,19.5 C 61.1667,19.5 65.8333,19.5 70.5,19.5C 70.8275,24.544 70.4941,29.544 69.5,34.5C 65.5,35.8333 61.5,35.8333 57.5,34.5C 56.5059,29.544 56.1725,24.544 56.5,19.5 Z"/></g>
<g><path style="opacity:1" fill="#f2f6f2" d="M 51.5,39.5 C 53.1667,39.5 54.8333,39.5 56.5,39.5C 55.8752,43.5837 57.3752,46.5837 61,48.5C 61.499,52.8206 61.6657,57.1539 61.5,61.5C 58.5,61.5 55.5,61.5 52.5,61.5C 52.5,57.5 52.5,53.5 52.5,49.5C 51.5,49.5 50.5,49.5 49.5,49.5C 49.5,53.5 49.5,57.5 49.5,61.5C 47.5,61.5 45.5,61.5 43.5,61.5C 42.872,55.2376 43.7054,49.2376 46,43.5C 48.0153,42.3034 49.8487,40.9701 51.5,39.5 Z"/></g>
<g><path style="opacity:1" fill="#f1f4f1" d="M 59.5,39.5 C 62.1667,39.5 64.8333,39.5 67.5,39.5C 66.6615,44.6677 64.1615,45.6677 60,42.5C 59.5172,41.552 59.3505,40.552 59.5,39.5 Z"/></g>
<g><path style="opacity:1" fill="#f2f5f2" d="M 70.5,39.5 C 76.3751,39.5487 80.5417,42.2154 83,47.5C 83.4992,52.1548 83.6658,56.8215 83.5,61.5C 81.5,61.5 79.5,61.5 77.5,61.5C 77.5,57.5 77.5,53.5 77.5,49.5C 76.5,49.5 75.5,49.5 74.5,49.5C 74.5,53.5 74.5,57.5 74.5,61.5C 71.5,61.5 68.5,61.5 65.5,61.5C 65.1734,56.7863 65.5067,52.1196 66.5,47.5C 69.893,45.9374 71.2263,43.2708 70.5,39.5 Z"/></g>
<g><path style="opacity:1" fill="#fafbfa" d="M 29.5,60.5 C 23.0738,61.12 17.0738,60.4533 11.5,58.5C 15.6979,50.55 21.1979,49.55 28,55.5C 29.0086,57.0249 29.5086,58.6916 29.5,60.5 Z"/></g>
<g><path style="opacity:1" fill="#acc0ac" d="M 11.5,58.5 C 17.0738,60.4533 23.0738,61.12 29.5,60.5C 23.3554,61.4902 17.0221,61.8235 10.5,61.5C 10.2627,60.209 10.596,59.209 11.5,58.5 Z"/></g>
<g><path style="opacity:0.999" fill="#f6f8f6" d="M 95.5,62.5 C 96.8333,62.5 98.1667,62.5 99.5,62.5C 106.564,64.2473 113.898,65.0806 121.5,65C 122.833,66.3333 122.833,67.6667 121.5,69C 82.8333,69.6667 44.1667,69.6667 5.5,69C 4.16667,67.6667 4.16667,66.3333 5.5,65C 35.1667,64.6667 64.8333,64.3333 94.5,64C 95.056,63.6174 95.3893,63.1174 95.5,62.5 Z"/></g>
<g><path style="opacity:1" fill="#fafbfa" d="M 9.5,73.5 C 45.5,73.5 81.5,73.5 117.5,73.5C 117.825,89.7442 117.491,105.911 116.5,122C 81.1667,122.667 45.8333,122.667 10.5,122C 9.50857,105.911 9.17524,89.7442 9.5,73.5 Z"/></g>
<g><path style="opacity:1" fill="#60875f" d="M 21.5,78.5 C 24.5,78.5 27.5,78.5 30.5,78.5C 30.5,79.8333 30.5,81.1667 30.5,82.5C 25.4645,81.5021 21.2978,82.8354 18,86.5C 17.3333,93.8333 17.3333,101.167 18,108.5C 18.7845,110.286 19.9512,111.786 21.5,113C 42.8333,113.333 64.1667,113.667 85.5,114C 86.8333,115 86.8333,116 85.5,117C 64.1667,117.667 42.8333,117.667 21.5,117C 18.6667,115.5 16.5,113.333 15,110.5C 14.3333,101.833 14.3333,93.1667 15,84.5C 16.4936,81.6865 18.6603,79.6865 21.5,78.5 Z"/></g>
<g><path style="opacity:1" fill="#60875f" d="M 36.5,78.5 C 59.1691,78.3334 81.8358,78.5 104.5,79C 107.625,79.9794 110.125,81.8127 112,84.5C 112.667,93.1667 112.667,101.833 112,110.5C 110.878,112.624 109.378,114.457 107.5,116C 102.589,117.492 97.5893,117.826 92.5,117C 91.1667,116 91.1667,115 92.5,114C 96.5,113.667 100.5,113.333 104.5,113C 106.667,112.167 108.167,110.667 109,108.5C 109.667,101.167 109.667,93.8333 109,86.5C 107.833,85.3333 106.667,84.1667 105.5,83C 82.5024,82.5 59.5024,82.3334 36.5,82.5C 36.5,81.1667 36.5,79.8333 36.5,78.5 Z"/></g>
<g><path style="opacity:1" fill="#598258" d="M 27.5,88.5 C 27.5,91.1667 27.5,93.8333 27.5,96.5C 29.5,96.5 31.5,96.5 33.5,96.5C 33.5,93.8333 33.5,91.1667 33.5,88.5C 34.209,87.596 35.209,87.2627 36.5,87.5C 36.6663,94.175 36.4996,100.842 36,107.5C 35.0228,108.774 34.1894,108.774 33.5,107.5C 33.5,104.833 33.5,102.167 33.5,99.5C 31.5,99.5 29.5,99.5 27.5,99.5C 27.5,102.167 27.5,104.833 27.5,107.5C 26.791,108.404 25.791,108.737 24.5,108.5C 24.5,101.5 24.5,94.5 24.5,87.5C 25.791,87.2627 26.791,87.596 27.5,88.5 Z"/></g>
<g><path style="opacity:1" fill="#648a63" d="M 44.5,87.5 C 48.6838,86.7036 51.8504,88.037 54,91.5C 54.6667,95.8333 54.6667,100.167 54,104.5C 49.9021,109.804 45.9021,109.804 42,104.5C 41.3333,100.167 41.3333,95.8333 42,91.5C 42.6622,90.0161 43.4955,88.6828 44.5,87.5 Z"/></g>
<g><path style="opacity:1" fill="#638962" d="M 59.5,87.5 C 63.5,87.5 67.5,87.5 71.5,87.5C 71.8333,90.5 70.5,91.8333 67.5,91.5C 67.666,96.8437 67.4994,102.177 67,107.5C 66,108.833 65,108.833 64,107.5C 63.5006,102.177 63.334,96.8437 63.5,91.5C 60.5,91.8333 59.1667,90.5 59.5,87.5 Z"/></g>
<g><path style="opacity:1" fill="#628961" d="M 77.5,87.5 C 80.8333,87.5 84.1667,87.5 87.5,87.5C 87.67,88.8221 87.3366,89.9887 86.5,91C 84.5273,91.4955 82.5273,91.6621 80.5,91.5C 80.5,93.1667 80.5,94.8333 80.5,96.5C 82.5,96.5 84.5,96.5 86.5,96.5C 86.5,97.5 86.5,98.5 86.5,99.5C 84.5,99.5 82.5,99.5 80.5,99.5C 80.5,101.167 80.5,102.833 80.5,104.5C 82.5273,104.338 84.5273,104.505 86.5,105C 87.8333,106 87.8333,107 86.5,108C 83.2397,108.784 80.0731,108.617 77,107.5C 76.2075,100.753 76.3742,94.0859 77.5,87.5 Z"/></g>
<g><path style="opacity:1" fill="#648a63" d="M 92.5,87.5 C 93.8221,87.33 94.9887,87.6634 96,88.5C 96.4994,93.8229 96.666,99.1563 96.5,104.5C 98.5,104.5 100.5,104.5 102.5,104.5C 102.5,105.833 102.5,107.167 102.5,108.5C 99.2234,108.784 96.0567,108.451 93,107.5C 92.5004,100.842 92.3337,94.175 92.5,87.5 Z"/></g>
<g><path style="opacity:1" fill="#f9faf9" d="M 45.5,91.5 C 47.1439,91.2865 48.6439,91.6198 50,92.5C 50.6667,96.1667 50.6667,99.8333 50,103.5C 48.6667,104.833 47.3333,104.833 46,103.5C 45.5012,99.5138 45.3345,95.5138 45.5,91.5 Z"/></g>
<g><path style="opacity:1" fill="#aabfa9" d="M 27.5,88.5 C 28.4682,90.6074 28.8016,92.9407 28.5,95.5C 29.8333,95.5 31.1667,95.5 32.5,95.5C 32.1984,92.9407 32.5318,90.6074 33.5,88.5C 33.5,91.1667 33.5,93.8333 33.5,96.5C 31.5,96.5 29.5,96.5 27.5,96.5C 27.5,93.8333 27.5,91.1667 27.5,88.5 Z"/></g>
<g><path style="opacity:1" fill="#a7bca6" d="M 33.5,107.5 C 32.5318,105.393 32.1984,103.059 32.5,100.5C 31.1667,100.5 29.8333,100.5 28.5,100.5C 28.8016,103.059 28.4682,105.393 27.5,107.5C 27.5,104.833 27.5,102.167 27.5,99.5C 29.5,99.5 31.5,99.5 33.5,99.5C 33.5,102.167 33.5,104.833 33.5,107.5 Z"/></g>
</svg>
