<?xml version="1.0" encoding="UTF-8"?>
<!DOCTYPE svg PUBLIC "-//W3C//DTD SVG 1.1//EN" "http://www.w3.org/Graphics/SVG/1.1/DTD/svg11.dtd">
<svg xmlns="http://www.w3.org/2000/svg" version="1.1" width="64px" height="64px" style="shape-rendering:geometricPrecision; text-rendering:geometricPrecision; image-rendering:optimizeQuality; fill-rule:evenodd; clip-rule:evenodd" xmlns:xlink="http://www.w3.org/1999/xlink">
<g><path style="opacity:0.893" fill="#ea3826" d="M 24.5,-0.5 C 29.1667,-0.5 33.8333,-0.5 38.5,-0.5C 49.1966,4.89303 53.5299,13.5597 51.5,25.5C 50.5275,23.8608 49.1942,22.5274 47.5,21.5C 46.3244,9.32175 39.6577,3.65508 27.5,4.5C 26.1007,3.11028 24.4341,2.11028 22.5,1.5C 23.1667,0.833333 23.8333,0.166667 24.5,-0.5 Z"/></g>
<g><path style="opacity:0.826" fill="#ef5920" d="M 22.5,1.5 C 24.4341,2.11028 26.1007,3.11028 27.5,4.5C 23.2512,6.08819 19.9179,8.75485 17.5,12.5C 17.9118,10.0274 16.9118,8.69408 14.5,8.5C 15.9527,4.77443 18.6194,2.4411 22.5,1.5 Z"/></g>
<g><path style="opacity:0.98" fill="#ed4b23" d="M 42.5,24.5 C 41.5275,22.8608 40.1942,21.5274 38.5,20.5C 37.4308,14.6487 34.0975,12.3154 28.5,13.5C 26.7376,12.7377 25.7376,11.4044 25.5,9.5C 33.4554,6.28893 39.2888,8.62226 43,16.5C 43.6015,19.2205 43.4349,21.8872 42.5,24.5 Z"/></g>
<g><path style="opacity:0.973" fill="#f1741c" d="M 14.5,8.5 C 16.9118,8.69408 17.9118,10.0274 17.5,12.5C 15.6818,16.0785 15.3485,19.7452 16.5,23.5C 14.8712,22.3747 13.3712,21.0414 12,19.5C 11.6174,20.056 11.1174,20.3893 10.5,20.5C 10.7166,16.0219 12.0499,12.0219 14.5,8.5 Z"/></g>
<g><path style="opacity:0.857" fill="#f0691e" d="M 25.5,9.5 C 25.7376,11.4044 26.7376,12.7377 28.5,13.5C 23.972,16.9334 23.6387,20.7667 27.5,25C 32.7165,27.3939 36.3832,25.8939 38.5,20.5C 40.1942,21.5274 41.5275,22.8608 42.5,24.5C 35.7704,33.3688 28.6037,33.7021 21,25.5C 18.1528,18.8904 19.6528,13.5571 25.5,9.5 Z"/></g>
<g><path style="opacity:0.942" fill="#f58b18" d="M 16.5,23.5 C 18.7257,32.9453 23.7257,40.612 31.5,46.5C 32.8518,45.4756 34.1851,44.4756 35.5,43.5C 37.2624,44.2623 38.2624,45.5956 38.5,47.5C 35.3598,52.7869 31.3598,53.6202 26.5,50C 17.8948,41.9572 12.5614,32.1239 10.5,20.5C 11.1174,20.3893 11.6174,20.056 12,19.5C 13.3712,21.0414 14.8712,22.3747 16.5,23.5 Z"/></g>
<g><path style="opacity:0.932" fill="#ef5b20" d="M 47.5,21.5 C 49.1942,22.5274 50.5275,23.8608 51.5,25.5C 49.8682,31.4304 47.2015,36.7637 43.5,41.5C 42.8333,39.8333 42.1667,38.1667 41.5,36.5C 43.8239,31.5352 45.8239,26.5352 47.5,21.5 Z"/></g>
<g><path style="opacity:0.885" fill="#f2731c" d="M 41.5,36.5 C 42.1667,38.1667 42.8333,39.8333 43.5,41.5C 41.823,43.5398 40.1563,45.5398 38.5,47.5C 38.2624,45.5956 37.2624,44.2623 35.5,43.5C 37.2733,40.9401 39.2733,38.6068 41.5,36.5 Z"/></g>
<g><path style="opacity:0.873" fill="#f16a1d" d="M 52.5,60.5 C 51.5,59.1667 50.5,57.8333 49.5,56.5C 51.9661,56.1013 53.9661,54.9347 55.5,53C 52.7073,50.3933 49.374,48.7267 45.5,48C 44.1667,46.6667 44.1667,45.3333 45.5,44C 52.9302,43.3794 58.2635,46.3794 61.5,53C 60.1459,57.5241 57.1459,60.0241 52.5,60.5 Z"/></g>
<g><path style="opacity:0.825" fill="#f8a812" d="M 11.5,49.5 C 10.7377,47.7376 9.40435,46.7376 7.5,46.5C 10.3863,44.1538 13.7197,43.3204 17.5,44C 18.8333,45.3333 18.8333,46.6667 17.5,48C 15.5643,48.813 13.5643,49.313 11.5,49.5 Z"/></g>
<g><path style="opacity:0.908" fill="#fbbd0f" d="M 7.5,46.5 C 9.40435,46.7376 10.7377,47.7376 11.5,49.5C 10.019,50.4212 8.68562,51.5879 7.5,53C 9.71165,55.2734 12.3783,56.7734 15.5,57.5C 17.1667,59.5 18.8333,61.5 20.5,63.5C 19.8333,63.5 19.1667,63.5 18.5,63.5C 14.9207,62.4754 11.2541,61.3088 7.5,60C -0.475633,55.3137 -0.475633,50.8137 7.5,46.5 Z"/></g>
<g><path style="opacity:1" fill="#f8a913" d="M 15.5,57.5 C 22.5571,58.6305 29.5571,58.9638 36.5,58.5C 37.075,60.4113 38.075,62.078 39.5,63.5C 33.1667,63.5 26.8333,63.5 20.5,63.5C 18.8333,61.5 17.1667,59.5 15.5,57.5 Z"/></g>
<g><path style="opacity:0.982" fill="#f58a18" d="M 49.5,56.5 C 50.5,57.8333 51.5,59.1667 52.5,60.5C 49.9127,61.7487 47.246,62.7487 44.5,63.5C 42.8333,63.5 41.1667,63.5 39.5,63.5C 38.075,62.078 37.075,60.4113 36.5,58.5C 40.9836,58.5742 45.317,57.9075 49.5,56.5 Z"/></g>
</svg>
