<?xml version="1.0" encoding="UTF-8"?>
<!DOCTYPE svg PUBLIC "-//W3C//DTD SVG 1.1//EN" "http://www.w3.org/Graphics/SVG/1.1/DTD/svg11.dtd">
<svg xmlns="http://www.w3.org/2000/svg" version="1.1" width="512px" height="512px" style="shape-rendering:geometricPrecision; text-rendering:geometricPrecision; image-rendering:optimizeQuality; fill-rule:evenodd; clip-rule:evenodd" xmlns:xlink="http://www.w3.org/1999/xlink">
<g><path style="opacity:0.995" fill="#089eea" d="M 222.5,-0.5 C 302.5,-0.5 382.5,-0.5 462.5,-0.5C 415.043,14.5968 367.71,30.4302 320.5,47C 310.775,52.7272 303.941,60.8939 300,71.5C 298.841,196.958 298.007,322.291 297.5,447.5C 272.498,447.667 247.498,447.5 222.5,447C 195.106,440.606 177.94,423.773 171,396.5C 169.254,379.196 169.088,361.863 170.5,344.5C 200.486,315.014 230.32,285.347 260,255.5C 281.191,228.344 281.857,200.678 262,172.5C 231.333,141.833 200.667,111.167 170,80.5C 165.733,51.5656 174.9,28.0656 197.5,10C 205.457,5.34757 213.79,1.84757 222.5,-0.5 Z"/></g>
<g><path style="opacity:0.999" fill="#7ab7e8" d="M 462.5,-0.5 C 467.5,-0.5 472.5,-0.5 477.5,-0.5C 494.762,4.42962 506.096,15.4296 511.5,32.5C 511.5,166.833 511.5,301.167 511.5,435.5C 507.808,448.367 500.141,458.201 488.5,465C 442.429,480.635 396.429,496.135 350.5,511.5C 344.167,511.5 337.833,511.5 331.5,511.5C 312.541,506.368 301.375,494.035 298,474.5C 297.5,465.506 297.334,456.506 297.5,447.5C 298.007,322.291 298.841,196.958 300,71.5C 303.941,60.8939 310.775,52.7272 320.5,47C 367.71,30.4302 415.043,14.5968 462.5,-0.5 Z"/></g>
<g><path style="opacity:0.992" fill="#5eabe8" d="M -0.5,219.5 C -0.5,214.833 -0.5,210.167 -0.5,205.5C 2.31434,199.187 6.98101,194.687 13.5,192C 44.1649,191.5 74.8315,191.333 105.5,191.5C 105.04,167.448 105.54,143.448 107,119.5C 111.863,109.149 120.03,104.649 131.5,106C 136.048,106.94 140.048,108.94 143.5,112C 172,140.5 200.5,169 229,197.5C 235.447,206.415 236.113,215.748 231,225.5C 200.833,255.667 170.667,285.833 140.5,316C 127.423,322.71 116.59,320.21 108,308.5C 107.333,306.5 106.667,304.5 106,302.5C 105.5,279.836 105.333,257.169 105.5,234.5C 75.4981,234.667 45.4981,234.5 15.5,234C 7.39321,232.053 2.05987,227.22 -0.5,219.5 Z"/></g>
</svg>
