<?xml version="1.0" encoding="UTF-8"?>
<!DOCTYPE svg PUBLIC "-//W3C//DTD SVG 1.1//EN" "http://www.w3.org/Graphics/SVG/1.1/DTD/svg11.dtd">
<svg xmlns="http://www.w3.org/2000/svg" version="1.1" width="128px" height="128px" style="shape-rendering:geometricPrecision; text-rendering:geometricPrecision; image-rendering:optimizeQuality; fill-rule:evenodd; clip-rule:evenodd" xmlns:xlink="http://www.w3.org/1999/xlink">
<g><path style="opacity:0.99" fill="#e04f5f" d="M 51.5,-0.5 C 59.5,-0.5 67.5,-0.5 75.5,-0.5C 103.14,6.47339 120.473,23.8067 127.5,51.5C 127.5,59.5 127.5,67.5 127.5,75.5C 120.411,103.588 102.745,120.922 74.5,127.5C 67.1667,127.5 59.8333,127.5 52.5,127.5C 24.2818,120.949 6.61511,103.615 -0.5,75.5C -0.5,67.5 -0.5,59.5 -0.5,51.5C 6.5,23.8333 23.8333,6.5 51.5,-0.5 Z"/></g>
<g><path style="opacity:1" fill="#fefdfd" d="M 81.5,31.5 C 69.9933,30.1757 58.3266,30.1757 46.5,31.5C 46.6236,32.1067 46.9569,32.44 47.5,32.5C 53.4352,35.1355 59.1018,38.3022 64.5,42C 66.1412,43.129 67.1412,44.629 67.5,46.5C 67.5,60.5 67.5,74.5 67.5,88.5C 72.3633,88.8195 77.03,88.4861 81.5,87.5C 82.1174,87.3893 82.6174,87.056 83,86.5C 83.1971,81.9145 83.6971,77.4145 84.5,73C 86.1124,72.2797 87.6124,72.4464 89,73.5C 90.0116,79.3496 89.5116,85.0163 87.5,90.5C 85.7567,92.0383 83.7567,93.0383 81.5,93.5C 76.8333,93.5 72.1667,93.5 67.5,93.5C 67.5,95.5 67.5,97.5 67.5,99.5C 65.651,105.304 61.651,107.471 55.5,106C 47.575,101.79 40.075,96.9565 33,91.5C 32.3333,71.1667 32.3333,50.8333 33,30.5C 33.8333,28.3333 35.3333,26.8333 37.5,26C 52.8333,25.3333 68.1667,25.3333 83.5,26C 85.6238,27.1217 87.4571,28.6217 89,30.5C 89.6667,36.1667 89.6667,41.8333 89,47.5C 87.0624,48.8602 85.3957,48.5268 84,46.5C 83.6667,41.8333 83.3333,37.1667 83,32.5C 82.6174,31.944 82.1174,31.6107 81.5,31.5 Z"/></g>
<g><path style="opacity:1" fill="#f5c4ca" d="M 81.5,31.5 C 69.9877,31.1719 58.6544,31.5052 47.5,32.5C 46.9569,32.44 46.6236,32.1067 46.5,31.5C 58.3266,30.1757 69.9933,30.1757 81.5,31.5 Z"/></g>
<g><path style="opacity:1" fill="#ee9fa7" d="M 67.5,46.5 C 68.4957,59.9898 68.829,73.6565 68.5,87.5C 72.8333,87.5 77.1667,87.5 81.5,87.5C 77.03,88.4861 72.3633,88.8195 67.5,88.5C 67.5,74.5 67.5,60.5 67.5,46.5 Z"/></g>
<g><path style="opacity:1" fill="#fef8f8" d="M 92.5,48.5 C 97.7312,50.7274 101.731,54.394 104.5,59.5C 102.093,63.4148 99.0929,66.9148 95.5,70C 93.0752,70.9859 91.4085,70.3193 90.5,68C 91.4394,66.0561 92.7727,64.3894 94.5,63C 86.5876,62.8166 78.7543,62.3166 71,61.5C 70.2797,59.8876 70.4464,58.3876 71.5,57C 79.1667,56.6667 86.8333,56.3333 94.5,56C 92.981,54.6487 91.6477,53.1487 90.5,51.5C 91.1925,50.4822 91.8592,49.4822 92.5,48.5 Z"/></g>
<g><path style="opacity:1" fill="#e77b86" d="M 81.5,93.5 C 77.3656,94.4849 73.0323,94.8182 68.5,94.5C 68.7845,96.4147 68.4511,98.0813 67.5,99.5C 67.5,97.5 67.5,95.5 67.5,93.5C 72.1667,93.5 76.8333,93.5 81.5,93.5 Z"/></g>
</svg>
