<?xml version="1.0" encoding="UTF-8"?>
<!DOCTYPE svg PUBLIC "-//W3C//DTD SVG 1.1//EN" "http://www.w3.org/Graphics/SVG/1.1/DTD/svg11.dtd">
<svg xmlns="http://www.w3.org/2000/svg" version="1.1" width="128px" height="128px" style="shape-rendering:geometricPrecision; text-rendering:geometricPrecision; image-rendering:optimizeQuality; fill-rule:evenodd; clip-rule:evenodd" xmlns:xlink="http://www.w3.org/1999/xlink">
<g><path style="opacity:0.986" fill="#588157" d="M 56.5,19.5 C 76.6499,17.4828 85.4833,26.4828 83,46.5C 77.6574,57.7523 68.8241,61.9189 56.5,59C 45.2477,53.6574 41.0811,44.8241 44,32.5C 46.3531,26.3154 50.5198,21.982 56.5,19.5 Z"/></g>
<g><path style="opacity:0.984" fill="#578156" d="M 17.5,35.5 C 36.7785,34.6097 43.2785,43.2764 37,61.5C 30.0554,68.0693 22.2221,69.2359 13.5,65C 6.93072,58.0554 5.76405,50.2221 10,41.5C 12.1141,38.8792 14.6141,36.8792 17.5,35.5 Z"/></g>
<g><path style="opacity:0.984" fill="#578156" d="M 97.5,35.5 C 116.778,34.6097 123.278,43.2764 117,61.5C 110.055,68.0693 102.222,69.2359 93.5,65C 86.9307,58.0554 85.7641,50.2221 90,41.5C 92.1141,38.8792 94.6141,36.8792 97.5,35.5 Z"/></g>
<g><path style="opacity:0.994" fill="#578156" d="M 47.5,63.5 C 51.4848,64.4881 55.4848,65.4881 59.5,66.5C 59.3337,73.5079 59.5004,80.5079 60,87.5C 62.3333,91.5 64.6667,91.5 67,87.5C 67.4996,80.5079 67.6663,73.5079 67.5,66.5C 71.4993,65.3133 75.4993,64.48 79.5,64C 85.1485,67.7873 88.9818,72.954 91,79.5C 91.4998,88.8274 91.6665,98.1607 91.5,107.5C 72.8333,107.5 54.1667,107.5 35.5,107.5C 35.3335,98.1607 35.5002,88.8274 36,79.5C 38.1411,72.8595 41.9744,67.5262 47.5,63.5 Z"/></g>
<g><path style="opacity:0.992" fill="#578156" d="M 12.5,69.5 C 19.2662,70.4015 25.9329,70.7348 32.5,70.5C 31.0392,73.3819 29.8725,76.3819 29,79.5C 27.7687,88.7922 27.2687,98.1255 27.5,107.5C 19.5803,107.815 11.747,107.482 4,106.5C 3.33333,97.8333 3.33333,89.1667 4,80.5C 5.89765,76.0022 8.73098,72.3355 12.5,69.5 Z"/></g>
<g><path style="opacity:0.988" fill="#588156" d="M 94.5,69.5 C 101.159,70.5546 107.826,70.7213 114.5,70C 118.39,72.5962 121.223,76.0962 123,80.5C 123.667,89.1667 123.667,97.8333 123,106.5C 115.253,107.482 107.42,107.815 99.5,107.5C 100.551,94.4099 98.884,81.7433 94.5,69.5 Z"/></g>
</svg>
