<?xml version="1.0" encoding="UTF-8"?>
<!DOCTYPE svg PUBLIC "-//W3C//DTD SVG 1.1//EN" "http://www.w3.org/Graphics/SVG/1.1/DTD/svg11.dtd">
<svg xmlns="http://www.w3.org/2000/svg" version="1.1" width="128px" height="128px" style="shape-rendering:geometricPrecision; text-rendering:geometricPrecision; image-rendering:optimizeQuality; fill-rule:evenodd; clip-rule:evenodd" xmlns:xlink="http://www.w3.org/1999/xlink">
<g><path style="opacity:0.936" fill="#588156" d="M 22.5,-0.5 C 44.1667,-0.5 65.8333,-0.5 87.5,-0.5C 97.4944,9.66149 107.328,19.9948 117,30.5C 117.833,58.506 117.667,86.506 116.5,114.5C 112.571,115.433 108.571,115.766 104.5,115.5C 104.5,119.5 104.5,123.5 104.5,127.5C 73.1667,127.5 41.8333,127.5 10.5,127.5C 9.33987,87.9045 9.1732,48.2378 10,8.5C 14.0659,7.53632 18.2325,7.20299 22.5,7.5C 22.5,4.83333 22.5,2.16667 22.5,-0.5 Z M 27.5,4.5 C 45.8333,4.5 64.1667,4.5 82.5,4.5C 82.3335,14.1724 82.5002,23.8391 83,33.5C 92.7504,34.4856 102.584,34.819 112.5,34.5C 112.5,59.5 112.5,84.5 112.5,109.5C 84.1667,109.5 55.8333,109.5 27.5,109.5C 27.5,74.5 27.5,39.5 27.5,4.5 Z M 87.5,8.5 C 94.2982,14.7973 100.965,21.2973 107.5,28C 100.842,28.4996 94.175,28.6663 87.5,28.5C 87.5,21.8333 87.5,15.1667 87.5,8.5 Z M 14.5,12.5 C 17.1667,12.5 19.8333,12.5 22.5,12.5C 22.3333,46.5016 22.5,80.5016 23,114.5C 48.4255,115.495 73.9255,115.828 99.5,115.5C 99.5,117.833 99.5,120.167 99.5,122.5C 71.1667,122.5 42.8333,122.5 14.5,122.5C 14.5,85.8333 14.5,49.1667 14.5,12.5 Z M 40.5,23.5 C 43.1667,23.5 45.8333,23.5 48.5,23.5C 48.5,26.1667 48.5,28.8333 48.5,31.5C 45.8333,31.5 43.1667,31.5 40.5,31.5C 40.5,28.8333 40.5,26.1667 40.5,23.5 Z"/></g>
<g><path style="opacity:0.952" fill="#588157" d="M 35.5,18.5 C 41.1764,18.3339 46.8431,18.5006 52.5,19C 53.6389,24.4162 53.8056,29.9162 53,35.5C 47.5838,36.6389 42.0838,36.8056 36.5,36C 35.5251,30.2588 35.1918,24.4254 35.5,18.5 Z M 40.5,23.5 C 40.5,26.1667 40.5,28.8333 40.5,31.5C 43.1667,31.5 45.8333,31.5 48.5,31.5C 48.5,28.8333 48.5,26.1667 48.5,23.5C 45.8333,23.5 43.1667,23.5 40.5,23.5 Z"/></g>
<g><path style="opacity:0.924" fill="#588057" d="M 36.5,39.5 C 38.8568,39.3367 41.1902,39.5034 43.5,40C 44.3802,41.3561 44.7135,42.8561 44.5,44.5C 41.5,44.5 38.5,44.5 35.5,44.5C 35.366,42.7085 35.6993,41.0418 36.5,39.5 Z"/></g>
<g><path style="opacity:0.992" fill="#588157" d="M 48.5,39.5 C 66.8364,39.3334 85.1697,39.5001 103.5,40C 104.38,41.3561 104.714,42.8561 104.5,44.5C 85.8333,44.5 67.1667,44.5 48.5,44.5C 48.5,42.8333 48.5,41.1667 48.5,39.5 Z"/></g>
<g><path style="opacity:0.838" fill="#578455" d="M 35.5,52.5 C 38.5,52.5 41.5,52.5 44.5,52.5C 44.5,54.1667 44.5,55.8333 44.5,57.5C 41.5,57.5 38.5,57.5 35.5,57.5C 35.5,55.8333 35.5,54.1667 35.5,52.5 Z"/></g>
<g><path style="opacity:0.852" fill="#588056" d="M 48.5,52.5 C 66.8364,52.3334 85.1697,52.5001 103.5,53C 104.833,54.3333 104.833,55.6667 103.5,57C 85.1697,57.4999 66.8364,57.6666 48.5,57.5C 48.5,55.8333 48.5,54.1667 48.5,52.5 Z"/></g>
<g><path style="opacity:0.906" fill="#588157" d="M 35.5,65.5 C 38.5,65.5 41.5,65.5 44.5,65.5C 45.2585,69.2403 43.7585,70.907 40,70.5C 36.2415,70.907 34.7415,69.2403 35.5,65.5 Z"/></g>
<g><path style="opacity:0.958" fill="#578157" d="M 48.5,65.5 C 67.1667,65.5 85.8333,65.5 104.5,65.5C 104.714,67.1439 104.38,68.6439 103.5,70C 85.5,70.6667 67.5,70.6667 49.5,70C 48.6198,68.6439 48.2865,67.1439 48.5,65.5 Z"/></g>
<g><path style="opacity:0.85" fill="#588157" d="M 37.5,77.5 C 39.5914,77.3184 41.5914,77.6518 43.5,78.5C 44.6139,79.723 44.7805,81.0563 44,82.5C 41.5991,83.6023 39.0991,83.769 36.5,83C 35.1563,80.8564 35.4896,79.0231 37.5,77.5 Z"/></g>
<g><path style="opacity:0.846" fill="#588156" d="M 50.5,77.5 C 67.8365,77.3334 85.1699,77.5001 102.5,78C 104.658,79.3117 104.991,80.9783 103.5,83C 85.5,83.6667 67.5,83.6667 49.5,83C 48.1563,80.8564 48.4896,79.0231 50.5,77.5 Z"/></g>
<g><path style="opacity:0.937" fill="#578157" d="M 36.5,90.5 C 38.8568,90.3367 41.1902,90.5034 43.5,91C 44.3802,92.3561 44.7135,93.8561 44.5,95.5C 41.5,95.5 38.5,95.5 35.5,95.5C 35.366,93.7085 35.6993,92.0418 36.5,90.5 Z"/></g>
<g><path style="opacity:0.984" fill="#578056" d="M 49.5,90.5 C 67.5031,90.3334 85.5031,90.5001 103.5,91C 104.38,92.3561 104.714,93.8561 104.5,95.5C 85.8333,95.5 67.1667,95.5 48.5,95.5C 48.366,93.7085 48.6993,92.0418 49.5,90.5 Z"/></g>
</svg>
