<?xml version="1.0" encoding="UTF-8"?>
<!DOCTYPE svg PUBLIC "-//W3C//DTD SVG 1.1//EN" "http://www.w3.org/Graphics/SVG/1.1/DTD/svg11.dtd">
<svg xmlns="http://www.w3.org/2000/svg" version="1.1" width="128px" height="128px" style="shape-rendering:geometricPrecision; text-rendering:geometricPrecision; image-rendering:optimizeQuality; fill-rule:evenodd; clip-rule:evenodd" xmlns:xlink="http://www.w3.org/1999/xlink">
<g><path style="opacity:0.959" fill="#588156" d="M 50.5,-0.5 C 59.1667,-0.5 67.8333,-0.5 76.5,-0.5C 82.7491,0.943817 88.9158,2.94382 95,5.5C 99.4059,27.9471 93.2393,46.7805 76.5,62C 72.7032,65.2317 68.3699,67.3984 63.5,68.5C 46.405,61.8964 35.905,49.563 32,31.5C 31.3333,22.8333 31.3333,14.1667 32,5.5C 38.0842,2.94382 44.2509,0.943817 50.5,-0.5 Z M 55.5,7.5 C 66.1084,6.80798 76.4417,8.14131 86.5,11.5C 89.9169,32.9587 82.2502,48.9587 63.5,59.5C 44.7498,48.9587 37.0831,32.9587 40.5,11.5C 45.5802,9.98194 50.5802,8.6486 55.5,7.5 Z"/></g>
<g><path style="opacity:0.962" fill="#598258" d="M 72.5,19.5 C 78.6739,18.1729 80.8406,20.5062 79,26.5C 74.5,31 70,35.5 65.5,40C 63.6354,41.3014 61.6354,41.6347 59.5,41C 56.0354,38.5374 52.8688,35.7041 50,32.5C 48.1667,26.3333 50.3333,24.1667 56.5,26C 58.0175,27.6851 59.6841,29.1851 61.5,30.5C 65.521,27.1456 69.1877,23.479 72.5,19.5 Z"/></g>
<g><path style="opacity:0.968" fill="#588156" d="M 58.5,127.5 C 47.1667,127.5 35.8333,127.5 24.5,127.5C 23.7227,122.916 23.2227,118.25 23,113.5C 15.2983,105.631 7.46494,97.9642 -0.5,90.5C -0.5,72.5 -0.5,54.5 -0.5,36.5C 6.39855,34.7637 13.0652,35.2637 19.5,38C 21.0412,39.5793 22.2078,41.4127 23,43.5C 23.3333,50.5 23.6667,57.5 24,64.5C 29.2336,61.2421 34.7336,60.7421 40.5,63C 48.9014,68.7281 55.0681,76.2281 59,85.5C 59.8145,99.5748 59.6478,113.575 58.5,127.5 Z M 7.5,43.5 C 11.1816,42.7253 13.6816,44.0586 15,47.5C 15.3333,57.8333 15.6667,68.1667 16,78.5C 21.5,84 27,89.5 32.5,95C 39.4345,96.4368 41.2679,93.9368 38,87.5C 34.6667,84.1667 31.3333,80.8333 28,77.5C 28.0507,71.4328 30.884,69.2661 36.5,71C 40.3333,74.8333 44.1667,78.6667 48,82.5C 49.2754,84.7173 50.2754,87.0506 51,89.5C 51.4998,99.4944 51.6665,109.494 51.5,119.5C 44.8333,119.5 38.1667,119.5 31.5,119.5C 31.665,116.15 31.4983,112.817 31,109.5C 23.3333,101.833 15.6667,94.1667 8,86.5C 7.50009,72.1705 7.33342,57.8372 7.5,43.5 Z"/></g>
<g><path style="opacity:0.968" fill="#588156" d="M 127.5,36.5 C 127.5,54.5 127.5,72.5 127.5,90.5C 119.535,97.9642 111.702,105.631 104,113.5C 103.777,118.25 103.277,122.916 102.5,127.5C 91.1667,127.5 79.8333,127.5 68.5,127.5C 67.3522,113.575 67.1855,99.5748 68,85.5C 71.9319,76.2281 78.0986,68.7281 86.5,63C 92.2664,60.7421 97.7664,61.2421 103,64.5C 103.333,57.5 103.667,50.5 104,43.5C 105.105,40.0629 107.272,37.5629 110.5,36C 116.249,35.2153 121.916,35.3819 127.5,36.5 Z M 114.5,43.5 C 116.167,43.5 117.833,43.5 119.5,43.5C 119.667,57.8372 119.5,72.1705 119,86.5C 111.333,94.1667 103.667,101.833 96,109.5C 95.5017,112.817 95.335,116.15 95.5,119.5C 88.8333,119.5 82.1667,119.5 75.5,119.5C 75.3335,109.494 75.5002,99.4944 76,89.5C 79.8439,81.1521 85.6772,74.4854 93.5,69.5C 97.5888,70.736 99.4222,73.4027 99,77.5C 94.9648,81.2002 91.2981,85.2002 88,89.5C 86.739,95.0798 88.9057,96.9132 94.5,95C 100,89.5 105.5,84 111,78.5C 111.333,68.1667 111.667,57.8333 112,47.5C 112.662,46.0161 113.496,44.6828 114.5,43.5 Z"/></g>
</svg>
