<?xml version="1.0" encoding="UTF-8"?>
<!DOCTYPE svg PUBLIC "-//W3C//DTD SVG 1.1//EN" "http://www.w3.org/Graphics/SVG/1.1/DTD/svg11.dtd">
<svg xmlns="http://www.w3.org/2000/svg" version="1.1" width="64px" height="64px" style="shape-rendering:geometricPrecision; text-rendering:geometricPrecision; image-rendering:optimizeQuality; fill-rule:evenodd; clip-rule:evenodd" xmlns:xlink="http://www.w3.org/1999/xlink">
<g><path style="opacity:1" fill="#e2ecfb" d="M 7.5,-0.5 C 23.5,-0.5 39.5,-0.5 55.5,-0.5C 55.5,4.83333 55.5,10.1667 55.5,15.5C 55.5,30.1667 55.5,44.8333 55.5,59.5C 54.1667,59.5 52.8333,59.5 51.5,59.5C 51.5,47.5 51.5,35.5 51.5,23.5C 40.8281,23.6665 30.1615,23.4998 19.5,23C 18.2695,21.5952 16.9361,20.4286 15.5,19.5C 19.5,19.5 23.5,19.5 27.5,19.5C 27.5,14.1667 27.5,8.83333 27.5,3.5C 22.1667,3.5 16.8333,3.5 11.5,3.5C 11.5,8.83333 11.5,14.1667 11.5,19.5C 10.8333,19.5 10.1667,19.5 9.5,19.5C 8.83333,19.5 8.16667,19.5 7.5,19.5C 7.5,12.8333 7.5,6.16667 7.5,-0.5 Z"/></g>
<g><path style="opacity:1" fill="#78d3f4" d="M 15.5,19.5 C 14.1667,19.5 12.8333,19.5 11.5,19.5C 11.5,14.1667 11.5,8.83333 11.5,3.5C 16.8333,3.5 22.1667,3.5 27.5,3.5C 27.5,8.83333 27.5,14.1667 27.5,19.5C 23.5,19.5 19.5,19.5 15.5,19.5 Z"/></g>
<g><path style="opacity:1" fill="#667882" d="M 34.5,6.5 C 40.5368,6.17075 46.5368,6.50408 52.5,7.5C 49.5,7.83333 46.5,8.16667 43.5,8.5C 40.0866,8.48303 37.0866,7.81637 34.5,6.5 Z"/></g>
<g><path style="opacity:1" fill="#f3caa0" d="M 21.5,11.5 C 20.1667,11.5 18.8333,11.5 17.5,11.5C 17.2222,9.65358 17.8888,8.32025 19.5,7.5C 21.1112,8.32025 21.7778,9.65358 21.5,11.5 Z"/></g>
<g><path style="opacity:1" fill="#667882" d="M 34.5,10.5 C 40.5368,10.1707 46.5368,10.5041 52.5,11.5C 49.5,11.8333 46.5,12.1667 43.5,12.5C 40.0866,12.483 37.0866,11.8164 34.5,10.5 Z"/></g>
<g><path style="opacity:1" fill="#f74b75" d="M 17.5,11.5 C 18.8333,11.5 20.1667,11.5 21.5,11.5C 22.1408,12.4822 22.8075,13.4822 23.5,14.5C 20.9135,15.48 18.2469,15.8134 15.5,15.5C 15.2291,13.6203 15.8958,12.287 17.5,11.5 Z"/></g>
<g><path style="opacity:1" fill="#667882" d="M 34.5,14.5 C 40.5368,14.1707 46.5368,14.5041 52.5,15.5C 49.5,15.8333 46.5,16.1667 43.5,16.5C 40.0866,16.483 37.0866,15.8164 34.5,14.5 Z"/></g>
<g><path style="opacity:0.994" fill="#f9c600" d="M 55.5,15.5 C 56.8333,15.5 58.1667,15.5 59.5,15.5C 59.8175,31.5775 59.4841,47.5775 58.5,63.5C 56.8333,63.5 55.1667,63.5 53.5,63.5C 52.3995,62.3951 51.7329,61.0618 51.5,59.5C 52.8333,59.5 54.1667,59.5 55.5,59.5C 55.5,44.8333 55.5,30.1667 55.5,15.5 Z"/></g>
<g><path style="opacity:0.999" fill="#ffd064" d="M 7.5,19.5 C 8.16667,19.5 8.83333,19.5 9.5,19.5C 9.33343,33.504 9.50009,47.504 10,61.5C 10.7172,62.0442 11.2172,62.7109 11.5,63.5C 9.16667,63.5 6.83333,63.5 4.5,63.5C 3.51736,48.9116 3.18402,34.245 3.5,19.5C 4.83333,19.5 6.16667,19.5 7.5,19.5 Z"/></g>
<g><path style="opacity:1" fill="#fedf7d" d="M 9.5,19.5 C 10.1667,19.5 10.8333,19.5 11.5,19.5C 12.8333,19.5 14.1667,19.5 15.5,19.5C 16.9361,20.4286 18.2695,21.5952 19.5,23C 30.1615,23.4998 40.8281,23.6665 51.5,23.5C 51.5,35.5 51.5,47.5 51.5,59.5C 51.7329,61.0618 52.3995,62.3951 53.5,63.5C 39.5,63.5 25.5,63.5 11.5,63.5C 11.2172,62.7109 10.7172,62.0442 10,61.5C 9.50009,47.504 9.33343,33.504 9.5,19.5 Z"/></g>
<g><path style="opacity:1" fill="#e3ecf8" d="M 35.5,39.5 C 34.1667,39.5 32.8333,39.5 31.5,39.5C 31.9492,37.0225 31.2825,35.0225 29.5,33.5C 27.7175,35.0225 27.0508,37.0225 27.5,39.5C 26.1667,39.5 24.8333,39.5 23.5,39.5C 23.0726,29.7331 26.9059,27.3998 35,32.5C 35.4966,34.8098 35.6633,37.1432 35.5,39.5 Z"/></g>
<g><path style="opacity:1" fill="#fee081" d="M 31.5,39.5 C 30.1667,39.5 28.8333,39.5 27.5,39.5C 27.0508,37.0225 27.7175,35.0225 29.5,33.5C 31.2825,35.0225 31.9492,37.0225 31.5,39.5 Z"/></g>
<g><path style="opacity:1" fill="#7fd05c" d="M 23.5,39.5 C 24.8333,39.5 26.1667,39.5 27.5,39.5C 28.8333,39.5 30.1667,39.5 31.5,39.5C 32.8333,39.5 34.1667,39.5 35.5,39.5C 36.5,39.5 37.5,39.5 38.5,39.5C 38.5,44.1667 38.5,48.8333 38.5,53.5C 32.5,53.5 26.5,53.5 20.5,53.5C 20.5,48.8333 20.5,44.1667 20.5,39.5C 21.5,39.5 22.5,39.5 23.5,39.5 Z"/></g>
<g><path style="opacity:1" fill="#435855" d="M 27.5,43.5 C 28.8333,43.5 30.1667,43.5 31.5,43.5C 30.1667,51.5 28.8333,51.5 27.5,43.5 Z"/></g>
</svg>
