<?xml version="1.0" encoding="UTF-8"?>
<!DOCTYPE svg PUBLIC "-//W3C//DTD SVG 1.1//EN" "http://www.w3.org/Graphics/SVG/1.1/DTD/svg11.dtd">
<svg xmlns="http://www.w3.org/2000/svg" version="1.1" width="64px" height="64px" style="shape-rendering:geometricPrecision; text-rendering:geometricPrecision; image-rendering:optimizeQuality; fill-rule:evenodd; clip-rule:evenodd" xmlns:xlink="http://www.w3.org/1999/xlink">
<g><path style="opacity:0.926" fill="#0f51e4" d="M 30.5,-0.5 C 31.5,-0.5 32.5,-0.5 33.5,-0.5C 48.5185,1.18145 58.5185,9.18145 63.5,23.5C 63.5,28.8333 63.5,34.1667 63.5,39.5C 58.648,53.3547 48.9813,61.3547 34.5,63.5C 33.5,63.5 32.5,63.5 31.5,63.5C 16.9341,62.1203 7.10079,54.4537 2,40.5C 1.50454,38.5273 1.33788,36.5273 1.5,34.5C 3.81938,33.833 6.15271,33.6664 8.5,34C 15.2607,53.3646 27.9274,58.6979 46.5,50C 56.5798,40.3739 58.0798,29.5406 51,17.5C 40.7648,7.02446 29.5981,5.8578 17.5,14C 19.8098,14.4966 22.1432,14.6633 24.5,14.5C 24.8916,17.1457 24.8916,19.6457 24.5,22C 17.2868,23.9244 9.95342,25.0911 2.5,25.5C 1.91517,20.6248 0.915171,15.9581 -0.5,11.5C -0.5,8.83333 -0.5,6.16667 -0.5,3.5C 1.78188,2.61027 4.11521,2.4436 6.5,3C 7.40561,5.44713 8.23894,7.94713 9,10.5C 14.8386,3.9983 22.0052,0.331631 30.5,-0.5 Z"/></g>
</svg>
