<?xml version="1.0" encoding="UTF-8"?>
<!DOCTYPE svg PUBLIC "-//W3C//DTD SVG 1.1//EN" "http://www.w3.org/Graphics/SVG/1.1/DTD/svg11.dtd">
<svg xmlns="http://www.w3.org/2000/svg" version="1.1" width="64px" height="64px" style="shape-rendering:geometricPrecision; text-rendering:geometricPrecision; image-rendering:optimizeQuality; fill-rule:evenodd; clip-rule:evenodd" xmlns:xlink="http://www.w3.org/1999/xlink">
<g><path style="opacity:0.866" fill="#588356" d="M 0.5,-0.5 C 11.1667,-0.5 21.8333,-0.5 32.5,-0.5C 33.2738,7.78638 33.7738,16.1197 34,24.5C 35,22.1667 36,19.8333 37,17.5C 38.3129,16.4272 39.8129,15.7605 41.5,15.5C 49.0176,18.1152 56.3509,21.1152 63.5,24.5C 63.5,26.8333 63.5,29.1667 63.5,31.5C 60.5498,38.0765 57.5498,44.7432 54.5,51.5C 53.675,52.3857 52.675,52.719 51.5,52.5C 54.4086,44.1797 57.7419,36.0131 61.5,28C 57.9052,25.4633 54.0719,23.2966 50,21.5C 45.4422,32.9491 40.6089,44.2825 35.5,55.5C 38.3789,57.9146 41.7122,59.5813 45.5,60.5C 48.2997,59.5879 49.633,57.5879 49.5,54.5C 50.5,54.5 51.5,54.5 52.5,54.5C 52.3076,58.1024 50.9743,61.1024 48.5,63.5C 46.5,63.5 44.5,63.5 42.5,63.5C 40.025,61.9943 37.3584,60.6609 34.5,59.5C 33.2949,60.5769 32.6282,61.9102 32.5,63.5C 21.8333,63.5 11.1667,63.5 0.5,63.5C 0.5,62.8333 0.166667,62.5 -0.5,62.5C -0.5,46.1667 -0.5,29.8333 -0.5,13.5C 1.43023,17.3727 2.0969,21.706 1.5,26.5C 11.1667,26.5 20.8333,26.5 30.5,26.5C 30.8158,18.2476 30.4825,10.081 29.5,2C 20.5,1.33333 11.5,1.33333 2.5,2C 2.16199,5.25438 1.16199,8.08772 -0.5,10.5C -0.5,7.16667 -0.5,3.83333 -0.5,0.5C 0.166667,0.5 0.5,0.166667 0.5,-0.5 Z M 40.5,18.5 C 41.0431,18.56 41.3764,18.8933 41.5,19.5C 36.6495,30.5304 31.8162,41.5304 27,52.5C 30.2072,40.7232 34.7072,29.3899 40.5,18.5 Z M 44.5,19.5 C 45.4778,19.811 46.1445,20.4777 46.5,21.5C 41.9422,32.9491 37.1089,44.2825 32,55.5C 31.3076,54.9747 30.8076,54.3081 30.5,53.5C 35.1793,42.1454 39.846,30.812 44.5,19.5 Z M 1.5,29.5 C 11.1667,29.5 20.8333,29.5 30.5,29.5C 28.1853,36.8068 25.852,44.1401 23.5,51.5C 23.7858,55.1194 25.7858,57.1194 29.5,57.5C 30.5827,58.365 30.7494,59.365 30,60.5C 20.6667,61.8333 11.3333,61.8333 2,60.5C 1.50017,50.172 1.33351,39.8387 1.5,29.5 Z M 49.5,35.5 C 51.6246,36.3676 51.7913,37.3676 50,38.5C 48.3167,37.8235 48.1501,36.8235 49.5,35.5 Z"/></g>
<g><path style="opacity:0.834" fill="#588257" d="M 14.5,6.5 C 18.4134,6.24052 20.7468,8.07385 21.5,12C 20.0821,15.0008 19.2488,18.1675 19,21.5C 17.1862,22.7596 15.3529,22.7596 13.5,21.5C 12.752,18.0954 11.752,14.7621 10.5,11.5C 11.1598,9.18528 12.4931,7.51862 14.5,6.5 Z M 15.5,9.5 C 16.9953,9.41483 17.9953,10.0815 18.5,11.5C 16.9293,13.8822 16.096,16.5488 16,19.5C 15.9546,16.666 15.1213,14.166 13.5,12C 14.3805,11.2917 15.0472,10.4584 15.5,9.5 Z"/></g>
<g><path style="opacity:0.86" fill="#578256" d="M 48.5,32.5 C 53.1501,32.6479 54.9834,34.9812 54,39.5C 52.6932,40.7717 51.1932,41.7717 49.5,42.5C 48.1667,44.1667 48.1667,45.8333 49.5,47.5C 47.8068,48.2283 46.3068,49.2283 45,50.5C 44.3076,49.9747 43.8076,49.3081 43.5,48.5C 45.8807,45.0592 46.5474,41.3925 45.5,37.5C 45.7573,35.3076 46.7573,33.6409 48.5,32.5 Z M 49.5,35.5 C 48.1501,36.8235 48.3167,37.8235 50,38.5C 51.7913,37.3676 51.6246,36.3676 49.5,35.5 Z"/></g>
<g><path style="opacity:0.791" fill="#578256" d="M 11.5,39.5 C 15.5839,39.0431 19.4172,39.7098 23,41.5C 23.4828,42.448 23.6495,43.448 23.5,44.5C 21.0902,43.6114 18.5902,42.9448 16,42.5C 13.4098,42.9448 10.9098,43.6114 8.5,44.5C 8.30995,42.0411 9.30995,40.3745 11.5,39.5 Z"/></g>
<g><path style="opacity:0.808" fill="#578156" d="M 13.5,44.5 C 16.7977,44.0162 19.4643,45.0162 21.5,47.5C 18.1985,47.4302 14.8651,47.7635 11.5,48.5C 11.5271,46.8007 12.1938,45.4674 13.5,44.5 Z"/></g>
<g><path style="opacity:0.576" fill="#568d50" d="M 14.5,49.5 C 15.5,49.5 16.5,49.5 17.5,49.5C 17.5,50.5 17.5,51.5 17.5,52.5C 16.5,52.5 15.5,52.5 14.5,52.5C 14.5,51.5 14.5,50.5 14.5,49.5 Z"/></g>
</svg>
