<?xml version="1.0" encoding="UTF-8"?>
<!DOCTYPE svg PUBLIC "-//W3C//DTD SVG 1.1//EN" "http://www.w3.org/Graphics/SVG/1.1/DTD/svg11.dtd">
<svg xmlns="http://www.w3.org/2000/svg" version="1.1" width="64px" height="64px" style="shape-rendering:geometricPrecision; text-rendering:geometricPrecision; image-rendering:optimizeQuality; fill-rule:evenodd; clip-rule:evenodd" xmlns:xlink="http://www.w3.org/1999/xlink">
<g><path style="opacity:0.984" fill="#dde4f9" d="M 14.5,-0.5 C 16.1667,-0.5 17.8333,-0.5 19.5,-0.5C 20.2341,0.707917 20.5674,2.04125 20.5,3.5C 19.6909,5.29221 19.1909,7.29221 19,9.5C 17.6667,10.8333 16.3333,10.8333 15,9.5C 14.8091,7.29221 14.3091,5.29221 13.5,3.5C 13.8333,2.16667 14.1667,0.833333 14.5,-0.5 Z"/></g>
<g><path style="opacity:1" fill="#dddcf3" d="M 39.5,-0.5 C 41.1667,-0.5 42.8333,-0.5 44.5,-0.5C 44.5,0.833333 44.5,2.16667 44.5,3.5C 44.9675,6.37953 44.1341,8.71286 42,10.5C 38.9563,9.21857 37.7896,6.88524 38.5,3.5C 38.4326,2.04125 38.7659,0.707917 39.5,-0.5 Z"/></g>
<g><path style="opacity:0.97" fill="#fd3f55" d="M 13.5,3.5 C 14.3091,5.29221 14.8091,7.29221 15,9.5C 16.3333,10.8333 17.6667,10.8333 19,9.5C 19.1909,7.29221 19.6909,5.29221 20.5,3.5C 26.5,3.5 32.5,3.5 38.5,3.5C 37.7896,6.88524 38.9563,9.21857 42,10.5C 44.1341,8.71286 44.9675,6.37953 44.5,3.5C 46.8333,3.5 49.1667,3.5 51.5,3.5C 54.1426,6.23362 55.1426,9.56695 54.5,13.5C 36.8333,13.5 19.1667,13.5 1.5,13.5C 0.188168,4.15767 4.18817,0.824332 13.5,3.5 Z"/></g>
<g><path style="opacity:1" fill="#e90453" d="M 51.5,3.5 C 53.7224,3.17798 55.5557,3.84464 57,5.5C 57.499,9.82056 57.6657,14.1539 57.5,18.5C 56.5,18.5 55.5,18.5 54.5,18.5C 54.5,17.5 54.5,16.5 54.5,15.5C 36.8333,15.5 19.1667,15.5 1.5,15.5C 1.5,14.8333 1.5,14.1667 1.5,13.5C 19.1667,13.5 36.8333,13.5 54.5,13.5C 55.1426,9.56695 54.1426,6.23362 51.5,3.5 Z"/></g>
<g><path style="opacity:0.997" fill="#fe4054" d="M 1.5,15.5 C 19.1667,15.5 36.8333,15.5 54.5,15.5C 54.5,16.5 54.5,17.5 54.5,18.5C 36.8333,18.5 19.1667,18.5 1.5,18.5C 1.5,17.5 1.5,16.5 1.5,15.5 Z"/></g>
<g><path style="opacity:0.996" fill="#e5edf7" d="M 1.5,18.5 C 19.1667,18.5 36.8333,18.5 54.5,18.5C 55.5,18.5 56.5,18.5 57.5,18.5C 57.5,24.5 57.5,30.5 57.5,36.5C 55.6282,34.3963 53.2948,33.063 50.5,32.5C 45.4483,31.5102 40.4483,31.5102 35.5,32.5C 34.4324,31.5655 33.099,31.2322 31.5,31.5C 31.2322,33.099 31.5655,34.4324 32.5,35.5C 32.6107,36.1174 32.944,36.6174 33.5,37C 30.3277,40.181 28.9944,44.0143 29.5,48.5C 20.8269,48.6664 12.1603,48.4998 3.5,48C 2.9558,47.2828 2.28913,46.7828 1.5,46.5C 1.5,37.1667 1.5,27.8333 1.5,18.5 Z"/></g>
<g><path style="opacity:1" fill="#3e5499" d="M 6.5,22.5 C 10.1612,22.3501 11.1612,23.8501 9.5,27C 5.70713,27.4866 4.70713,25.9866 6.5,22.5 Z"/></g>
<g><path style="opacity:1" fill="#3d5399" d="M 15.5,22.5 C 16.5,22.5 17.5,22.5 18.5,22.5C 18.5,24.1667 18.5,25.8333 18.5,27.5C 17.1667,27.5 15.8333,27.5 14.5,27.5C 14.366,25.7085 14.6993,24.0418 15.5,22.5 Z"/></g>
<g><path style="opacity:1" fill="#3d5499" d="M 32.5,22.5 C 33.5,22.5 34.5,22.5 35.5,22.5C 35.5,24.1667 35.5,25.8333 35.5,27.5C 34.1667,27.5 32.8333,27.5 31.5,27.5C 31.366,25.7085 31.6993,24.0418 32.5,22.5 Z"/></g>
<g><path style="opacity:1" fill="#3c5398" d="M 49.5,22.5 C 50.5,22.5 51.5,22.5 52.5,22.5C 52.5,24.1667 52.5,25.8333 52.5,27.5C 48.7162,27.4747 47.7162,25.8081 49.5,22.5 Z"/></g>
<g><path style="opacity:1" fill="#485d9f" d="M 23.5,22.5 C 26.9103,22.3838 28.2436,24.0504 27.5,27.5C 23.065,28.0776 21.7317,26.4109 23.5,22.5 Z"/></g>
<g><path style="opacity:1" fill="#43589c" d="M 40.5,22.5 C 43.9103,22.3838 45.2436,24.0504 44.5,27.5C 43.1667,27.5 41.8333,27.5 40.5,27.5C 40.5,25.8333 40.5,24.1667 40.5,22.5 Z"/></g>
<g><path style="opacity:1" fill="#344b93" d="M 6.5,31.5 C 7.83333,31.5 9.16667,31.5 10.5,31.5C 10.5,32.8333 10.5,34.1667 10.5,35.5C 9.16667,35.5 7.83333,35.5 6.5,35.5C 6.5,34.1667 6.5,32.8333 6.5,31.5 Z"/></g>
<g><path style="opacity:1" fill="#304891" d="M 14.5,31.5 C 15.8333,31.5 17.1667,31.5 18.5,31.5C 18.5,32.8333 18.5,34.1667 18.5,35.5C 17.1667,35.5 15.8333,35.5 14.5,35.5C 14.5,34.1667 14.5,32.8333 14.5,31.5 Z"/></g>
<g><path style="opacity:1" fill="#324a92" d="M 23.5,31.5 C 24.8333,31.5 26.1667,31.5 27.5,31.5C 27.5,32.8333 27.5,34.1667 27.5,35.5C 26.1667,35.5 24.8333,35.5 23.5,35.5C 23.5,34.1667 23.5,32.8333 23.5,31.5 Z"/></g>
<g><path style="opacity:1" fill="#334c94" d="M 35.5,32.5 C 35.5,33.5 35.5,34.5 35.5,35.5C 34.5,35.5 33.5,35.5 32.5,35.5C 31.5655,34.4324 31.2322,33.099 31.5,31.5C 33.099,31.2322 34.4324,31.5655 35.5,32.5 Z"/></g>
<g><path style="opacity:0.967" fill="#55acf6" d="M 50.5,32.5 C 50.0618,32.4346 49.7284,32.6012 49.5,33C 60.1927,40.8778 61.1927,49.8778 52.5,60C 49.8421,61.478 47.1755,62.6446 44.5,63.5C 42.8333,63.5 41.1667,63.5 39.5,63.5C 35.1119,61.4438 32.1119,58.1105 30.5,53.5C 29.962,51.8828 29.6287,50.2161 29.5,48.5C 28.9944,44.0143 30.3277,40.181 33.5,37C 32.944,36.6174 32.6107,36.1174 32.5,35.5C 33.5,35.5 34.5,35.5 35.5,35.5C 35.5,34.5 35.5,33.5 35.5,32.5C 40.4483,31.5102 45.4483,31.5102 50.5,32.5 Z"/></g>
<g><path style="opacity:1" fill="#e8f3fb" d="M 42.5,36.5 C 49.643,36.6399 53.643,40.3065 54.5,47.5C 53.643,54.6935 49.643,58.3601 42.5,58.5C 33.8624,54.8842 31.6958,48.8842 36,40.5C 37.6379,38.2663 39.8045,36.933 42.5,36.5 Z"/></g>
<g><path style="opacity:1" fill="#248dec" d="M 50.5,32.5 C 53.2948,33.063 55.6282,34.3963 57.5,36.5C 59.1361,37.7489 60.3028,39.4156 61,41.5C 63.5136,51.4584 60.3469,58.7918 51.5,63.5C 49.1667,63.5 46.8333,63.5 44.5,63.5C 47.1755,62.6446 49.8421,61.478 52.5,60C 61.1927,49.8778 60.1927,40.8778 49.5,33C 49.7284,32.6012 50.0618,32.4346 50.5,32.5 Z"/></g>
<g><path style="opacity:1" fill="#cddbfa" d="M 42.5,36.5 C 50.9815,34.941 55.9815,38.6077 57.5,47.5C 55.9815,56.3923 50.9815,60.059 42.5,58.5C 49.643,58.3601 53.643,54.6935 54.5,47.5C 53.643,40.3065 49.643,36.6399 42.5,36.5 Z"/></g>
<g><path style="opacity:1" fill="#41569a" d="M 6.5,39.5 C 9.91032,39.3838 11.2436,41.0504 10.5,44.5C 6.06505,45.0776 4.73171,43.4109 6.5,39.5 Z"/></g>
<g><path style="opacity:1" fill="#3d5399" d="M 15.5,39.5 C 16.5,39.5 17.5,39.5 18.5,39.5C 18.5,41.1667 18.5,42.8333 18.5,44.5C 17.1667,44.5 15.8333,44.5 14.5,44.5C 14.366,42.7085 14.6993,41.0418 15.5,39.5 Z"/></g>
<g><path style="opacity:1" fill="#516aa9" d="M 46.5,45.5 C 45.8333,45.5 45.1667,45.5 44.5,45.5C 45.1667,37.5 45.8333,37.5 46.5,45.5 Z"/></g>
<g><path style="opacity:1" fill="#4f63a3" d="M 23.5,39.5 C 26.9103,39.3838 28.2436,41.0504 27.5,44.5C 23.065,45.0776 21.7317,43.4109 23.5,39.5 Z"/></g>
<g><path style="opacity:1" fill="#fbdd4f" d="M 44.5,45.5 C 45.1667,45.5 45.8333,45.5 46.5,45.5C 46.5,46.1667 46.8333,46.5 47.5,46.5C 47.5,47.1667 47.5,47.8333 47.5,48.5C 46.2921,49.2341 44.9587,49.5674 43.5,49.5C 43.2322,47.901 43.5655,46.5676 44.5,45.5 Z"/></g>
<g><path style="opacity:0.841" fill="#d2dbfb" d="M 1.5,46.5 C 2.28913,46.7828 2.9558,47.2828 3.5,48C 12.1603,48.4998 20.8269,48.6664 29.5,48.5C 29.6287,50.2161 29.962,51.8828 30.5,53.5C 21.4938,53.6664 12.4938,53.4998 3.5,53C 1.77099,51.2111 1.10433,49.0444 1.5,46.5 Z"/></g>
<g><path style="opacity:1" fill="#4b65a7" d="M 47.5,46.5 C 52.8333,47.1667 52.8333,47.8333 47.5,48.5C 47.5,47.8333 47.5,47.1667 47.5,46.5 Z"/></g>
</svg>
