<?xml version="1.0" encoding="UTF-8"?>
<!DOCTYPE svg PUBLIC "-//W3C//DTD SVG 1.1//EN" "http://www.w3.org/Graphics/SVG/1.1/DTD/svg11.dtd">
<svg xmlns="http://www.w3.org/2000/svg" version="1.1" width="64px" height="64px" style="shape-rendering:geometricPrecision; text-rendering:geometricPrecision; image-rendering:optimizeQuality; fill-rule:evenodd; clip-rule:evenodd" xmlns:xlink="http://www.w3.org/1999/xlink">
<g><path style="opacity:0.764" fill="#030608" d="M 17.5,-0.5 C 22.1667,-0.5 26.8333,-0.5 31.5,-0.5C 42.8453,3.86357 48.8453,12.1969 49.5,24.5C 49.3573,29.7139 48.524,34.7139 47,39.5C 52.3686,45.0363 57.8686,50.3697 63.5,55.5C 63.5,57.5 63.5,59.5 63.5,61.5C 62.5,61.8333 61.8333,62.5 61.5,63.5C 59.5,63.5 57.5,63.5 55.5,63.5C 50.3697,57.8686 45.0363,52.3686 39.5,47C 34.7139,48.524 29.7139,49.3573 24.5,49.5C 12.1969,48.8453 3.86357,42.8453 -0.5,31.5C -0.5,26.8333 -0.5,22.1667 -0.5,17.5C 1.1227,13.5995 3.28937,9.93286 6,6.5C 9.51357,3.4999 13.3469,1.16657 17.5,-0.5 Z M 16.5,4.5 C 16.1667,5.16667 15.8333,5.83333 15.5,6.5C 13.5,7.5 11.5,8.5 9.5,9.5C 10.9923,6.67686 13.3257,5.01019 16.5,4.5 Z M 9.5,9.5 C 4.38421,16.8194 3.21755,24.8194 6,33.5C 7.42132,35.4048 8.58798,37.4048 9.5,39.5C 4.77946,35.7207 2.44613,30.7207 2.5,24.5C 2.44613,18.2793 4.77946,13.2793 9.5,9.5 Z M 9.5,39.5 C 11.5,40.5 13.5,41.5 15.5,42.5C 15.8333,43.1667 16.1667,43.8333 16.5,44.5C 13.3257,43.9898 10.9923,42.3231 9.5,39.5 Z"/></g>
<g><path style="opacity:0.904" fill="#131618" d="M 15.5,42.5 C 13.5,41.5 11.5,40.5 9.5,39.5C 8.58798,37.4048 7.42132,35.4048 6,33.5C 3.21755,24.8194 4.38421,16.8194 9.5,9.5C 11.5,8.5 13.5,7.5 15.5,6.5C 27.3797,2.40411 36.5464,5.73744 43,16.5C 46.5409,32.6144 40.2076,41.9478 24,44.5C 20.9756,44.5192 18.1423,43.8525 15.5,42.5 Z"/></g>
<g><path style="opacity:1" fill="#bbe3f0" d="M 22.5,7.5 C 38.6441,8.49137 44.4774,16.8247 40,32.5C 36.1826,39.3259 30.3492,42.3259 22.5,41.5C 12.4316,34.7762 9.93165,25.7762 15,14.5C 16.7424,11.2543 19.2424,8.92098 22.5,7.5 Z"/></g>
<g><path style="opacity:1" fill="#f4f6f6" d="M 22.5,7.5 C 19.2424,8.92098 16.7424,11.2543 15,14.5C 9.93165,25.7762 12.4316,34.7762 22.5,41.5C 12.6867,39.8499 7.68674,34.0166 7.5,24C 8.1406,14.5265 13.1406,9.02646 22.5,7.5 Z"/></g>
<g><path style="opacity:1" fill="#47abd7" d="M 17.5,45.5 C 17.5,44.8333 17.1667,44.5 16.5,44.5C 16.1667,43.8333 15.8333,43.1667 15.5,42.5C 18.1423,43.8525 20.9756,44.5192 24,44.5C 40.2076,41.9478 46.5409,32.6144 43,16.5C 36.5464,5.73744 27.3797,2.40411 15.5,6.5C 15.8333,5.83333 16.1667,5.16667 16.5,4.5C 17.1667,4.5 17.5,4.16667 17.5,3.5C 34.5472,0.0619513 44.2138,6.89528 46.5,24C 44.6741,41.6522 35.0074,48.8189 17.5,45.5 Z"/></g>
<g><path style="opacity:1" fill="#0e1112" d="M 23.5,9.5 C 30.6322,9.63177 35.6322,12.9651 38.5,19.5C 37.9984,20.521 37.3317,20.6877 36.5,20C 34.0983,14.9309 30.0983,12.2643 24.5,12C 23.7476,11.3292 23.4142,10.4959 23.5,9.5 Z"/></g>
<g><path style="opacity:1" fill="#1f2526" d="M 37.5,23.5 C 39.337,23.6395 39.6704,24.3061 38.5,25.5C 37.7025,25.0431 37.3691,24.3764 37.5,23.5 Z"/></g>
<g><path style="opacity:0.888" fill="#ebe2bd" d="M 43.5,41.5 C 43.5,42.1667 43.8333,42.5 44.5,42.5C 44.5,43.1667 44.8333,43.5 45.5,43.5C 45.5,44.1667 45.8333,44.5 46.5,44.5C 44.592,48.2288 42.592,48.0621 40.5,44C 41.3734,42.955 42.3734,42.1217 43.5,41.5 Z"/></g>
<g><path style="opacity:0.862" fill="#49b3e1" d="M 49.5,47.5 C 49.5,48.1667 49.8333,48.5 50.5,48.5C 50.5,49.1667 50.8333,49.5 51.5,49.5C 51.5,50.1667 51.8333,50.5 52.5,50.5C 52.5,51.1667 52.8333,51.5 53.5,51.5C 53.5,52.1667 53.8333,52.5 54.5,52.5C 54.5,53.1667 54.8333,53.5 55.5,53.5C 55.5,54.1667 55.8333,54.5 56.5,54.5C 56.5,55.1667 56.8333,55.5 57.5,55.5C 57.5,56.1667 57.8333,56.5 58.5,56.5C 58.5,57.1667 58.8333,57.5 59.5,57.5C 59.3284,58.4916 59.6618,59.1583 60.5,59.5C 59.3991,60.5983 58.0657,60.765 56.5,60C 52.8333,56.3333 49.1667,52.6667 45.5,49C 46.5634,47.8118 47.8967,47.3118 49.5,47.5 Z"/></g>
</svg>
