<?xml version="1.0" encoding="UTF-8"?>
<!DOCTYPE svg PUBLIC "-//W3C//DTD SVG 1.1//EN" "http://www.w3.org/Graphics/SVG/1.1/DTD/svg11.dtd">
<svg xmlns="http://www.w3.org/2000/svg" version="1.1" width="64px" height="64px" style="shape-rendering:geometricPrecision; text-rendering:geometricPrecision; image-rendering:optimizeQuality; fill-rule:evenodd; clip-rule:evenodd" xmlns:xlink="http://www.w3.org/1999/xlink">
<g><path style="opacity:0.924" fill="#ffb94f" d="M 63.5,3.5 C 63.5,5.83333 63.5,8.16667 63.5,10.5C 59.4777,14.498 55.811,14.1647 52.5,9.5C 52.5,7.83333 52.5,6.16667 52.5,4.5C 55.7326,-0.352136 59.3992,-0.68547 63.5,3.5 Z"/></g>
<g><path style="opacity:0.908" fill="#ffe376" d="M 10.5,4.5 C 10.5,6.16667 10.5,7.83333 10.5,9.5C 7.18896,14.1647 3.52229,14.498 -0.5,10.5C -0.5,8.16667 -0.5,5.83333 -0.5,3.5C 3.60076,-0.68547 7.26742,-0.352136 10.5,4.5 Z"/></g>
<g><path style="opacity:0.973" fill="#e6f0fa" d="M 10.5,4.5 C 13.8984,4.17964 17.2317,4.51298 20.5,5.5C 21.3094,7.07092 21.6427,8.73759 21.5,10.5C 20.2318,12.047 18.5652,13.047 16.5,13.5C 16.5,12.1667 16.5,10.8333 16.5,9.5C 14.5,9.5 12.5,9.5 10.5,9.5C 10.5,7.83333 10.5,6.16667 10.5,4.5 Z"/></g>
<g><path style="opacity:0.822" fill="#cddaf9" d="M 52.5,4.5 C 52.5,6.16667 52.5,7.83333 52.5,9.5C 50.5,9.5 48.5,9.5 46.5,9.5C 46.5,10.8333 46.5,12.1667 46.5,13.5C 44.326,13.2503 42.6594,12.2503 41.5,10.5C 41.2606,8.5328 41.5939,6.69946 42.5,5C 45.8168,4.50166 49.1501,4.33499 52.5,4.5 Z"/></g>
<g><path style="opacity:0.937" fill="#55cd7b" d="M 31.5,4.5 C 31.5,6.16667 31.5,7.83333 31.5,9.5C 25.7512,13.7077 19.4179,16.8744 12.5,19C 12.2369,34.975 18.5702,47.8083 31.5,57.5C 31.5,59.1667 31.5,60.8333 31.5,62.5C 27.8536,60.1829 24.5203,57.5162 21.5,54.5C 20.8106,51.8106 19.144,50.1439 16.5,49.5C 14.9091,46.6484 13.5758,43.6484 12.5,40.5C 12.2503,38.326 11.2503,36.6594 9.5,35.5C 9.56745,34.0413 9.23411,32.7079 8.5,31.5C 8.78448,29.5853 8.45115,27.9187 7.5,26.5C 5.04755,18.1465 8.04755,13.8132 16.5,13.5C 18.5652,13.047 20.2318,12.047 21.5,10.5C 25.1128,8.8705 28.4462,6.8705 31.5,4.5 Z"/></g>
<g><path style="opacity:0.915" fill="#3e9a7a" d="M 31.5,4.5 C 34.5538,6.8705 37.8872,8.8705 41.5,10.5C 42.6594,12.2503 44.326,13.2503 46.5,13.5C 54.9524,13.8132 57.9524,18.1465 55.5,26.5C 53.655,27.9955 53.3217,29.6621 54.5,31.5C 53.7659,32.7079 53.4326,34.0413 53.5,35.5C 51.7497,36.6594 50.7497,38.326 50.5,40.5C 49.4242,43.6484 48.0909,46.6484 46.5,49.5C 43.856,50.1439 42.1894,51.8106 41.5,54.5C 38.4797,57.5162 35.1464,60.1829 31.5,62.5C 31.5,60.8333 31.5,59.1667 31.5,57.5C 44.431,47.8059 50.7644,34.9725 50.5,19C 43.5821,16.8744 37.2488,13.7077 31.5,9.5C 31.5,7.83333 31.5,6.16667 31.5,4.5 Z"/></g>
<g><path style="opacity:1" fill="#94e571" d="M 31.5,9.5 C 31.5,12.1667 31.5,14.8333 31.5,17.5C 26.0271,17.9743 23.3604,20.9743 23.5,26.5C 21.4667,31.5401 20.9667,36.8734 22,42.5C 24.8263,44.3398 27.9929,45.0065 31.5,44.5C 31.5,48.8333 31.5,53.1667 31.5,57.5C 18.5702,47.8083 12.2369,34.975 12.5,19C 19.4179,16.8744 25.7512,13.7077 31.5,9.5 Z"/></g>
<g><path style="opacity:1" fill="#54ca7a" d="M 31.5,9.5 C 37.2488,13.7077 43.5821,16.8744 50.5,19C 50.7644,34.9725 44.431,47.8059 31.5,57.5C 31.5,53.1667 31.5,48.8333 31.5,44.5C 34.3854,44.8064 37.0521,44.4731 39.5,43.5C 40.1174,43.3893 40.6174,43.056 41,42.5C 42.0333,36.8734 41.5333,31.5401 39.5,26.5C 39.6503,20.9842 36.9836,17.9842 31.5,17.5C 31.5,14.8333 31.5,12.1667 31.5,9.5 Z"/></g>
<g><path style="opacity:1" fill="#3e4e77" d="M 31.5,17.5 C 36.9836,17.9842 39.6503,20.9842 39.5,26.5C 38.1667,26.5 36.8333,26.5 35.5,26.5C 34.6615,21.3323 32.1615,20.3323 28,23.5C 27.5172,24.448 27.3505,25.448 27.5,26.5C 26.1667,26.5 24.8333,26.5 23.5,26.5C 23.3604,20.9743 26.0271,17.9743 31.5,17.5 Z"/></g>
<g><path style="opacity:1" fill="#6ad377" d="M 35.5,26.5 C 34.1667,26.5 32.8333,26.5 31.5,26.5C 30.1667,26.5 28.8333,26.5 27.5,26.5C 27.3505,25.448 27.5172,24.448 28,23.5C 32.1615,20.3323 34.6615,21.3323 35.5,26.5 Z"/></g>
<g><path style="opacity:0.781" fill="#e7f0fc" d="M 7.5,26.5 C 8.45115,27.9187 8.78448,29.5853 8.5,31.5C 5.5,31.5 2.5,31.5 -0.5,31.5C -0.5,30.1667 -0.5,28.8333 -0.5,27.5C 2.05449,26.612 4.72116,26.2786 7.5,26.5 Z"/></g>
<g><path style="opacity:1" fill="#f8e06f" d="M 23.5,26.5 C 24.8333,26.5 26.1667,26.5 27.5,26.5C 28.8333,26.5 30.1667,26.5 31.5,26.5C 31.5,28.5 31.5,30.5 31.5,32.5C 28.8333,34.5 28.8333,36.5 31.5,38.5C 31.5,40.1667 31.5,41.8333 31.5,43.5C 34.1667,43.5 36.8333,43.5 39.5,43.5C 37.0521,44.4731 34.3854,44.8064 31.5,44.5C 27.9929,45.0065 24.8263,44.3398 22,42.5C 20.9667,36.8734 21.4667,31.5401 23.5,26.5 Z"/></g>
<g><path style="opacity:1" fill="#fdb44c" d="M 31.5,26.5 C 32.8333,26.5 34.1667,26.5 35.5,26.5C 36.8333,26.5 38.1667,26.5 39.5,26.5C 41.5333,31.5401 42.0333,36.8734 41,42.5C 40.6174,43.056 40.1174,43.3893 39.5,43.5C 36.8333,43.5 34.1667,43.5 31.5,43.5C 31.5,41.8333 31.5,40.1667 31.5,38.5C 34.1667,36.5 34.1667,34.5 31.5,32.5C 31.5,30.5 31.5,28.5 31.5,26.5 Z"/></g>
<g><path style="opacity:0.953" fill="#cad8f8" d="M 55.5,26.5 C 58.2788,26.2786 60.9455,26.612 63.5,27.5C 63.5,28.8333 63.5,30.1667 63.5,31.5C 60.5,31.5 57.5,31.5 54.5,31.5C 53.3217,29.6621 53.655,27.9955 55.5,26.5 Z"/></g>
<g><path style="opacity:1" fill="#3f446f" d="M 31.5,32.5 C 34.1667,34.5 34.1667,36.5 31.5,38.5C 28.8333,36.5 28.8333,34.5 31.5,32.5 Z"/></g>
<g><path style="opacity:0.789" fill="#e4f0f9" d="M 9.5,35.5 C 11.2503,36.6594 12.2503,38.326 12.5,40.5C 9.5,40.5 6.5,40.5 3.5,40.5C 3.06203,36.0917 5.06203,34.4251 9.5,35.5 Z"/></g>
<g><path style="opacity:0.792" fill="#ccdaf9" d="M 53.5,35.5 C 57.938,34.4251 59.938,36.0917 59.5,40.5C 56.5,40.5 53.5,40.5 50.5,40.5C 50.7497,38.326 51.7497,36.6594 53.5,35.5 Z"/></g>
<g><path style="opacity:0.898" fill="#ffe376" d="M 10.5,49.5 C 10.5,51.1667 10.5,52.8333 10.5,54.5C 7.22992,58.1067 3.56326,58.44 -0.5,55.5C -0.5,53.1667 -0.5,50.8333 -0.5,48.5C 2.3632,45.2292 5.69654,44.7292 9.5,47C 10.2524,47.6708 10.5858,48.5041 10.5,49.5 Z"/></g>
<g><path style="opacity:0.895" fill="#ffb94e" d="M 63.5,48.5 C 63.5,50.8333 63.5,53.1667 63.5,55.5C 59.4367,58.44 55.7701,58.1067 52.5,54.5C 52.5,52.8333 52.5,51.1667 52.5,49.5C 53.2415,46.8619 55.0749,45.5286 58,45.5C 60.1923,45.8627 62.0256,46.8627 63.5,48.5 Z"/></g>
<g><path style="opacity:0.721" fill="#e5f0f9" d="M 10.5,49.5 C 12.5,49.5 14.5,49.5 16.5,49.5C 19.144,50.1439 20.8106,51.8106 21.5,54.5C 17.8333,54.5 14.1667,54.5 10.5,54.5C 10.5,52.8333 10.5,51.1667 10.5,49.5 Z"/></g>
<g><path style="opacity:1" fill="#ccd8f8" d="M 46.5,49.5 C 48.5,49.5 50.5,49.5 52.5,49.5C 52.5,51.1667 52.5,52.8333 52.5,54.5C 48.8333,54.5 45.1667,54.5 41.5,54.5C 42.1894,51.8106 43.856,50.1439 46.5,49.5 Z"/></g>
</svg>
