<?xml version="1.0" encoding="UTF-8"?>
<!DOCTYPE svg PUBLIC "-//W3C//DTD SVG 1.1//EN" "http://www.w3.org/Graphics/SVG/1.1/DTD/svg11.dtd">
<svg xmlns="http://www.w3.org/2000/svg" version="1.1" width="64px" height="64px" style="shape-rendering:geometricPrecision; text-rendering:geometricPrecision; image-rendering:optimizeQuality; fill-rule:evenodd; clip-rule:evenodd" xmlns:xlink="http://www.w3.org/1999/xlink">
<g><path style="opacity:0.932" fill="#7bcaa7" d="M 5.5,-0.5 C 6.83333,-0.5 8.16667,-0.5 9.5,-0.5C 16.9869,3.91983 18.3202,9.75316 13.5,17C 13.9891,18.1385 14.3225,19.3052 14.5,20.5C 8.03353,21.0239 3.03353,18.6906 -0.5,13.5C -0.5,11.1667 -0.5,8.83333 -0.5,6.5C 0.753325,3.57608 2.75333,1.24275 5.5,-0.5 Z"/></g>
<g><path style="opacity:0.972" fill="#c59191" d="M 32.5,-0.5 C 36.1667,-0.5 39.8333,-0.5 43.5,-0.5C 44.6935,0.271873 45.6935,1.27187 46.5,2.5C 44.5293,4.8082 42.5293,7.14153 40.5,9.5C 36.8765,11.934 32.8765,13.6007 28.5,14.5C 27.3414,18.122 27.1747,21.7887 28,25.5C 28.9959,27.6605 30.4959,29.3272 32.5,30.5C 32.5,31.1667 32.5,31.8333 32.5,32.5C 30.8089,33.8637 29.1423,35.197 27.5,36.5C 26.5,36.5 25.5,36.5 24.5,36.5C 19.7388,34.3838 18.2388,30.7171 20,25.5C 21.5272,23.779 22.5272,21.779 23,19.5C 21.676,10.4871 24.8427,3.82041 32.5,-0.5 Z"/></g>
<g><path style="opacity:1" fill="#5cbf94" d="M 9.5,-0.5 C 11.1667,-0.5 12.8333,-0.5 14.5,-0.5C 21.1642,4.29734 22.1642,10.1307 17.5,17C 18.3567,17.6891 19.0233,18.5224 19.5,19.5C 17.9547,20.4519 16.288,20.7852 14.5,20.5C 14.3225,19.3052 13.9891,18.1385 13.5,17C 18.3202,9.75316 16.9869,3.91983 9.5,-0.5 Z"/></g>
<g><path style="opacity:0.999" fill="#b98181" d="M 46.5,2.5 C 49.6818,4.19265 51.3484,6.85932 51.5,10.5C 51.5,11.8333 51.5,13.1667 51.5,14.5C 50.1667,14.5 48.8333,14.5 47.5,14.5C 44.3257,13.9898 41.9923,12.3231 40.5,9.5C 42.5293,7.14153 44.5293,4.8082 46.5,2.5 Z"/></g>
<g><path style="opacity:1" fill="#cae9db" d="M 5.5,8.5 C 7.33702,8.63945 7.67036,9.30612 6.5,10.5C 5.70245,10.0431 5.36912,9.37644 5.5,8.5 Z"/></g>
<g><path style="opacity:1" fill="#fccbbc" d="M 40.5,9.5 C 41.9923,12.3231 44.3257,13.9898 47.5,14.5C 47.6747,16.6208 47.3414,18.6208 46.5,20.5C 45.1023,23.932 42.769,24.932 39.5,23.5C 35.5,24.8333 35.5,26.1667 39.5,27.5C 42.4672,26.6831 45.1339,25.3497 47.5,23.5C 46.1667,26.5 44.8333,29.5 43.5,32.5C 42.7784,32.0825 42.2784,31.4158 42,30.5C 38.8689,31.7003 35.7023,31.7003 32.5,30.5C 30.4959,29.3272 28.9959,27.6605 28,25.5C 27.1747,21.7887 27.3414,18.122 28.5,14.5C 32.8765,13.6007 36.8765,11.934 40.5,9.5 Z"/></g>
<g><path style="opacity:0.93" fill="#c59191" d="M 51.5,10.5 C 52.3227,13.977 52.8227,17.6437 53,21.5C 58.148,27.1954 57.648,32.1954 51.5,36.5C 50.5,36.5 49.5,36.5 48.5,36.5C 46.7798,35.6923 45.1131,34.6923 43.5,33.5C 43.5,33.1667 43.5,32.8333 43.5,32.5C 44.8333,29.5 46.1667,26.5 47.5,23.5C 47.7373,22.209 47.404,21.209 46.5,20.5C 47.3414,18.6208 47.6747,16.6208 47.5,14.5C 48.8333,14.5 50.1667,14.5 51.5,14.5C 51.5,13.1667 51.5,11.8333 51.5,10.5 Z"/></g>
<g><path style="opacity:1" fill="#796b73" d="M 46.5,20.5 C 47.404,21.209 47.7373,22.209 47.5,23.5C 45.1339,25.3497 42.4672,26.6831 39.5,27.5C 35.5,26.1667 35.5,24.8333 39.5,23.5C 42.769,24.932 45.1023,23.932 46.5,20.5 Z"/></g>
<g><path style="opacity:1" fill="#ffb19f" d="M 32.5,30.5 C 35.7023,31.7003 38.8689,31.7003 42,30.5C 42.2784,31.4158 42.7784,32.0825 43.5,32.5C 43.5,32.8333 43.5,33.1667 43.5,33.5C 42.2067,34.1582 40.7067,34.4915 39,34.5C 36.4563,34.664 34.2897,33.9973 32.5,32.5C 32.5,31.8333 32.5,31.1667 32.5,30.5 Z"/></g>
<g><path style="opacity:1" fill="#fecebf" d="M 32.5,32.5 C 34.2897,33.9973 36.4563,34.664 39,34.5C 40.7067,34.4915 42.2067,34.1582 43.5,33.5C 45.1131,34.6923 46.7798,35.6923 48.5,36.5C 48.5,37.5 48.5,38.5 48.5,39.5C 47.8333,39.5 47.5,39.8333 47.5,40.5C 40.8202,41.7906 34.1535,41.7906 27.5,40.5C 27.5,39.1667 27.5,37.8333 27.5,36.5C 29.1423,35.197 30.8089,33.8637 32.5,32.5 Z"/></g>
<g><path style="opacity:1" fill="#8a97de" d="M 24.5,37.5 C 26.3435,39.2789 27.0102,41.6122 26.5,44.5C 24.8333,44.5 23.1667,44.5 21.5,44.5C 21.6349,50.181 21.9682,55.8477 22.5,61.5C 19.8333,61.5 17.1667,61.5 14.5,61.5C 14.5,56.1667 14.5,50.8333 14.5,45.5C 15.8016,40.4924 19.1349,37.8257 24.5,37.5 Z"/></g>
<g><path style="opacity:1" fill="#8c99df" d="M 48.5,36.5 C 49.5,36.5 50.5,36.5 51.5,36.5C 54.8729,37.6138 57.5395,39.6138 59.5,42.5C 60.418,48.7748 60.7513,55.1082 60.5,61.5C 58.1667,61.5 55.8333,61.5 53.5,61.5C 53.8799,56.6274 54.5466,51.7941 55.5,47C 55.3552,46.228 55.0219,45.5613 54.5,45C 52.5273,44.5045 50.5273,44.3379 48.5,44.5C 48.5,42.8333 48.5,41.1667 48.5,39.5C 48.5,38.5 48.5,37.5 48.5,36.5 Z"/></g>
<g><path style="opacity:1" fill="#c7c7e6" d="M 24.5,37.5 C 24.5,37.1667 24.5,36.8333 24.5,36.5C 25.5,36.5 26.5,36.5 27.5,36.5C 27.5,37.8333 27.5,39.1667 27.5,40.5C 27.5,41.8333 27.5,43.1667 27.5,44.5C 27.1667,44.5 26.8333,44.5 26.5,44.5C 27.0102,41.6122 26.3435,39.2789 24.5,37.5 Z"/></g>
<g><path style="opacity:1" fill="#fffefe" d="M 27.5,40.5 C 34.1535,41.7906 40.8202,41.7906 47.5,40.5C 47.5,41.8333 47.5,43.1667 47.5,44.5C 40.8333,44.5 34.1667,44.5 27.5,44.5C 27.5,43.1667 27.5,41.8333 27.5,40.5 Z"/></g>
<g><path style="opacity:1" fill="#edeaed" d="M 48.5,39.5 C 48.5,41.1667 48.5,42.8333 48.5,44.5C 50.5273,44.3379 52.5273,44.5045 54.5,45C 55.0219,45.5613 55.3552,46.228 55.5,47C 54.5466,51.7941 53.8799,56.6274 53.5,61.5C 43.1667,61.5 32.8333,61.5 22.5,61.5C 21.9682,55.8477 21.6349,50.181 21.5,44.5C 23.1667,44.5 24.8333,44.5 26.5,44.5C 26.8333,44.5 27.1667,44.5 27.5,44.5C 34.1667,44.5 40.8333,44.5 47.5,44.5C 47.5,43.1667 47.5,41.8333 47.5,40.5C 47.5,39.8333 47.8333,39.5 48.5,39.5 Z"/></g>
<g><path style="opacity:0.855" fill="#a9b3e8" d="M 59.5,42.5 C 60.1174,42.6107 60.6174,42.944 61,43.5C 61.4995,49.4908 61.6662,55.4908 61.5,61.5C 61.1667,61.5 60.8333,61.5 60.5,61.5C 60.7513,55.1082 60.418,48.7748 59.5,42.5 Z"/></g>
<g><path style="opacity:1" fill="#ccc3cb" d="M 36.5,51.5 C 37.8333,51.5 39.1667,51.5 40.5,51.5C 40.9899,53.9484 40.1566,55.615 38,56.5C 35.3894,55.5001 34.8894,53.8334 36.5,51.5 Z"/></g>
<g><path style="opacity:0.962" fill="#c7bfcc" d="M 14.5,45.5 C 14.5,50.8333 14.5,56.1667 14.5,61.5C 17.1667,61.5 19.8333,61.5 22.5,61.5C 32.8333,61.5 43.1667,61.5 53.5,61.5C 55.8333,61.5 58.1667,61.5 60.5,61.5C 60.8333,61.5 61.1667,61.5 61.5,61.5C 62.1667,61.5 62.8333,61.5 63.5,61.5C 63.5,62.1667 63.5,62.8333 63.5,63.5C 42.1667,63.5 20.8333,63.5 -0.5,63.5C -0.5,62.8333 -0.5,62.1667 -0.5,61.5C 4.16667,61.5 8.83333,61.5 13.5,61.5C 13.1786,55.9738 13.5119,50.6405 14.5,45.5 Z"/></g>
</svg>
