<?xml version="1.0" encoding="UTF-8"?>
<!DOCTYPE svg PUBLIC "-//W3C//DTD SVG 1.1//EN" "http://www.w3.org/Graphics/SVG/1.1/DTD/svg11.dtd">
<svg xmlns="http://www.w3.org/2000/svg" version="1.1" width="64px" height="64px" style="shape-rendering:geometricPrecision; text-rendering:geometricPrecision; image-rendering:optimizeQuality; fill-rule:evenodd; clip-rule:evenodd" xmlns:xlink="http://www.w3.org/1999/xlink">
<g><path style="opacity:0.897" fill="#09a00d" d="M 41.5,3.5 C 46.8552,2.34529 51.0219,4.01195 54,8.5C 56.3665,12.9991 55.5332,16.8324 51.5,20C 50.5,20.6667 49.5,20.6667 48.5,20C 45,16.5 41.5,13 38,9.5C 37.3333,8.83333 37.3333,8.16667 38,7.5C 39.3756,6.29493 40.5423,4.9616 41.5,3.5 Z"/></g>
<g><path style="opacity:0.989" fill="#11b517" d="M 34.5,10.5 C 39.0719,13.5633 43.2385,17.23 47,21.5C 47.6667,22.5 47.6667,23.5 47,24.5C 38.8333,32.6667 30.6667,40.8333 22.5,49C 9.09914,53.2634 4.93247,48.7634 10,35.5C 18.369,27.2983 26.5357,18.965 34.5,10.5 Z"/></g>
<g><path style="opacity:0.796" fill="#099a0e" d="M 3.5,55.5 C 22.1696,55.3334 40.8363,55.5001 59.5,56C 60.3802,57.3561 60.7135,58.8561 60.5,60.5C 41.1667,60.5 21.8333,60.5 2.5,60.5C 2.36596,58.7085 2.69929,57.0418 3.5,55.5 Z"/></g>
</svg>
