<?xml version="1.0" encoding="UTF-8"?>
<!DOCTYPE svg PUBLIC "-//W3C//DTD SVG 1.1//EN" "http://www.w3.org/Graphics/SVG/1.1/DTD/svg11.dtd">
<svg xmlns="http://www.w3.org/2000/svg" version="1.1" width="512px" height="512px" style="shape-rendering:geometricPrecision; text-rendering:geometricPrecision; image-rendering:optimizeQuality; fill-rule:evenodd; clip-rule:evenodd" xmlns:xlink="http://www.w3.org/1999/xlink">
<g><path style="opacity:1" fill="#73da7e" d="M 232.5,-0.5 C 247.833,-0.5 263.167,-0.5 278.5,-0.5C 312.553,3.10074 344.886,12.7674 375.5,28.5C 385.95,64.7834 389.617,101.783 386.5,139.5C 370.879,133.995 356.212,135.828 342.5,145C 299.679,188.988 257.012,233.155 214.5,277.5C 196.708,259.207 178.708,241.041 160.5,223C 136.31,207.953 114.81,211.12 96,232.5C 83.3543,253.946 85.3543,273.946 102,292.5C 129.703,320.702 157.203,349.035 184.5,377.5C 132.724,391.102 81.057,390.768 29.5,376.5C 12.9941,345.806 2.99408,313.139 -0.5,278.5C -0.5,263.167 -0.5,247.833 -0.5,232.5C 10.3875,142.857 54.7208,75.3573 132.5,30C 163.971,13.3053 197.304,3.1386 232.5,-0.5 Z"/></g>
<g><path style="opacity:0.998" fill="#2ad352" d="M 375.5,28.5 C 443.643,66.5026 487.143,123.503 506,199.5C 508.254,210.576 510.087,221.576 511.5,232.5C 511.5,247.833 511.5,263.167 511.5,278.5C 500.612,368.144 456.279,435.644 378.5,481C 347.029,497.695 313.696,507.861 278.5,511.5C 263.167,511.5 247.833,511.5 232.5,511.5C 155.36,502.688 93.5271,467.354 47,405.5C 40.5162,396.193 34.6829,386.526 29.5,376.5C 81.057,390.768 132.724,391.102 184.5,377.5C 204.312,391.883 224.312,392.05 244.5,378C 297.667,322.167 350.833,266.333 404,210.5C 418.244,190.535 417.91,170.868 403,151.5C 398.052,146.622 392.552,142.622 386.5,139.5C 389.617,101.783 385.95,64.7834 375.5,28.5 Z"/></g>
<g><path style="opacity:1" fill="#fefefe" d="M 386.5,139.5 C 392.552,142.622 398.052,146.622 403,151.5C 417.91,170.868 418.244,190.535 404,210.5C 350.833,266.333 297.667,322.167 244.5,378C 224.312,392.05 204.312,391.883 184.5,377.5C 157.203,349.035 129.703,320.702 102,292.5C 85.3543,273.946 83.3543,253.946 96,232.5C 114.81,211.12 136.31,207.953 160.5,223C 178.708,241.041 196.708,259.207 214.5,277.5C 257.012,233.155 299.679,188.988 342.5,145C 356.212,135.828 370.879,133.995 386.5,139.5 Z"/></g>
</svg>
