<?xml version="1.0" encoding="UTF-8"?>
<!DOCTYPE svg PUBLIC "-//W3C//DTD SVG 1.1//EN" "http://www.w3.org/Graphics/SVG/1.1/DTD/svg11.dtd">
<svg xmlns="http://www.w3.org/2000/svg" version="1.1" width="128px" height="128px" style="shape-rendering:geometricPrecision; text-rendering:geometricPrecision; image-rendering:optimizeQuality; fill-rule:evenodd; clip-rule:evenodd" xmlns:xlink="http://www.w3.org/1999/xlink">
<g><path style="opacity:0.94" fill="#578156" d="M 127.5,26.5 C 127.5,53.5 127.5,80.5 127.5,107.5C 126.78,110.06 125.113,111.893 122.5,113C 118.179,113.499 113.846,113.666 109.5,113.5C 109.5,117.833 109.5,122.167 109.5,126.5C 72.6123,127.15 35.9456,126.484 -0.5,124.5C -0.5,117.833 -0.5,111.167 -0.5,104.5C 0.266857,98.1446 3.26686,92.9779 8.5,89C 17.7553,85.202 27.0887,81.702 36.5,78.5C 36.6646,75.4816 36.498,72.4816 36,69.5C 34.3921,66.6179 33.0587,63.6179 32,60.5C 24.429,53.5683 22.5957,45.5683 26.5,36.5C 22.6272,8.87354 34.6272,-2.95979 62.5,1C 67.9411,2.11127 71.9411,5.11127 74.5,10C 79.6043,11.2703 82.9376,14.4369 84.5,19.5C 97.8209,20.3327 111.154,20.8327 124.5,21C 125.869,22.7189 126.869,24.5522 127.5,26.5 Z M 50.5,4.5 C 59.1204,3.34291 65.7871,6.34291 70.5,13.5C 77.5355,14.732 80.5355,18.8987 79.5,26C 79.5172,30.2769 78.8506,34.4435 77.5,38.5C 77.9252,40.3805 78.9252,41.8805 80.5,43C 79.7173,46.6319 78.5506,50.1319 77,53.5C 75.7949,54.0712 74.6283,54.7379 73.5,55.5C 71.9664,63.7668 67.633,69.9334 60.5,74C 53.3073,76.8254 47.1407,75.3254 42,69.5C 39.0238,65.2141 36.8572,60.5474 35.5,55.5C 34.5,54.8333 33.5,54.1667 32.5,53.5C 30.8641,50.0891 29.5308,46.5891 28.5,43C 30.3905,41.9219 31.3905,40.2552 31.5,38C 26.6993,20.0683 33.0326,8.90164 50.5,4.5 Z M 85.5,24.5 C 97.747,24.1782 109.914,24.5115 122,25.5C 122.667,52.5 122.667,79.5 122,106.5C 118.164,108.389 113.997,109.055 109.5,108.5C 110.129,101.162 107.796,94.9958 102.5,90C 93.2875,85.8736 83.9542,82.0403 74.5,78.5C 72.9581,69.5689 75.4581,61.9022 82,55.5C 85.7309,49.345 86.2309,43.0117 83.5,36.5C 84.811,32.6112 85.4776,28.6112 85.5,24.5 Z M 40.5,75.5 C 49.6962,82.0806 58.8629,82.0806 68,75.5C 68.7203,77.1124 68.5536,78.6124 67.5,80C 63.3114,83.6896 58.978,87.1896 54.5,90.5C 49.8549,87.0226 45.3549,83.3559 41,79.5C 40.51,78.2068 40.3433,76.8734 40.5,75.5 Z M 35.5,83.5 C 36.552,83.3505 37.552,83.5172 38.5,84C 42.1667,87 45.8333,90 49.5,93C 45.8547,94.1659 42.188,94.8326 38.5,95C 36.1031,91.3466 35.1031,87.5132 35.5,83.5 Z M 70.5,83.5 C 71.8333,83.5 73.1667,83.5 74.5,83.5C 73.8151,88.2611 71.8151,92.2611 68.5,95.5C 65.8029,94.7676 63.1362,93.9343 60.5,93C 63.7289,89.6014 67.0622,86.4347 70.5,83.5 Z M 27.5,86.5 C 28.3764,86.3691 29.0431,86.7025 29.5,87.5C 31.3712,92.0742 33.3712,96.5742 35.5,101C 40.2031,99.3009 44.0364,100.468 47,104.5C 45.8341,110.514 44.3341,116.514 42.5,122.5C 29.8333,122.5 17.1667,122.5 4.5,122.5C 4.14392,114.762 4.64392,107.095 6,99.5C 7.14115,97.3911 8.64115,95.5578 10.5,94C 16.3927,91.7677 22.0594,89.2677 27.5,86.5 Z M 79.5,86.5 C 87.9225,88.3584 95.4225,92.025 102,97.5C 102.862,99.087 103.529,100.754 104,102.5C 104.5,109.158 104.666,115.825 104.5,122.5C 91.92,122.822 79.42,122.489 67,121.5C 65.3586,116.241 63.5252,111.074 61.5,106C 62.8333,104.333 64.1667,102.667 65.5,101C 67.3774,100.424 69.2108,100.591 71,101.5C 72.2613,101.241 73.2613,100.574 74,99.5C 75.8483,95.1408 77.6817,90.8075 79.5,86.5 Z M 54.5,96.5 C 56.6301,97.0319 58.6301,97.8652 60.5,99C 58.7046,101.114 57.3713,103.448 56.5,106C 58.4719,111.415 60.1386,116.915 61.5,122.5C 56.7863,122.827 52.1196,122.493 47.5,121.5C 49.5,116.167 51.5,110.833 53.5,105.5C 52.5589,103.228 51.2255,101.228 49.5,99.5C 50.9469,98.0652 52.6136,97.0652 54.5,96.5 Z"/></g>
<g><path style="opacity:0.933" fill="#598258" d="M 90.5,33.5 C 93.5,33.5 96.5,33.5 99.5,33.5C 99.5,34.8333 99.5,36.1667 99.5,37.5C 96.5,37.5 93.5,37.5 90.5,37.5C 90.5,36.1667 90.5,34.8333 90.5,33.5 Z"/></g>
<g><path style="opacity:0.966" fill="#578157" d="M 104.5,33.5 C 108.514,33.3345 112.514,33.5012 116.5,34C 117.833,35 117.833,36 116.5,37C 112.514,37.4988 108.514,37.6655 104.5,37.5C 104.5,36.1667 104.5,34.8333 104.5,33.5 Z"/></g>
<g><path style="opacity:0.839" fill="#598158" d="M 91.5,48.5 C 93.8568,48.3367 96.1902,48.5034 98.5,49C 99.5171,50.0495 99.6838,51.2161 99,52.5C 96.5991,53.6023 94.0991,53.769 91.5,53C 90.2721,51.5098 90.2721,50.0098 91.5,48.5 Z"/></g>
<g><path style="opacity:0.817" fill="#588156" d="M 105.5,48.5 C 108.85,48.335 112.183,48.5017 115.5,49C 117.394,50.0793 117.727,51.4126 116.5,53C 112.514,53.4988 108.514,53.6655 104.5,53.5C 104.366,51.7085 104.699,50.0418 105.5,48.5 Z"/></g>
<g><path style="opacity:0.869" fill="#588157" d="M 105.5,64.5 C 109.182,64.3347 112.848,64.5014 116.5,65C 117.833,66.3333 117.833,67.6667 116.5,69C 112.833,69.6667 109.167,69.6667 105.5,69C 104.272,67.5098 104.272,66.0098 105.5,64.5 Z"/></g>
<g><path style="opacity:0.877" fill="#578157" d="M 91.5,64.5 C 93.8568,64.3367 96.1902,64.5034 98.5,65C 99.5171,66.0495 99.6838,67.2161 99,68.5C 96.5991,69.6023 94.0991,69.769 91.5,69C 90.2721,67.5098 90.2721,66.0098 91.5,64.5 Z"/></g>
<g><path style="opacity:0.941" fill="#588156" d="M 104.5,80.5 C 108.514,80.3345 112.514,80.5012 116.5,81C 117.727,82.5874 117.394,83.9207 115.5,85C 112.5,85.6667 109.5,85.6667 106.5,85C 104.893,83.951 104.227,82.451 104.5,80.5 Z"/></g>
</svg>
