<?xml version="1.0" encoding="UTF-8"?>
<!DOCTYPE svg PUBLIC "-//W3C//DTD SVG 1.1//EN" "http://www.w3.org/Graphics/SVG/1.1/DTD/svg11.dtd">
<svg xmlns="http://www.w3.org/2000/svg" version="1.1" width="128px" height="128px" style="shape-rendering:geometricPrecision; text-rendering:geometricPrecision; image-rendering:optimizeQuality; fill-rule:evenodd; clip-rule:evenodd" xmlns:xlink="http://www.w3.org/1999/xlink">
<g><path style="opacity:0.972" fill="#588157" d="M 96.5,-0.5 C 106.833,-0.5 117.167,-0.5 127.5,-0.5C 127.5,9.5 127.5,19.5 127.5,29.5C 124.833,29.5 122.167,29.5 119.5,29.5C 119.666,24.4889 119.499,19.4889 119,14.5C 105.955,28.046 92.4554,41.046 78.5,53.5C 68.5,43.8333 58.5,34.1667 48.5,24.5C 34.1806,38.3192 20.0139,52.3192 6,66.5C 3.38692,64.5985 1.72025,62.2652 1,59.5C 16.5,44 32,28.5 47.5,13C 48.1667,12.3333 48.8333,12.3333 49.5,13C 59.0141,22.681 68.6808,32.181 78.5,41.5C 89.986,30.5142 101.319,19.3476 112.5,8C 107.177,7.50065 101.844,7.33398 96.5,7.5C 96.5,4.83333 96.5,2.16667 96.5,-0.5 Z"/></g>
<g><path style="opacity:1" fill="#588057" d="M 127.5,119.5 C 127.5,122.167 127.5,124.833 127.5,127.5C 84.8333,127.5 42.1667,127.5 -0.5,127.5C -0.5,124.833 -0.5,122.167 -0.5,119.5C 1.83333,119.5 4.16667,119.5 6.5,119.5C 6.5,106.833 6.5,94.1667 6.5,81.5C 14.5,81.5 22.5,81.5 30.5,81.5C 30.5,94.1667 30.5,106.833 30.5,119.5C 32.5,119.5 34.5,119.5 36.5,119.5C 36.5,99.5 36.5,79.5 36.5,59.5C 44.5,59.5 52.5,59.5 60.5,59.5C 60.5,79.5 60.5,99.5 60.5,119.5C 62.5,119.5 64.5,119.5 66.5,119.5C 66.5,104.5 66.5,89.5 66.5,74.5C 74.5,74.5 82.5,74.5 90.5,74.5C 90.5,89.5 90.5,104.5 90.5,119.5C 92.5,119.5 94.5,119.5 96.5,119.5C 96.5,94.5 96.5,69.5 96.5,44.5C 104.5,44.5 112.5,44.5 120.5,44.5C 120.5,69.5 120.5,94.5 120.5,119.5C 122.833,119.5 125.167,119.5 127.5,119.5 Z"/></g>
</svg>
