<?xml version="1.0" encoding="UTF-8"?>
<!DOCTYPE svg PUBLIC "-//W3C//DTD SVG 1.1//EN" "http://www.w3.org/Graphics/SVG/1.1/DTD/svg11.dtd">
<svg xmlns="http://www.w3.org/2000/svg" version="1.1" width="128px" height="128px" style="shape-rendering:geometricPrecision; text-rendering:geometricPrecision; image-rendering:optimizeQuality; fill-rule:evenodd; clip-rule:evenodd" xmlns:xlink="http://www.w3.org/1999/xlink">
<g><path style="opacity:0.852" fill="#588256" d="M 49.5,2.5 C 55.4824,2.16639 59.1491,4.83305 60.5,10.5C 63.1873,10.3359 65.854,10.5026 68.5,11C 70.0368,12.1096 70.7035,13.6096 70.5,15.5C 75.1785,15.3342 79.8452,15.5008 84.5,16C 86.6238,17.1217 88.4571,18.6217 90,20.5C 91.4581,37.7639 91.9581,55.0972 91.5,72.5C 95.4851,72.4399 97.1518,74.4399 96.5,78.5C 99.2714,76.9138 102.271,76.4138 105.5,77C 107.333,78.8333 109.167,80.6667 111,82.5C 111.854,85.4066 111.021,87.7399 108.5,89.5C 110.49,90.8732 112.657,91.8732 115,92.5C 115.499,96.4862 115.666,100.486 115.5,104.5C 112.903,104.643 110.569,105.477 108.5,107C 110.625,108.737 111.458,110.904 111,113.5C 108.618,116.219 105.951,118.553 103,120.5C 101.018,120.01 99.3513,119.01 98,117.5C 96.4766,119.569 95.6432,121.903 95.5,124.5C 91.4862,124.666 87.4862,124.499 83.5,124C 82.8732,121.657 81.8732,119.49 80.5,117.5C 78.209,120.578 75.5424,121.078 72.5,119C 54.5,118.667 36.5,118.333 18.5,118C 16.3762,116.878 14.5429,115.378 13,113.5C 11.357,83.5613 11.0237,53.5613 12,23.5C 13.0774,20.087 15.2441,17.587 18.5,16C 23.1548,15.5008 27.8215,15.3342 32.5,15.5C 32.2965,13.6096 32.9632,12.1096 34.5,11C 37.146,10.5026 39.8127,10.3359 42.5,10.5C 43.4278,6.574 45.7611,3.90734 49.5,2.5 Z M 47.5,9.5 C 47.1377,16.004 49.6377,17.6707 55,14.5C 55.4935,12.8659 55.6602,11.1992 55.5,9.5C 56.339,10.6412 57.0057,11.9745 57.5,13.5C 60.4281,14.4841 63.4281,14.8174 66.5,14.5C 66.5,16.8333 66.5,19.1667 66.5,21.5C 56.5,21.5 46.5,21.5 36.5,21.5C 36.5,19.1667 36.5,16.8333 36.5,14.5C 39.5719,14.8174 42.5719,14.4841 45.5,13.5C 45.9943,11.9745 46.661,10.6412 47.5,9.5 Z M 20.5,19.5 C 24.5,19.5 28.5,19.5 32.5,19.5C 32.178,21.7224 32.8446,23.5557 34.5,25C 45.8333,25.6667 57.1667,25.6667 68.5,25C 70.1554,23.5557 70.822,21.7224 70.5,19.5C 74.5138,19.3345 78.5138,19.5012 82.5,20C 84.6667,20.8333 86.1667,22.3333 87,24.5C 87.4999,40.4965 87.6666,56.4965 87.5,72.5C 85.8333,72.5 84.1667,72.5 82.5,72.5C 82.7529,74.8273 82.0863,76.8273 80.5,78.5C 78.3684,76.8826 76.0351,76.3826 73.5,77C 70.9832,79.3494 68.6499,81.8494 66.5,84.5C 71.2158,89.3986 70.2158,91.7319 63.5,91.5C 63.1744,95.8839 63.5078,100.217 64.5,104.5C 66.0709,105.309 67.7376,105.643 69.5,105.5C 69.2189,107.963 68.2189,110.13 66.5,112C 66.9574,112.414 67.2907,112.914 67.5,113.5C 51.5104,114.666 35.5104,114.833 19.5,114C 18.6667,113.167 17.8333,112.333 17,111.5C 15.3501,82.5862 15.0167,53.5862 16,24.5C 17.025,22.313 18.525,20.6464 20.5,19.5 Z M 41.5,36.5 C 42.8333,36.5 44.1667,36.5 45.5,36.5C 45.3354,39.5184 45.502,42.5184 46,45.5C 47.881,46.3544 49.7143,46.0211 51.5,44.5C 53.0778,45.6405 54.7445,46.1405 56.5,46C 57.4505,42.9433 57.7839,39.7766 57.5,36.5C 58.8333,36.5 60.1667,36.5 61.5,36.5C 61.5,42.1667 61.5,47.8333 61.5,53.5C 54.8333,53.5 48.1667,53.5 41.5,53.5C 41.5,47.8333 41.5,42.1667 41.5,36.5 Z M 49.5,36.5 C 50.8333,36.5 52.1667,36.5 53.5,36.5C 53.5,37.5 53.5,38.5 53.5,39.5C 52.1667,39.5 50.8333,39.5 49.5,39.5C 49.5,38.5 49.5,37.5 49.5,36.5 Z M 26.5,66.5 C 29.5184,66.3354 32.5184,66.502 35.5,67C 33.6981,70.0767 31.6981,70.2433 29.5,67.5C 26.8775,69.8748 27.2108,72.0414 30.5,74C 32.7008,74.8249 34.5341,74.3249 36,72.5C 36.7203,74.1124 36.5536,75.6124 35.5,77C 25.7639,79.4644 22.7639,75.9644 26.5,66.5 Z M 86.5,76.5 C 88.5,76.5 90.5,76.5 92.5,76.5C 92.2985,80.6369 94.2985,82.9702 98.5,83.5C 101.654,80.7068 104.32,81.2068 106.5,85C 103.213,90.2603 104.547,93.7603 110.5,95.5C 111.466,97.396 111.799,99.396 111.5,101.5C 106.961,100.539 104.628,102.373 104.5,107C 105.156,108.909 105.656,110.742 106,112.5C 104.981,113.687 103.814,114.687 102.5,115.5C 96.3499,111.908 93.0166,113.574 92.5,120.5C 88.2488,121.27 85.7488,119.603 85,115.5C 82,112.833 79,112.833 76,115.5C 72.2068,113.32 71.7068,110.654 74.5,107.5C 73.9702,103.299 71.6369,101.299 67.5,101.5C 67.3379,99.4727 67.5045,97.4727 68,95.5C 74.2756,93.4833 75.4423,89.9833 71.5,85C 73,83.5 74.5,82 76,80.5C 81.2812,84.4554 84.7812,83.1221 86.5,76.5 Z M 85.5,87.5 C 93.4223,86.9337 98.4223,90.4337 100.5,98C 97.6946,108.241 91.6946,111.075 82.5,106.5C 76.5173,99.0442 77.5173,92.7109 85.5,87.5 Z M 26.5,93.5 C 29.1873,93.3359 31.854,93.5026 34.5,94C 33.9747,94.6924 33.3081,95.1924 32.5,95.5C 30.9291,94.6906 29.2624,94.3573 27.5,94.5C 28.4215,100.293 31.2548,101.626 36,98.5C 36.7203,100.112 36.5536,101.612 35.5,103C 26.0902,105.758 23.0902,102.592 26.5,93.5 Z"/></g>
<g><path style="opacity:0.915" fill="#588157" d="M 37.5,32.5 C 46.8333,32.5 56.1667,32.5 65.5,32.5C 65.5,40.5 65.5,48.5 65.5,56.5C 56.1667,56.5 46.8333,56.5 37.5,56.5C 37.5,48.5 37.5,40.5 37.5,32.5 Z M 41.5,36.5 C 41.5,42.1667 41.5,47.8333 41.5,53.5C 48.1667,53.5 54.8333,53.5 61.5,53.5C 61.5,47.8333 61.5,42.1667 61.5,36.5C 60.1667,36.5 58.8333,36.5 57.5,36.5C 57.7839,39.7766 57.4505,42.9433 56.5,46C 54.7445,46.1405 53.0778,45.6405 51.5,44.5C 49.7143,46.0211 47.881,46.3544 46,45.5C 45.502,42.5184 45.3354,39.5184 45.5,36.5C 44.1667,36.5 42.8333,36.5 41.5,36.5 Z M 49.5,36.5 C 49.5,37.5 49.5,38.5 49.5,39.5C 50.8333,39.5 52.1667,39.5 53.5,39.5C 53.5,38.5 53.5,37.5 53.5,36.5C 52.1667,36.5 50.8333,36.5 49.5,36.5 Z"/></g>
<g><path style="opacity:0.938" fill="#588156" d="M 25.5,62.5 C 29.1817,62.3347 32.8484,62.5014 36.5,63C 37.4162,63.3742 38.2496,63.8742 39,64.5C 40.1096,62.9632 41.6096,62.2965 43.5,62.5C 43.8719,65.0217 43.0386,67.0217 41,68.5C 42.0875,80.0661 36.9209,84.2327 25.5,81C 23.6667,80.5 22.5,79.3333 22,77.5C 21.3333,73.8333 21.3333,70.1667 22,66.5C 22.6897,64.6498 23.8564,63.3164 25.5,62.5 Z M 26.5,66.5 C 22.7639,75.9644 25.7639,79.4644 35.5,77C 36.5536,75.6124 36.7203,74.1124 36,72.5C 34.5341,74.3249 32.7008,74.8249 30.5,74C 27.2108,72.0414 26.8775,69.8748 29.5,67.5C 31.6981,70.2433 33.6981,70.0767 35.5,67C 32.5184,66.502 29.5184,66.3354 26.5,66.5 Z"/></g>
<g><path style="opacity:0.913" fill="#588156" d="M 48.5,67.5 C 59.1874,67.168 69.8541,67.5013 80.5,68.5C 80.7093,69.086 81.0426,69.586 81.5,70C 70.6581,71.6408 59.6581,71.9742 48.5,71C 47.3157,69.8545 47.3157,68.6879 48.5,67.5 Z"/></g>
<g><path style="opacity:0.984" fill="#588057" d="M 48.5,74.5 C 56.1667,74.5 63.8333,74.5 71.5,74.5C 71.5,75.5 71.5,76.5 71.5,77.5C 63.8261,77.6664 56.1594,77.4997 48.5,77C 47.4019,76.2303 47.4019,75.397 48.5,74.5 Z"/></g>
<g><path style="opacity:0.899" fill="#578256" d="M 84.5,83.5 C 95.6768,82.245 102.343,87.0783 104.5,98C 103.333,107.167 98.1667,112.333 89,113.5C 75.4926,110.329 71.4926,102.329 77,89.5C 79.1141,86.8792 81.6141,84.8792 84.5,83.5 Z M 85.5,87.5 C 77.5173,92.7109 76.5173,99.0442 82.5,106.5C 91.6946,111.075 97.6946,108.241 100.5,98C 98.4223,90.4337 93.4223,86.9337 85.5,87.5 Z"/></g>
<g><path style="opacity:0.912" fill="#588156" d="M 40.5,88.5 C 41.5,88.5 42.5,88.5 43.5,88.5C 43.8719,91.0217 43.0386,93.0217 41,94.5C 41.9959,106.815 36.4959,110.982 24.5,107C 21.0709,101.87 20.5709,96.3697 23,90.5C 28.3333,89.1667 33.6667,89.1667 39,90.5C 39.7172,89.9558 40.2172,89.2891 40.5,88.5 Z M 26.5,93.5 C 23.0902,102.592 26.0902,105.758 35.5,103C 36.5536,101.612 36.7203,100.112 36,98.5C 31.2548,101.626 28.4215,100.293 27.5,94.5C 29.2624,94.3573 30.9291,94.6906 32.5,95.5C 33.3081,95.1924 33.9747,94.6924 34.5,94C 31.854,93.5026 29.1873,93.3359 26.5,93.5 Z"/></g>
<g><path style="opacity:0.927" fill="#588257" d="M 49.5,93.5 C 53.1817,93.3347 56.8484,93.5014 60.5,94C 61.3366,95.0113 61.67,96.1779 61.5,97.5C 57.1539,97.6657 52.8206,97.499 48.5,97C 48.1667,96.6667 47.8333,96.3333 47.5,96C 48.3805,95.2917 49.0472,94.4584 49.5,93.5 Z"/></g>
<g><path style="opacity:0.75" fill="#588157" d="M 48.5,100.5 C 52.8333,100.5 57.1667,100.5 61.5,100.5C 61.67,101.822 61.3366,102.989 60.5,104C 56.4589,104.827 52.4589,104.66 48.5,103.5C 47.2086,102.473 47.2086,101.473 48.5,100.5 Z"/></g>
</svg>
